<svg width="180" height="68" fill="none" xmlns="http://www.w3.org/2000/svg"><g clip-path="url(#a)"><path fill-rule="evenodd" clip-rule="evenodd" d="M136.972 13.199c.24-.27.432-.696.432-1.226 0-.531-.192-.957-.432-1.227-.237-.264-.482-.349-.681-.349-.198 0-.444.085-.68.35-.24.269-.432.695-.432 1.226 0 .53.192.956.432 1.226.236.264.482.349.68.349.199 0 .444-.085.681-.35Zm2.975-1.226c0 1.693-.917 3.146-2.225 3.77v7.572h.562c1.015-4.508 5.074-7.877 9.928-7.877h5.808c1.98 0-2.194 1.866 1.185 2.836.318.473 5.951 4.442 6.539 4.568 2.81.605 7.417-1.947 9.673-2.205 2.288-.261 2.225 1.418 2.461 2.678h3.579c1.404 0 2.543 1.128 2.543 2.52v10.083c0 1.392-1.139 2.52-2.543 2.52h-3.817c-1.129 4.349-5.112 7.562-9.852 7.562h-15.576c-4.74 0-8.723-3.213-9.852-7.562h-3.817c-1.404 0-2.543-1.128-2.543-2.52V25.836c0-1.392 1.139-2.521 2.543-2.521h.636v-7.44c-1.475-.527-2.543-2.075-2.543-3.902 0-2.263 1.636-4.096 3.655-4.096s3.656 1.833 3.656 4.096Zm15.258 6.3h-6.993c-4.038 0-7.311 3.245-7.311 7.247v10.398c0 4.002 3.273 7.246 7.311 7.246h15.576c4.038 0 7.311-3.244 7.311-7.246V25.52c0-1.04.159-3.308-1.271-4.095-1.81-.536-4.776.718-7.311.787-1.963.054-3.7-.346-5.087-1.102-1.578-.294-.745-2.411-2.225-2.836Zm18.755 17.33h3.179V26.15h-3.179v9.452Zm-39.099-9.452h3.179v9.452h-3.179V26.15Zm12.981 3.308c-.074.086-.14.18-.199.278a3.832 3.832 0 0 1-.334.475c-.311.373-.707.665-1.182.665-.666 0-1.22-.542-1.069-1.185a5.033 5.033 0 0 1 .694-1.61 4.802 4.802 0 0 1 .426-.547c.805-.886 1.896-1.384 3.035-1.384 1.138 0 2.229.498 3.034 1.384a4.516 4.516 0 0 1 .666.949c.202.377.354.784.454 1.208.151.643-.403 1.185-1.068 1.185-.476 0-.872-.292-1.183-.665a3.72 3.72 0 0 1-.333-.475 2.075 2.075 0 0 0-.433-.51 1.77 1.77 0 0 0-1.137-.421c-.413 0-.812.15-1.137.421a1.942 1.942 0 0 0-.193.185l-.041.047Zm10.633 6.262c.169-.137.343-.27.522-.386.328-.211.674-.362 1.044-.362.838 0 1.544.705 1.172 1.45a4.148 4.148 0 0 1-1.154 1.385l-.049.038-.03.023a5.3 5.3 0 0 1-.592.388c-.927.524-2.059.812-3.229.812s-2.302-.288-3.229-.812a5.3 5.3 0 0 1-.671-.449 4.148 4.148 0 0 1-1.154-1.385c-.372-.745.334-1.45 1.172-1.45.37 0 .716.15 1.044.362a6.21 6.21 0 0 1 .615.462l.134.11c.14.117.279.232.415.335.444.336 1.046.525 1.674.525.628 0 1.23-.189 1.674-.525.136-.103.274-.218.415-.334l.074-.06.023-.02.037-.03.093-.077Zm2.837-5.984a1.983 1.983 0 0 1 .432-.51 1.774 1.774 0 0 1 1.138-.421c.412 0 .811.15 1.137.421a1.933 1.933 0 0 1 .233.232c.074.086.141.18.199.278.098.162.209.325.334.475.311.373.707.665 1.182.665.666 0 1.22-.542 1.069-1.185a5.033 5.033 0 0 0-.694-1.61 4.802 4.802 0 0 0-.426-.547c-.805-.886-1.896-1.384-3.034-1.384-1.139 0-2.23.498-3.035 1.384a4.554 4.554 0 0 0-.426.546 5.033 5.033 0 0 0-.694 1.61c-.151.644.403 1.186 1.069 1.186.475 0 .871-.292 1.182-.665.125-.15.236-.313.334-.475Z" fill="#6444F4"/><path fill-rule="evenodd" clip-rule="evenodd" d="M157.429 2.73a2.77 2.77 0 0 0-1.948.8 2.721 2.721 0 0 0-.807 1.931v10.923c0 .724.291 1.418.807 1.93a2.77 2.77 0 0 0 1.948.8h2.755c.761 0 1.378.611 1.378 1.366v1.684l4.801-2.855c.214-.128.459-.195.709-.195h6.887c.731 0 1.432-.288 1.948-.8a2.717 2.717 0 0 0 .807-1.93V5.46c0-.724-.29-1.419-.807-1.93a2.766 2.766 0 0 0-1.948-.8h-16.53Zm-3.896-1.13a5.536 5.536 0 0 1 3.896-1.6h16.53c1.461 0 2.863.575 3.896 1.6a5.434 5.434 0 0 1 1.614 3.861v10.923c0 1.448-.58 2.837-1.614 3.861a5.535 5.535 0 0 1-3.896 1.6h-6.506l-6.56 3.901c-.426.253-.956.26-1.387.018a1.363 1.363 0 0 1-.699-1.189v-2.73h-1.378a5.536 5.536 0 0 1-3.896-1.6 5.438 5.438 0 0 1-1.614-3.861V5.46c0-1.448.581-2.837 1.614-3.861Zm5.274 6.592c0-.754.617-1.366 1.377-1.366h11.02c.761 0 1.378.612 1.378 1.366 0 .754-.617 1.365-1.378 1.365h-11.02c-.76 0-1.377-.611-1.377-1.365Zm0 5.461c0-.754.617-1.365 1.377-1.365h8.265c.761 0 1.378.611 1.378 1.365s-.617 1.365-1.378 1.365h-8.265c-.76 0-1.377-.611-1.377-1.365Z" fill="#04FB9C"/><path d="M87.474 43.384c-.886 0-1.57-.242-2.054-.725-.483-.504-.725-1.209-.725-2.115V24.382c0-.927.242-1.632.725-2.115.483-.483 1.168-.725 2.054-.725.907 0 1.591.242 2.055.725.483.483.725 1.188.725 2.115v16.162c0 .906-.232 1.611-.695 2.115-.463.483-1.158.725-2.085.725ZM96.01 43.384c-.887 0-1.582-.242-2.085-.725-.483-.504-.725-1.219-.725-2.145v-15.83c0-.927.242-1.631.725-2.115.503-.503 1.228-.755 2.175-.755h10.06c.725 0 1.269.181 1.631.544.363.362.544.886.544 1.57 0 .706-.181 1.25-.544 1.632-.362.363-.906.544-1.631.544h-7.402v4.29h6.737c.705 0 1.239.18 1.601.543.383.363.574.886.574 1.571 0 .705-.191 1.239-.574 1.601-.362.363-.896.544-1.601.544h-6.737v5.86c0 1.914-.916 2.87-2.749 2.87ZM117.789 43.384c-.886 0-1.571-.242-2.055-.725-.483-.504-.725-1.219-.725-2.145V33.5l-5.8-8.212a2.41 2.41 0 0 1-.453-1.601c.06-.604.302-1.108.725-1.51.443-.423 1.067-.635 1.873-.635.564 0 1.078.141 1.541.423.463.262.896.715 1.299 1.36l3.595 5.553 3.776-5.584c.423-.644.856-1.097 1.299-1.36.443-.261.967-.392 1.571-.392.765 0 1.359.191 1.782.574.423.383.645.866.665 1.45.04.584-.141 1.178-.544 1.783l-5.77 8.326v6.839c0 1.913-.926 2.87-2.779 2.87ZM2.825 43.384c-.886 0-1.571-.242-2.054-.725-.484-.504-.725-1.209-.725-2.115V24.382c0-.927.241-1.632.725-2.115.483-.483 1.168-.725 2.054-.725.906 0 1.591.242 2.054.725.484.483.725 1.188.725 2.115v5.65h8.791v-5.65c0-.927.232-1.632.695-2.115.483-.483 1.178-.725 2.085-.725.886 0 1.56.242 2.024.725.483.483.725 1.188.725 2.115v16.162c0 .906-.242 1.611-.725 2.115-.464.483-1.138.725-2.024.725-.907 0-1.602-.242-2.085-.725-.463-.504-.695-1.209-.695-2.115v-5.951h-8.79v5.951c0 .906-.232 1.611-.696 2.115-.463.483-1.158.725-2.084.725ZM25.788 43.112c-.946 0-1.671-.242-2.175-.725-.483-.504-.725-1.219-.725-2.145V24.684c0-.927.242-1.631.725-2.115.504-.503 1.229-.755 2.175-.755H36.03c.726 0 1.27.181 1.632.544.362.362.544.886.544 1.57 0 .706-.182 1.25-.544 1.632-.363.363-.906.544-1.632.544h-7.824v4.048h7.16c.705 0 1.238.181 1.601.544.383.362.574.896.574 1.6 0 .706-.191 1.24-.574 1.602-.363.362-.896.544-1.601.544h-7.16v4.38h7.825c.725 0 1.268.191 1.63.574.363.363.545.886.545 1.571 0 .705-.182 1.239-.544 1.601-.363.363-.906.544-1.632.544H25.79ZM41.211 43.384c-.624 0-1.148-.141-1.57-.423a1.893 1.893 0 0 1-.786-1.209c-.101-.523-.01-1.107.272-1.752l7.522-16.192c.362-.786.805-1.36 1.329-1.722a3.247 3.247 0 0 1 1.843-.544c.684 0 1.279.181 1.782.544.524.362.977.936 1.36 1.722L60.485 40c.322.645.433 1.229.332 1.752-.08.524-.332.927-.755 1.209-.403.282-.906.423-1.51.423-.806 0-1.43-.181-1.874-.544-.422-.363-.805-.947-1.148-1.752l-.976-2.296h-9.497l-.976 2.296c-.363.805-.735 1.39-1.118 1.752-.383.362-.967.544-1.752.544Zm8.55-15.77L47 34.5l-.137.032h5.88l-2.922-6.918h-.06Z" fill="#6444F4"/><path fill-rule="evenodd" clip-rule="evenodd" d="M64.022 42.659c.483.483 1.168.725 2.054.725.926 0 1.621-.242 2.084-.725.464-.504.695-1.199.695-2.085v-5.407h1.662c.483 0 .906.09 1.269.272.382.16.694.463.936.906l2.75 5.045c.382.685 14.056 24.851 14.482 25.155.028.037.059.074.092.11A2.383 2.383 0 0 0 93.992 64l-3.02-5.23a27353.42 27353.42 0 0 0-10.275-18.982l-1.51-2.72c-.443-.845-.997-1.47-1.662-1.872-.314-.2-.65-.352-1.009-.458a7.2 7.2 0 0 0 1.13-.418c1.128-.544 1.984-1.31 2.568-2.296.604-1.007.906-2.185.906-3.535 0-2.094-.664-3.725-1.994-4.894-1.309-1.188-3.172-1.782-5.588-1.782h-7.432c-.886 0-1.58.242-2.084.725-.484.483-.725 1.178-.725 2.084v15.951c0 .886.241 1.581.725 2.085Zm8.519-11.42h-3.686v-5.165h3.686c1.067 0 1.883.221 2.447.664.564.423.846 1.058.846 1.903 0 .887-.282 1.541-.846 1.964-.564.423-1.38.634-2.447.634Z" fill="#04FB9C"/></g><defs><clipPath id="a"><path fill="#fff" d="M0 0h180v68H0z"/></clipPath></defs></svg>