<svg width="342" height="229" viewBox="0 0 342 229" fill="none" xmlns="http://www.w3.org/2000/svg">
<g filter="url(#filter0_b_5561_8196)">
<rect x="0.508789" width="341.491" height="229" rx="16.0702" fill="url(#paint0_linear_5561_8196)" fill-opacity="0.25"/>
<path d="M16.5791 24.0547C16.5791 19.645 20.1538 16.0703 24.5635 16.0703H317.989C322.398 16.0703 325.973 19.645 325.973 24.0547V205.034C325.973 209.443 322.398 213.018 317.989 213.018H24.5635C20.1538 213.018 16.5791 209.443 16.5791 205.034V24.0547Z" fill="#FEFDFF"/>
<path d="M96.0477 57.5467C94.6814 57.5467 93.5077 57.2734 92.5265 56.7269C91.5578 56.168 90.8126 55.3856 90.2909 54.3795C89.7693 53.3611 89.5085 52.1625 89.5085 50.7839C89.5085 49.753 89.6575 48.8277 89.9556 48.008C90.2537 47.1759 90.6822 46.4679 91.2411 45.8842C91.8 45.288 92.4831 44.8347 93.2904 44.5242C94.1101 44.2012 95.0292 44.0398 96.0477 44.0398C96.7308 44.0398 97.4014 44.1267 98.0597 44.3006C98.718 44.4745 99.2955 44.7229 99.7923 45.0458C100.053 45.2073 100.227 45.406 100.314 45.642C100.401 45.8655 100.42 46.0891 100.37 46.3127C100.32 46.5238 100.215 46.7039 100.053 46.8529C99.9041 47.002 99.7116 47.0889 99.4756 47.1138C99.252 47.1262 99.0036 47.0454 98.7304 46.8716C98.3454 46.6232 97.9293 46.4431 97.4822 46.3313C97.035 46.2195 96.5817 46.1636 96.1222 46.1636C95.2403 46.1636 94.4951 46.3437 93.8865 46.7039C93.278 47.0641 92.8184 47.5857 92.5079 48.2688C92.1974 48.9519 92.0422 49.7903 92.0422 50.7839C92.0422 51.7651 92.1974 52.6034 92.5079 53.299C92.8184 53.9945 93.278 54.5224 93.8865 54.8825C94.4951 55.2427 95.2403 55.4228 96.1222 55.4228C96.5941 55.4228 97.0599 55.3669 97.5194 55.2551C97.979 55.1309 98.4137 54.9446 98.8235 54.6962C99.0968 54.5348 99.339 54.4665 99.5501 54.4913C99.7737 54.5037 99.96 54.5782 100.109 54.7149C100.258 54.8515 100.357 55.0254 100.407 55.2365C100.457 55.4352 100.444 55.6464 100.37 55.8699C100.295 56.0811 100.146 56.2674 99.9227 56.4288C99.4259 56.789 98.8298 57.0685 98.1342 57.2672C97.4511 57.4535 96.7556 57.5467 96.0477 57.5467ZM103.531 57.5094C103.159 57.5094 102.873 57.41 102.674 57.2113C102.475 57.0002 102.376 56.7021 102.376 56.3171V45.2507C102.376 44.8657 102.475 44.5738 102.674 44.3751C102.873 44.1764 103.159 44.077 103.531 44.077C103.904 44.077 104.189 44.1764 104.388 44.3751C104.599 44.5738 104.705 44.8657 104.705 45.2507V50.0759H104.444C104.717 49.4177 105.14 48.9209 105.711 48.5855C106.295 48.2378 106.953 48.0639 107.686 48.0639C108.418 48.0639 109.021 48.2005 109.493 48.4738C109.965 48.747 110.319 49.1631 110.555 49.722C110.791 50.2685 110.909 50.964 110.909 51.8086V56.3171C110.909 56.7021 110.809 57.0002 110.611 57.2113C110.412 57.41 110.126 57.5094 109.754 57.5094C109.381 57.5094 109.089 57.41 108.878 57.2113C108.679 57.0002 108.58 56.7021 108.58 56.3171V51.9203C108.58 51.2124 108.443 50.697 108.17 50.374C107.909 50.0511 107.499 49.8896 106.94 49.8896C106.257 49.8896 105.711 50.107 105.301 50.5417C104.904 50.964 104.705 51.5291 104.705 52.2371V56.3171C104.705 57.1119 104.314 57.5094 103.531 57.5094ZM117.429 57.5467C116.485 57.5467 115.665 57.3541 114.969 56.9691C114.274 56.5841 113.734 56.0376 113.349 55.3297C112.964 54.6093 112.771 53.7647 112.771 52.796C112.771 52.0632 112.877 51.4111 113.088 50.8398C113.311 50.256 113.628 49.7592 114.038 49.3494C114.448 48.9271 114.938 48.6104 115.51 48.3992C116.081 48.1757 116.721 48.0639 117.429 48.0639C118.372 48.0639 119.192 48.2564 119.888 48.6414C120.583 49.0264 121.124 49.5729 121.509 50.2809C121.894 50.9888 122.086 51.8272 122.086 52.796C122.086 53.5287 121.974 54.187 121.751 54.7708C121.54 55.3545 121.229 55.8575 120.819 56.2798C120.409 56.6897 119.919 57.0064 119.347 57.2299C118.776 57.4411 118.136 57.5467 117.429 57.5467ZM117.429 55.7768C117.888 55.7768 118.292 55.665 118.64 55.4414C118.987 55.2179 119.254 54.8887 119.441 54.454C119.639 54.0069 119.739 53.4542 119.739 52.796C119.739 51.8023 119.528 51.0633 119.105 50.579C118.683 50.0822 118.124 49.8338 117.429 49.8338C116.969 49.8338 116.565 49.9455 116.218 50.1691C115.87 50.3802 115.597 50.7094 115.398 51.1565C115.212 51.5912 115.118 52.1377 115.118 52.796C115.118 53.7771 115.33 54.5224 115.752 55.0316C116.174 55.5284 116.733 55.7768 117.429 55.7768ZM128.163 57.5467C127.219 57.5467 126.399 57.3541 125.704 56.9691C125.008 56.5841 124.468 56.0376 124.083 55.3297C123.698 54.6093 123.505 53.7647 123.505 52.796C123.505 52.0632 123.611 51.4111 123.822 50.8398C124.045 50.256 124.362 49.7592 124.772 49.3494C125.182 48.9271 125.673 48.6104 126.244 48.3992C126.815 48.1757 127.455 48.0639 128.163 48.0639C129.107 48.0639 129.926 48.2564 130.622 48.6414C131.317 49.0264 131.858 49.5729 132.243 50.2809C132.628 50.9888 132.82 51.8272 132.82 52.796C132.82 53.5287 132.709 54.187 132.485 54.7708C132.274 55.3545 131.963 55.8575 131.553 56.2798C131.144 56.6897 130.653 57.0064 130.082 57.2299C129.51 57.4411 128.871 57.5467 128.163 57.5467ZM128.163 55.7768C128.622 55.7768 129.026 55.665 129.374 55.4414C129.721 55.2179 129.988 54.8887 130.175 54.454C130.374 54.0069 130.473 53.4542 130.473 52.796C130.473 51.8023 130.262 51.0633 129.839 50.579C129.417 50.0822 128.858 49.8338 128.163 49.8338C127.703 49.8338 127.3 49.9455 126.952 50.1691C126.604 50.3802 126.331 50.7094 126.132 51.1565C125.946 51.5912 125.853 52.1377 125.853 52.796C125.853 53.7771 126.064 54.5224 126.486 55.0316C126.908 55.5284 127.467 55.7768 128.163 55.7768ZM138.077 57.5467C137.543 57.5467 136.978 57.4908 136.382 57.379C135.786 57.2672 135.252 57.0747 134.78 56.8014C134.581 56.6772 134.438 56.5344 134.351 56.373C134.277 56.1991 134.246 56.0314 134.258 55.8699C134.283 55.6961 134.345 55.547 134.444 55.4228C134.556 55.2986 134.693 55.2179 134.854 55.1806C135.028 55.1434 135.214 55.1744 135.413 55.2738C135.91 55.5098 136.376 55.6774 136.81 55.7768C137.245 55.8637 137.674 55.9072 138.096 55.9072C138.692 55.9072 139.133 55.8078 139.419 55.6091C139.717 55.398 139.866 55.1247 139.866 54.7894C139.866 54.5037 139.766 54.2864 139.568 54.1373C139.381 53.9759 139.096 53.8579 138.711 53.7834L136.848 53.4294C136.078 53.2803 135.488 53.0009 135.078 52.591C134.68 52.1687 134.482 51.6285 134.482 50.9702C134.482 50.374 134.643 49.8586 134.966 49.4239C135.301 48.9892 135.761 48.6538 136.345 48.4179C136.928 48.1819 137.599 48.0639 138.357 48.0639C138.903 48.0639 139.412 48.126 139.884 48.2502C140.369 48.362 140.834 48.5421 141.282 48.7905C141.468 48.8898 141.592 49.0202 141.654 49.1817C141.729 49.3432 141.747 49.5108 141.71 49.6847C141.673 49.8462 141.598 49.9952 141.487 50.1318C141.375 50.256 141.232 50.3368 141.058 50.374C140.897 50.3989 140.71 50.3616 140.499 50.2623C140.114 50.0635 139.741 49.9207 139.381 49.8338C139.034 49.7468 138.698 49.7033 138.375 49.7033C137.767 49.7033 137.313 49.8089 137.015 50.0201C136.73 50.2312 136.587 50.5107 136.587 50.8584C136.587 51.1192 136.674 51.3366 136.848 51.5105C137.021 51.6844 137.289 51.8023 137.649 51.8644L139.512 52.2184C140.319 52.3675 140.928 52.6407 141.337 53.0381C141.76 53.4356 141.971 53.9697 141.971 54.6403C141.971 55.547 141.617 56.2612 140.909 56.7828C140.201 57.292 139.257 57.5467 138.077 57.5467ZM148.329 57.5467C147.298 57.5467 146.41 57.3541 145.665 56.9691C144.92 56.5841 144.342 56.0376 143.932 55.3297C143.535 54.6217 143.336 53.7834 143.336 52.8146C143.336 51.8707 143.529 51.0447 143.914 50.3368C144.311 49.6288 144.851 49.0761 145.535 48.6787C146.23 48.2688 147.019 48.0639 147.901 48.0639C148.546 48.0639 149.124 48.1695 149.633 48.3806C150.155 48.5917 150.596 48.896 150.956 49.2935C151.328 49.6909 151.608 50.1753 151.794 50.7466C151.993 51.3055 152.092 51.939 152.092 52.6469C152.092 52.8705 152.012 53.0444 151.85 53.1686C151.701 53.2803 151.484 53.3362 151.198 53.3362H145.218V51.9949H150.453L150.155 52.2743C150.155 51.703 150.068 51.2248 149.894 50.8398C149.733 50.4548 149.49 50.1629 149.167 49.9642C148.857 49.753 148.466 49.6475 147.994 49.6475C147.472 49.6475 147.025 49.7717 146.652 50.0201C146.292 50.256 146.013 50.5976 145.814 51.0447C145.628 51.4794 145.535 52.0011 145.535 52.6097V52.7401C145.535 53.7585 145.77 54.5224 146.242 55.0316C146.727 55.5284 147.435 55.7768 148.366 55.7768C148.689 55.7768 149.049 55.7395 149.447 55.665C149.857 55.5781 150.242 55.4352 150.602 55.2365C150.863 55.0875 151.093 55.0254 151.291 55.0502C151.49 55.0626 151.645 55.1309 151.757 55.2551C151.881 55.3793 151.956 55.5346 151.981 55.7209C152.005 55.8948 151.968 56.0749 151.869 56.2612C151.782 56.4475 151.627 56.6089 151.403 56.7456C150.968 57.0188 150.465 57.2237 149.894 57.3604C149.335 57.4846 148.813 57.5467 148.329 57.5467ZM161.994 57.5467C161.336 57.5467 160.746 57.4225 160.224 57.174C159.715 56.9132 159.311 56.5655 159.013 56.1308C158.727 55.6961 158.585 55.2055 158.585 54.659C158.585 53.9883 158.758 53.4604 159.106 53.0754C159.454 52.678 160.019 52.3923 160.802 52.2184C161.584 52.0445 162.633 51.9576 163.95 51.9576H164.882V53.299H163.969C163.199 53.299 162.584 53.3362 162.124 53.4108C161.665 53.4853 161.336 53.6157 161.137 53.802C160.951 53.9759 160.857 54.2243 160.857 54.5472C160.857 54.9571 161 55.2924 161.286 55.5532C161.572 55.814 161.969 55.9445 162.478 55.9445C162.888 55.9445 163.248 55.8513 163.559 55.665C163.882 55.4663 164.136 55.1993 164.323 54.8639C164.509 54.5286 164.602 54.1435 164.602 53.7088V51.5664C164.602 50.9454 164.465 50.4982 164.192 50.225C163.919 49.9517 163.459 49.8151 162.814 49.8151C162.453 49.8151 162.062 49.8586 161.64 49.9455C161.23 50.0325 160.795 50.1815 160.336 50.3927C160.1 50.5044 159.889 50.5355 159.702 50.4858C159.528 50.4361 159.392 50.3368 159.292 50.1877C159.193 50.0263 159.143 49.8524 159.143 49.6661C159.143 49.4798 159.193 49.2997 159.292 49.1258C159.392 48.9395 159.559 48.8029 159.795 48.7159C160.367 48.48 160.913 48.3123 161.435 48.2129C161.969 48.1136 162.453 48.0639 162.888 48.0639C163.782 48.0639 164.515 48.2005 165.086 48.4738C165.67 48.747 166.105 49.1631 166.391 49.722C166.676 50.2685 166.819 50.9764 166.819 51.8458V56.3171C166.819 56.7021 166.726 57.0002 166.54 57.2113C166.353 57.41 166.086 57.5094 165.739 57.5094C165.391 57.5094 165.117 57.41 164.919 57.2113C164.732 57.0002 164.639 56.7021 164.639 56.3171V55.4228H164.788C164.701 55.8575 164.528 56.2363 164.267 56.5593C164.018 56.8698 163.702 57.1119 163.317 57.2858C162.932 57.4597 162.491 57.5467 161.994 57.5467ZM175.656 57.5094C175.271 57.5094 174.973 57.4038 174.762 57.1927C174.563 56.9691 174.464 56.6648 174.464 56.2798V45.437C174.464 45.0396 174.57 44.7415 174.781 44.5428C174.992 44.3316 175.29 44.2261 175.675 44.2261H180.165C181.606 44.2261 182.717 44.5863 183.5 45.3066C184.282 46.027 184.673 47.033 184.673 48.3247C184.673 49.6164 184.282 50.6286 183.5 51.3614C182.717 52.0818 181.606 52.442 180.165 52.442H176.849V56.2798C176.849 56.6648 176.749 56.9691 176.551 57.1927C176.352 57.4038 176.054 57.5094 175.656 57.5094ZM176.849 50.5603H179.792C180.637 50.5603 181.277 50.374 181.711 50.0014C182.146 49.6164 182.363 49.0575 182.363 48.3247C182.363 47.5919 182.146 47.0392 181.711 46.6666C181.277 46.294 180.637 46.1077 179.792 46.1077H176.849V50.5603ZM187.884 57.3604C187.474 57.3604 187.158 57.2548 186.934 57.0436C186.723 56.8201 186.617 56.5034 186.617 56.0935V45.4929C186.617 45.0831 186.723 44.7726 186.934 44.5614C187.158 44.3379 187.474 44.2261 187.884 44.2261H191.499C193.697 44.2261 195.392 44.7912 196.585 45.9214C197.789 47.0517 198.392 48.6725 198.392 50.7839C198.392 51.8396 198.236 52.7773 197.926 53.5971C197.628 54.4044 197.181 55.0875 196.585 55.6464C196.001 56.2053 195.28 56.6338 194.423 56.9319C193.579 57.2175 192.604 57.3604 191.499 57.3604H187.884ZM189.002 55.3856H191.349C192.12 55.3856 192.784 55.2924 193.343 55.1061C193.914 54.9074 194.386 54.6217 194.759 54.2491C195.144 53.8641 195.429 53.3859 195.616 52.8146C195.802 52.2308 195.895 51.5539 195.895 50.7839C195.895 49.2438 195.516 48.0949 194.759 47.3373C194.001 46.5797 192.865 46.2009 191.349 46.2009H189.002V55.3856ZM202.038 57.5094C201.653 57.5094 201.349 57.4038 201.125 57.1927C200.914 56.9691 200.808 56.6524 200.808 56.2425V45.4929C200.808 45.0831 200.914 44.7726 201.125 44.5614C201.349 44.3379 201.665 44.2261 202.075 44.2261H208.577C208.9 44.2261 209.142 44.3068 209.304 44.4683C209.465 44.6297 209.546 44.8595 209.546 45.1576C209.546 45.4681 209.465 45.7103 209.304 45.8842C209.142 46.0456 208.9 46.1264 208.577 46.1264H203.193V49.8338H208.186C208.496 49.8338 208.732 49.9145 208.894 50.0759C209.068 50.2374 209.155 50.4672 209.155 50.7653C209.155 51.0758 209.068 51.318 208.894 51.4918C208.732 51.6533 208.496 51.734 208.186 51.734H203.193V56.2425C203.193 57.0871 202.808 57.5094 202.038 57.5094ZM216.961 53.299C216.688 53.299 216.458 53.212 216.272 53.0381C216.098 52.8518 216.011 52.6283 216.011 52.3675C216.011 52.0942 216.098 51.8707 216.272 51.6968C216.458 51.5229 216.688 51.436 216.961 51.436H220.929C221.19 51.436 221.407 51.5229 221.581 51.6968C221.767 51.8707 221.861 52.0942 221.861 52.3675C221.861 52.6283 221.767 52.8518 221.581 53.0381C221.407 53.212 221.19 53.299 220.929 53.299H216.961ZM231.028 57.5094C230.656 57.5094 230.364 57.41 230.152 57.2113C229.954 57.0002 229.854 56.7021 229.854 56.3171V50.0014H228.997C228.699 50.0014 228.47 49.9269 228.308 49.7779C228.147 49.6164 228.066 49.3991 228.066 49.1258C228.066 48.8401 228.147 48.6228 228.308 48.4738C228.47 48.3247 228.699 48.2502 228.997 48.2502H230.525L229.854 48.865V48.2316C229.854 46.9771 230.171 46.027 230.805 45.3811C231.438 44.7353 232.357 44.3503 233.562 44.2261L234.121 44.1702C234.406 44.1453 234.63 44.1826 234.791 44.282C234.965 44.3813 235.077 44.5179 235.127 44.6918C235.189 44.8533 235.201 45.0272 235.164 45.2135C235.127 45.3874 235.052 45.5426 234.94 45.6792C234.829 45.8034 234.686 45.8717 234.512 45.8842L234.065 45.9214C233.407 45.9711 232.928 46.1512 232.63 46.4617C232.332 46.7722 232.183 47.238 232.183 47.859V48.5483L231.885 48.2502H237.046C237.418 48.2502 237.704 48.362 237.903 48.5855C238.101 48.7967 238.201 49.101 238.201 49.4984V56.2239C238.201 56.6214 238.101 56.9319 237.903 57.1554C237.716 57.379 237.431 57.4908 237.046 57.4908C236.673 57.4908 236.381 57.379 236.17 57.1554C235.971 56.9319 235.872 56.6214 235.872 56.2239V50.0014H232.183V56.3171C232.183 57.1119 231.798 57.5094 231.028 57.5094ZM237.083 46.3872C236.661 46.3872 236.332 46.2816 236.096 46.0705C235.872 45.8469 235.76 45.5426 235.76 45.1576C235.76 44.7601 235.872 44.4558 236.096 44.2447C236.332 44.0336 236.661 43.928 237.083 43.928C237.518 43.928 237.847 44.0336 238.07 44.2447C238.306 44.4558 238.424 44.7601 238.424 45.1576C238.424 45.5426 238.306 45.8469 238.07 46.0705C237.847 46.2816 237.518 46.3872 237.083 46.3872ZM243.74 57.5467C242.709 57.5467 241.933 57.2548 241.411 56.671C240.89 56.0749 240.629 55.2055 240.629 54.0628V45.2507C240.629 44.8657 240.728 44.5738 240.927 44.3751C241.126 44.1764 241.411 44.077 241.784 44.077C242.156 44.077 242.442 44.1764 242.641 44.3751C242.852 44.5738 242.958 44.8657 242.958 45.2507V53.951C242.958 54.5224 243.076 54.9446 243.312 55.2179C243.56 55.4911 243.908 55.6277 244.355 55.6277C244.454 55.6277 244.547 55.6277 244.634 55.6277C244.721 55.6153 244.808 55.6029 244.895 55.5905C245.069 55.5656 245.187 55.6153 245.249 55.7395C245.311 55.8513 245.342 56.0873 245.342 56.4475C245.342 56.758 245.28 57.0002 245.156 57.174C245.032 57.3479 244.827 57.4535 244.541 57.4908C244.417 57.5032 244.287 57.5156 244.15 57.528C244.013 57.5404 243.877 57.5467 243.74 57.5467ZM250.977 57.5467C249.946 57.5467 249.058 57.3541 248.313 56.9691C247.568 56.5841 246.99 56.0376 246.58 55.3297C246.183 54.6217 245.984 53.7834 245.984 52.8146C245.984 51.8707 246.177 51.0447 246.562 50.3368C246.959 49.6288 247.499 49.0761 248.182 48.6787C248.878 48.2688 249.667 48.0639 250.548 48.0639C251.194 48.0639 251.772 48.1695 252.281 48.3806C252.803 48.5917 253.244 48.896 253.604 49.2935C253.976 49.6909 254.256 50.1753 254.442 50.7466C254.641 51.3055 254.74 51.939 254.74 52.6469C254.74 52.8705 254.66 53.0444 254.498 53.1686C254.349 53.2803 254.132 53.3362 253.846 53.3362H247.866V51.9949H253.101L252.803 52.2743C252.803 51.703 252.716 51.2248 252.542 50.8398C252.38 50.4548 252.138 50.1629 251.815 49.9642C251.505 49.753 251.114 49.6475 250.642 49.6475C250.12 49.6475 249.673 49.7717 249.3 50.0201C248.94 50.256 248.661 50.5976 248.462 51.0447C248.276 51.4794 248.182 52.0011 248.182 52.6097V52.7401C248.182 53.7585 248.418 54.5224 248.89 55.0316C249.375 55.5284 250.083 55.7768 251.014 55.7768C251.337 55.7768 251.697 55.7395 252.095 55.665C252.505 55.5781 252.89 55.4352 253.25 55.2365C253.511 55.0875 253.74 55.0254 253.939 55.0502C254.138 55.0626 254.293 55.1309 254.405 55.2551C254.529 55.3793 254.604 55.5346 254.628 55.7209C254.653 55.8948 254.616 56.0749 254.517 56.2612C254.43 56.4475 254.275 56.6089 254.051 56.7456C253.616 57.0188 253.113 57.2237 252.542 57.3604C251.983 57.4846 251.461 57.5467 250.977 57.5467Z" fill="#6444F4"/>
<path d="M96.0477 57.5467C94.6814 57.5467 93.5077 57.2734 92.5265 56.7269C91.5578 56.168 90.8126 55.3856 90.2909 54.3795C89.7693 53.3611 89.5085 52.1625 89.5085 50.7839C89.5085 49.753 89.6575 48.8277 89.9556 48.008C90.2537 47.1759 90.6822 46.4679 91.2411 45.8842C91.8 45.288 92.4831 44.8347 93.2904 44.5242C94.1101 44.2012 95.0292 44.0398 96.0477 44.0398C96.7308 44.0398 97.4014 44.1267 98.0597 44.3006C98.718 44.4745 99.2955 44.7229 99.7923 45.0458C100.053 45.2073 100.227 45.406 100.314 45.642C100.401 45.8655 100.42 46.0891 100.37 46.3127C100.32 46.5238 100.215 46.7039 100.053 46.8529C99.9041 47.002 99.7116 47.0889 99.4756 47.1138C99.252 47.1262 99.0036 47.0454 98.7304 46.8716C98.3454 46.6232 97.9293 46.4431 97.4822 46.3313C97.035 46.2195 96.5817 46.1636 96.1222 46.1636C95.2403 46.1636 94.4951 46.3437 93.8865 46.7039C93.278 47.0641 92.8184 47.5857 92.5079 48.2688C92.1974 48.9519 92.0422 49.7903 92.0422 50.7839C92.0422 51.7651 92.1974 52.6034 92.5079 53.299C92.8184 53.9945 93.278 54.5224 93.8865 54.8825C94.4951 55.2427 95.2403 55.4228 96.1222 55.4228C96.5941 55.4228 97.0599 55.3669 97.5194 55.2551C97.979 55.1309 98.4137 54.9446 98.8235 54.6962C99.0968 54.5348 99.339 54.4665 99.5501 54.4913C99.7737 54.5037 99.96 54.5782 100.109 54.7149C100.258 54.8515 100.357 55.0254 100.407 55.2365C100.457 55.4352 100.444 55.6464 100.37 55.8699C100.295 56.0811 100.146 56.2674 99.9227 56.4288C99.4259 56.789 98.8298 57.0685 98.1342 57.2672C97.4511 57.4535 96.7556 57.5467 96.0477 57.5467ZM103.531 57.5094C103.159 57.5094 102.873 57.41 102.674 57.2113C102.475 57.0002 102.376 56.7021 102.376 56.3171V45.2507C102.376 44.8657 102.475 44.5738 102.674 44.3751C102.873 44.1764 103.159 44.077 103.531 44.077C103.904 44.077 104.189 44.1764 104.388 44.3751C104.599 44.5738 104.705 44.8657 104.705 45.2507V50.0759H104.444C104.717 49.4177 105.14 48.9209 105.711 48.5855C106.295 48.2378 106.953 48.0639 107.686 48.0639C108.418 48.0639 109.021 48.2005 109.493 48.4738C109.965 48.747 110.319 49.1631 110.555 49.722C110.791 50.2685 110.909 50.964 110.909 51.8086V56.3171C110.909 56.7021 110.809 57.0002 110.611 57.2113C110.412 57.41 110.126 57.5094 109.754 57.5094C109.381 57.5094 109.089 57.41 108.878 57.2113C108.679 57.0002 108.58 56.7021 108.58 56.3171V51.9203C108.58 51.2124 108.443 50.697 108.17 50.374C107.909 50.0511 107.499 49.8896 106.94 49.8896C106.257 49.8896 105.711 50.107 105.301 50.5417C104.904 50.964 104.705 51.5291 104.705 52.2371V56.3171C104.705 57.1119 104.314 57.5094 103.531 57.5094ZM117.429 57.5467C116.485 57.5467 115.665 57.3541 114.969 56.9691C114.274 56.5841 113.734 56.0376 113.349 55.3297C112.964 54.6093 112.771 53.7647 112.771 52.796C112.771 52.0632 112.877 51.4111 113.088 50.8398C113.311 50.256 113.628 49.7592 114.038 49.3494C114.448 48.9271 114.938 48.6104 115.51 48.3992C116.081 48.1757 116.721 48.0639 117.429 48.0639C118.372 48.0639 119.192 48.2564 119.888 48.6414C120.583 49.0264 121.124 49.5729 121.509 50.2809C121.894 50.9888 122.086 51.8272 122.086 52.796C122.086 53.5287 121.974 54.187 121.751 54.7708C121.54 55.3545 121.229 55.8575 120.819 56.2798C120.409 56.6897 119.919 57.0064 119.347 57.2299C118.776 57.4411 118.136 57.5467 117.429 57.5467ZM117.429 55.7768C117.888 55.7768 118.292 55.665 118.64 55.4414C118.987 55.2179 119.254 54.8887 119.441 54.454C119.639 54.0069 119.739 53.4542 119.739 52.796C119.739 51.8023 119.528 51.0633 119.105 50.579C118.683 50.0822 118.124 49.8338 117.429 49.8338C116.969 49.8338 116.565 49.9455 116.218 50.1691C115.87 50.3802 115.597 50.7094 115.398 51.1565C115.212 51.5912 115.118 52.1377 115.118 52.796C115.118 53.7771 115.33 54.5224 115.752 55.0316C116.174 55.5284 116.733 55.7768 117.429 55.7768ZM128.163 57.5467C127.219 57.5467 126.399 57.3541 125.704 56.9691C125.008 56.5841 124.468 56.0376 124.083 55.3297C123.698 54.6093 123.505 53.7647 123.505 52.796C123.505 52.0632 123.611 51.4111 123.822 50.8398C124.045 50.256 124.362 49.7592 124.772 49.3494C125.182 48.9271 125.673 48.6104 126.244 48.3992C126.815 48.1757 127.455 48.0639 128.163 48.0639C129.107 48.0639 129.926 48.2564 130.622 48.6414C131.317 49.0264 131.858 49.5729 132.243 50.2809C132.628 50.9888 132.82 51.8272 132.82 52.796C132.82 53.5287 132.709 54.187 132.485 54.7708C132.274 55.3545 131.963 55.8575 131.553 56.2798C131.144 56.6897 130.653 57.0064 130.082 57.2299C129.51 57.4411 128.871 57.5467 128.163 57.5467ZM128.163 55.7768C128.622 55.7768 129.026 55.665 129.374 55.4414C129.721 55.2179 129.988 54.8887 130.175 54.454C130.374 54.0069 130.473 53.4542 130.473 52.796C130.473 51.8023 130.262 51.0633 129.839 50.579C129.417 50.0822 128.858 49.8338 128.163 49.8338C127.703 49.8338 127.3 49.9455 126.952 50.1691C126.604 50.3802 126.331 50.7094 126.132 51.1565C125.946 51.5912 125.853 52.1377 125.853 52.796C125.853 53.7771 126.064 54.5224 126.486 55.0316C126.908 55.5284 127.467 55.7768 128.163 55.7768ZM138.077 57.5467C137.543 57.5467 136.978 57.4908 136.382 57.379C135.786 57.2672 135.252 57.0747 134.78 56.8014C134.581 56.6772 134.438 56.5344 134.351 56.373C134.277 56.1991 134.246 56.0314 134.258 55.8699C134.283 55.6961 134.345 55.547 134.444 55.4228C134.556 55.2986 134.693 55.2179 134.854 55.1806C135.028 55.1434 135.214 55.1744 135.413 55.2738C135.91 55.5098 136.376 55.6774 136.81 55.7768C137.245 55.8637 137.674 55.9072 138.096 55.9072C138.692 55.9072 139.133 55.8078 139.419 55.6091C139.717 55.398 139.866 55.1247 139.866 54.7894C139.866 54.5037 139.766 54.2864 139.568 54.1373C139.381 53.9759 139.096 53.8579 138.711 53.7834L136.848 53.4294C136.078 53.2803 135.488 53.0009 135.078 52.591C134.68 52.1687 134.482 51.6285 134.482 50.9702C134.482 50.374 134.643 49.8586 134.966 49.4239C135.301 48.9892 135.761 48.6538 136.345 48.4179C136.928 48.1819 137.599 48.0639 138.357 48.0639C138.903 48.0639 139.412 48.126 139.884 48.2502C140.369 48.362 140.834 48.5421 141.282 48.7905C141.468 48.8898 141.592 49.0202 141.654 49.1817C141.729 49.3432 141.747 49.5108 141.71 49.6847C141.673 49.8462 141.598 49.9952 141.487 50.1318C141.375 50.256 141.232 50.3368 141.058 50.374C140.897 50.3989 140.71 50.3616 140.499 50.2623C140.114 50.0635 139.741 49.9207 139.381 49.8338C139.034 49.7468 138.698 49.7033 138.375 49.7033C137.767 49.7033 137.313 49.8089 137.015 50.0201C136.73 50.2312 136.587 50.5107 136.587 50.8584C136.587 51.1192 136.674 51.3366 136.848 51.5105C137.021 51.6844 137.289 51.8023 137.649 51.8644L139.512 52.2184C140.319 52.3675 140.928 52.6407 141.337 53.0381C141.76 53.4356 141.971 53.9697 141.971 54.6403C141.971 55.547 141.617 56.2612 140.909 56.7828C140.201 57.292 139.257 57.5467 138.077 57.5467ZM148.329 57.5467C147.298 57.5467 146.41 57.3541 145.665 56.9691C144.92 56.5841 144.342 56.0376 143.932 55.3297C143.535 54.6217 143.336 53.7834 143.336 52.8146C143.336 51.8707 143.529 51.0447 143.914 50.3368C144.311 49.6288 144.851 49.0761 145.535 48.6787C146.23 48.2688 147.019 48.0639 147.901 48.0639C148.546 48.0639 149.124 48.1695 149.633 48.3806C150.155 48.5917 150.596 48.896 150.956 49.2935C151.328 49.6909 151.608 50.1753 151.794 50.7466C151.993 51.3055 152.092 51.939 152.092 52.6469C152.092 52.8705 152.012 53.0444 151.85 53.1686C151.701 53.2803 151.484 53.3362 151.198 53.3362H145.218V51.9949H150.453L150.155 52.2743C150.155 51.703 150.068 51.2248 149.894 50.8398C149.733 50.4548 149.49 50.1629 149.167 49.9642C148.857 49.753 148.466 49.6475 147.994 49.6475C147.472 49.6475 147.025 49.7717 146.652 50.0201C146.292 50.256 146.013 50.5976 145.814 51.0447C145.628 51.4794 145.535 52.0011 145.535 52.6097V52.7401C145.535 53.7585 145.77 54.5224 146.242 55.0316C146.727 55.5284 147.435 55.7768 148.366 55.7768C148.689 55.7768 149.049 55.7395 149.447 55.665C149.857 55.5781 150.242 55.4352 150.602 55.2365C150.863 55.0875 151.093 55.0254 151.291 55.0502C151.49 55.0626 151.645 55.1309 151.757 55.2551C151.881 55.3793 151.956 55.5346 151.981 55.7209C152.005 55.8948 151.968 56.0749 151.869 56.2612C151.782 56.4475 151.627 56.6089 151.403 56.7456C150.968 57.0188 150.465 57.2237 149.894 57.3604C149.335 57.4846 148.813 57.5467 148.329 57.5467ZM161.994 57.5467C161.336 57.5467 160.746 57.4225 160.224 57.174C159.715 56.9132 159.311 56.5655 159.013 56.1308C158.727 55.6961 158.585 55.2055 158.585 54.659C158.585 53.9883 158.758 53.4604 159.106 53.0754C159.454 52.678 160.019 52.3923 160.802 52.2184C161.584 52.0445 162.633 51.9576 163.95 51.9576H164.882V53.299H163.969C163.199 53.299 162.584 53.3362 162.124 53.4108C161.665 53.4853 161.336 53.6157 161.137 53.802C160.951 53.9759 160.857 54.2243 160.857 54.5472C160.857 54.9571 161 55.2924 161.286 55.5532C161.572 55.814 161.969 55.9445 162.478 55.9445C162.888 55.9445 163.248 55.8513 163.559 55.665C163.882 55.4663 164.136 55.1993 164.323 54.8639C164.509 54.5286 164.602 54.1435 164.602 53.7088V51.5664C164.602 50.9454 164.465 50.4982 164.192 50.225C163.919 49.9517 163.459 49.8151 162.814 49.8151C162.453 49.8151 162.062 49.8586 161.64 49.9455C161.23 50.0325 160.795 50.1815 160.336 50.3927C160.1 50.5044 159.889 50.5355 159.702 50.4858C159.528 50.4361 159.392 50.3368 159.292 50.1877C159.193 50.0263 159.143 49.8524 159.143 49.6661C159.143 49.4798 159.193 49.2997 159.292 49.1258C159.392 48.9395 159.559 48.8029 159.795 48.7159C160.367 48.48 160.913 48.3123 161.435 48.2129C161.969 48.1136 162.453 48.0639 162.888 48.0639C163.782 48.0639 164.515 48.2005 165.086 48.4738C165.67 48.747 166.105 49.1631 166.391 49.722C166.676 50.2685 166.819 50.9764 166.819 51.8458V56.3171C166.819 56.7021 166.726 57.0002 166.54 57.2113C166.353 57.41 166.086 57.5094 165.739 57.5094C165.391 57.5094 165.117 57.41 164.919 57.2113C164.732 57.0002 164.639 56.7021 164.639 56.3171V55.4228H164.788C164.701 55.8575 164.528 56.2363 164.267 56.5593C164.018 56.8698 163.702 57.1119 163.317 57.2858C162.932 57.4597 162.491 57.5467 161.994 57.5467ZM175.656 57.5094C175.271 57.5094 174.973 57.4038 174.762 57.1927C174.563 56.9691 174.464 56.6648 174.464 56.2798V45.437C174.464 45.0396 174.57 44.7415 174.781 44.5428C174.992 44.3316 175.29 44.2261 175.675 44.2261H180.165C181.606 44.2261 182.717 44.5863 183.5 45.3066C184.282 46.027 184.673 47.033 184.673 48.3247C184.673 49.6164 184.282 50.6286 183.5 51.3614C182.717 52.0818 181.606 52.442 180.165 52.442H176.849V56.2798C176.849 56.6648 176.749 56.9691 176.551 57.1927C176.352 57.4038 176.054 57.5094 175.656 57.5094ZM176.849 50.5603H179.792C180.637 50.5603 181.277 50.374 181.711 50.0014C182.146 49.6164 182.363 49.0575 182.363 48.3247C182.363 47.5919 182.146 47.0392 181.711 46.6666C181.277 46.294 180.637 46.1077 179.792 46.1077H176.849V50.5603ZM187.884 57.3604C187.474 57.3604 187.158 57.2548 186.934 57.0436C186.723 56.8201 186.617 56.5034 186.617 56.0935V45.4929C186.617 45.0831 186.723 44.7726 186.934 44.5614C187.158 44.3379 187.474 44.2261 187.884 44.2261H191.499C193.697 44.2261 195.392 44.7912 196.585 45.9214C197.789 47.0517 198.392 48.6725 198.392 50.7839C198.392 51.8396 198.236 52.7773 197.926 53.5971C197.628 54.4044 197.181 55.0875 196.585 55.6464C196.001 56.2053 195.28 56.6338 194.423 56.9319C193.579 57.2175 192.604 57.3604 191.499 57.3604H187.884ZM189.002 55.3856H191.349C192.12 55.3856 192.784 55.2924 193.343 55.1061C193.914 54.9074 194.386 54.6217 194.759 54.2491C195.144 53.8641 195.429 53.3859 195.616 52.8146C195.802 52.2308 195.895 51.5539 195.895 50.7839C195.895 49.2438 195.516 48.0949 194.759 47.3373C194.001 46.5797 192.865 46.2009 191.349 46.2009H189.002V55.3856ZM202.038 57.5094C201.653 57.5094 201.349 57.4038 201.125 57.1927C200.914 56.9691 200.808 56.6524 200.808 56.2425V45.4929C200.808 45.0831 200.914 44.7726 201.125 44.5614C201.349 44.3379 201.665 44.2261 202.075 44.2261H208.577C208.9 44.2261 209.142 44.3068 209.304 44.4683C209.465 44.6297 209.546 44.8595 209.546 45.1576C209.546 45.4681 209.465 45.7103 209.304 45.8842C209.142 46.0456 208.9 46.1264 208.577 46.1264H203.193V49.8338H208.186C208.496 49.8338 208.732 49.9145 208.894 50.0759C209.068 50.2374 209.155 50.4672 209.155 50.7653C209.155 51.0758 209.068 51.318 208.894 51.4918C208.732 51.6533 208.496 51.734 208.186 51.734H203.193V56.2425C203.193 57.0871 202.808 57.5094 202.038 57.5094ZM216.961 53.299C216.688 53.299 216.458 53.212 216.272 53.0381C216.098 52.8518 216.011 52.6283 216.011 52.3675C216.011 52.0942 216.098 51.8707 216.272 51.6968C216.458 51.5229 216.688 51.436 216.961 51.436H220.929C221.19 51.436 221.407 51.5229 221.581 51.6968C221.767 51.8707 221.861 52.0942 221.861 52.3675C221.861 52.6283 221.767 52.8518 221.581 53.0381C221.407 53.212 221.19 53.299 220.929 53.299H216.961ZM231.028 57.5094C230.656 57.5094 230.364 57.41 230.152 57.2113C229.954 57.0002 229.854 56.7021 229.854 56.3171V50.0014H228.997C228.699 50.0014 228.47 49.9269 228.308 49.7779C228.147 49.6164 228.066 49.3991 228.066 49.1258C228.066 48.8401 228.147 48.6228 228.308 48.4738C228.47 48.3247 228.699 48.2502 228.997 48.2502H230.525L229.854 48.865V48.2316C229.854 46.9771 230.171 46.027 230.805 45.3811C231.438 44.7353 232.357 44.3503 233.562 44.2261L234.121 44.1702C234.406 44.1453 234.63 44.1826 234.791 44.282C234.965 44.3813 235.077 44.5179 235.127 44.6918C235.189 44.8533 235.201 45.0272 235.164 45.2135C235.127 45.3874 235.052 45.5426 234.94 45.6792C234.829 45.8034 234.686 45.8717 234.512 45.8842L234.065 45.9214C233.407 45.9711 232.928 46.1512 232.63 46.4617C232.332 46.7722 232.183 47.238 232.183 47.859V48.5483L231.885 48.2502H237.046C237.418 48.2502 237.704 48.362 237.903 48.5855C238.101 48.7967 238.201 49.101 238.201 49.4984V56.2239C238.201 56.6214 238.101 56.9319 237.903 57.1554C237.716 57.379 237.431 57.4908 237.046 57.4908C236.673 57.4908 236.381 57.379 236.17 57.1554C235.971 56.9319 235.872 56.6214 235.872 56.2239V50.0014H232.183V56.3171C232.183 57.1119 231.798 57.5094 231.028 57.5094ZM237.083 46.3872C236.661 46.3872 236.332 46.2816 236.096 46.0705C235.872 45.8469 235.76 45.5426 235.76 45.1576C235.76 44.7601 235.872 44.4558 236.096 44.2447C236.332 44.0336 236.661 43.928 237.083 43.928C237.518 43.928 237.847 44.0336 238.07 44.2447C238.306 44.4558 238.424 44.7601 238.424 45.1576C238.424 45.5426 238.306 45.8469 238.07 46.0705C237.847 46.2816 237.518 46.3872 237.083 46.3872ZM243.74 57.5467C242.709 57.5467 241.933 57.2548 241.411 56.671C240.89 56.0749 240.629 55.2055 240.629 54.0628V45.2507C240.629 44.8657 240.728 44.5738 240.927 44.3751C241.126 44.1764 241.411 44.077 241.784 44.077C242.156 44.077 242.442 44.1764 242.641 44.3751C242.852 44.5738 242.958 44.8657 242.958 45.2507V53.951C242.958 54.5224 243.076 54.9446 243.312 55.2179C243.56 55.4911 243.908 55.6277 244.355 55.6277C244.454 55.6277 244.547 55.6277 244.634 55.6277C244.721 55.6153 244.808 55.6029 244.895 55.5905C245.069 55.5656 245.187 55.6153 245.249 55.7395C245.311 55.8513 245.342 56.0873 245.342 56.4475C245.342 56.758 245.28 57.0002 245.156 57.174C245.032 57.3479 244.827 57.4535 244.541 57.4908C244.417 57.5032 244.287 57.5156 244.15 57.528C244.013 57.5404 243.877 57.5467 243.74 57.5467ZM250.977 57.5467C249.946 57.5467 249.058 57.3541 248.313 56.9691C247.568 56.5841 246.99 56.0376 246.58 55.3297C246.183 54.6217 245.984 53.7834 245.984 52.8146C245.984 51.8707 246.177 51.0447 246.562 50.3368C246.959 49.6288 247.499 49.0761 248.182 48.6787C248.878 48.2688 249.667 48.0639 250.548 48.0639C251.194 48.0639 251.772 48.1695 252.281 48.3806C252.803 48.5917 253.244 48.896 253.604 49.2935C253.976 49.6909 254.256 50.1753 254.442 50.7466C254.641 51.3055 254.74 51.939 254.74 52.6469C254.74 52.8705 254.66 53.0444 254.498 53.1686C254.349 53.2803 254.132 53.3362 253.846 53.3362H247.866V51.9949H253.101L252.803 52.2743C252.803 51.703 252.716 51.2248 252.542 50.8398C252.38 50.4548 252.138 50.1629 251.815 49.9642C251.505 49.753 251.114 49.6475 250.642 49.6475C250.12 49.6475 249.673 49.7717 249.3 50.0201C248.94 50.256 248.661 50.5976 248.462 51.0447C248.276 51.4794 248.182 52.0011 248.182 52.6097V52.7401C248.182 53.7585 248.418 54.5224 248.89 55.0316C249.375 55.5284 250.083 55.7768 251.014 55.7768C251.337 55.7768 251.697 55.7395 252.095 55.665C252.505 55.5781 252.89 55.4352 253.25 55.2365C253.511 55.0875 253.74 55.0254 253.939 55.0502C254.138 55.0626 254.293 55.1309 254.405 55.2551C254.529 55.3793 254.604 55.5346 254.628 55.7209C254.653 55.8948 254.616 56.0749 254.517 56.2612C254.43 56.4475 254.275 56.6089 254.051 56.7456C253.616 57.0188 253.113 57.2237 252.542 57.3604C251.983 57.4846 251.461 57.5467 250.977 57.5467Z" fill="#6444F4"/>
<path fill-rule="evenodd" clip-rule="evenodd" d="M170.55 80.8818C171.135 80.2972 172.083 80.2972 172.667 80.8818L181.65 89.8642C182.234 90.4489 182.234 91.3968 181.65 91.9814C181.065 92.5661 180.117 92.5661 179.533 91.9814L173.106 85.5547L173.106 108.888C173.106 109.714 172.436 110.385 171.609 110.385C170.782 110.385 170.112 109.714 170.112 108.888L170.112 85.5547L163.685 91.9814C163.1 92.5661 162.153 92.5661 161.568 91.9814C160.983 91.3968 160.983 90.4489 161.568 89.8642L170.55 80.8818ZM153.644 107.391C154.471 107.391 155.141 108.061 155.141 108.888V113.379C155.141 115.032 156.482 116.373 158.135 116.373H185.082C186.736 116.373 188.077 115.032 188.077 113.379V108.888C188.077 108.061 188.747 107.391 189.574 107.391C190.4 107.391 191.071 108.061 191.071 108.888V113.379C191.071 116.686 188.39 119.367 185.082 119.367H158.135C154.828 119.367 152.147 116.686 152.147 113.379V108.888C152.147 108.061 152.817 107.391 153.644 107.391Z" fill="#15343A"/>
<path d="M104.476 141.181C104.284 141.181 104.135 141.131 104.029 141.032C103.929 140.926 103.88 140.777 103.88 140.585V134.272C103.88 134.08 103.929 133.935 104.029 133.836C104.135 133.729 104.284 133.676 104.476 133.676H106.53C107.765 133.676 108.716 133.999 109.383 134.645C110.058 135.283 110.395 136.21 110.395 137.423C110.395 138.026 110.31 138.562 110.139 139.031C109.969 139.499 109.717 139.893 109.383 140.212C109.057 140.525 108.656 140.766 108.18 140.936C107.705 141.1 107.155 141.181 106.53 141.181H104.476ZM104.987 140.255H106.466C106.935 140.255 107.339 140.198 107.68 140.085C108.028 139.964 108.319 139.787 108.553 139.552C108.787 139.318 108.961 139.024 109.075 138.669C109.188 138.314 109.245 137.899 109.245 137.423C109.245 136.479 109.011 135.773 108.542 135.305C108.081 134.836 107.389 134.602 106.466 134.602H104.987V140.255ZM112.289 141.245C112.119 141.245 111.988 141.195 111.896 141.096C111.803 140.99 111.757 140.844 111.757 140.66V136.508C111.757 136.323 111.803 136.181 111.896 136.082C111.988 135.982 112.119 135.933 112.289 135.933C112.46 135.933 112.591 135.982 112.683 136.082C112.783 136.181 112.832 136.323 112.832 136.508V140.66C112.832 140.844 112.786 140.99 112.694 141.096C112.602 141.195 112.467 141.245 112.289 141.245ZM112.289 134.826C112.077 134.826 111.91 134.772 111.789 134.666C111.676 134.559 111.619 134.41 111.619 134.219C111.619 134.02 111.676 133.871 111.789 133.772C111.91 133.665 112.077 133.612 112.289 133.612C112.502 133.612 112.666 133.665 112.779 133.772C112.9 133.871 112.96 134.02 112.96 134.219C112.96 134.41 112.9 134.559 112.779 134.666C112.666 134.772 112.502 134.826 112.289 134.826ZM116.166 141.277C115.854 141.277 115.531 141.241 115.198 141.171C114.871 141.1 114.569 140.979 114.293 140.809C114.2 140.745 114.136 140.674 114.101 140.596C114.066 140.518 114.051 140.439 114.058 140.361C114.073 140.276 114.105 140.205 114.154 140.149C114.211 140.085 114.278 140.046 114.357 140.031C114.442 140.017 114.53 140.035 114.623 140.085C114.899 140.241 115.166 140.351 115.421 140.415C115.677 140.471 115.929 140.5 116.177 140.5C116.553 140.5 116.837 140.432 117.029 140.298C117.22 140.163 117.316 139.982 117.316 139.755C117.316 139.57 117.252 139.428 117.124 139.329C116.997 139.222 116.805 139.141 116.55 139.084L115.538 138.882C115.098 138.789 114.765 138.626 114.537 138.392C114.31 138.158 114.197 137.86 114.197 137.498C114.197 137.171 114.286 136.887 114.463 136.646C114.64 136.405 114.889 136.22 115.208 136.092C115.528 135.958 115.897 135.89 116.315 135.89C116.628 135.89 116.922 135.929 117.199 136.007C117.476 136.085 117.731 136.202 117.965 136.359C118.058 136.408 118.118 136.476 118.146 136.561C118.175 136.639 118.178 136.717 118.157 136.795C118.143 136.873 118.107 136.944 118.051 137.008C117.994 137.065 117.923 137.1 117.838 137.114C117.76 137.122 117.671 137.1 117.572 137.051C117.359 136.916 117.146 136.82 116.933 136.763C116.727 136.706 116.521 136.678 116.315 136.678C115.939 136.678 115.655 136.749 115.464 136.891C115.279 137.026 115.187 137.21 115.187 137.444C115.187 137.622 115.244 137.767 115.357 137.881C115.471 137.995 115.648 138.076 115.89 138.126L116.901 138.328C117.362 138.42 117.71 138.576 117.944 138.796C118.185 139.017 118.306 139.315 118.306 139.691C118.306 140.18 118.111 140.567 117.721 140.851C117.33 141.135 116.812 141.277 116.166 141.277ZM121.791 141.277C121.259 141.277 120.798 141.167 120.407 140.947C120.024 140.72 119.726 140.404 119.513 139.999C119.3 139.588 119.194 139.105 119.194 138.552C119.194 138.14 119.254 137.771 119.375 137.444C119.495 137.111 119.666 136.831 119.886 136.603C120.113 136.376 120.386 136.202 120.705 136.082C121.032 135.954 121.394 135.89 121.791 135.89C122.04 135.89 122.299 135.929 122.568 136.007C122.845 136.078 123.101 136.199 123.335 136.369C123.427 136.426 123.484 136.497 123.505 136.582C123.534 136.66 123.537 136.742 123.516 136.827C123.502 136.912 123.463 136.987 123.399 137.051C123.342 137.107 123.271 137.143 123.186 137.157C123.101 137.164 123.008 137.139 122.909 137.083C122.739 136.962 122.565 136.877 122.387 136.827C122.21 136.77 122.04 136.742 121.876 136.742C121.621 136.742 121.394 136.784 121.195 136.87C121.003 136.948 120.84 137.065 120.705 137.221C120.571 137.37 120.468 137.558 120.397 137.785C120.333 138.012 120.301 138.271 120.301 138.562C120.301 139.144 120.436 139.602 120.705 139.936C120.982 140.262 121.373 140.425 121.876 140.425C122.04 140.425 122.21 140.4 122.387 140.351C122.565 140.301 122.739 140.216 122.909 140.095C123.008 140.039 123.101 140.017 123.186 140.031C123.271 140.046 123.338 140.085 123.388 140.149C123.445 140.205 123.48 140.276 123.495 140.361C123.516 140.439 123.512 140.521 123.484 140.606C123.456 140.691 123.395 140.762 123.303 140.819C123.076 140.982 122.827 141.1 122.558 141.171C122.295 141.241 122.04 141.277 121.791 141.277ZM126.625 141.277C126.1 141.277 125.645 141.167 125.262 140.947C124.886 140.727 124.591 140.415 124.379 140.01C124.166 139.606 124.059 139.13 124.059 138.584C124.059 138.165 124.119 137.792 124.24 137.466C124.361 137.139 124.531 136.859 124.751 136.625C124.978 136.383 125.248 136.202 125.56 136.082C125.88 135.954 126.234 135.89 126.625 135.89C127.143 135.89 127.59 136 127.966 136.22C128.349 136.44 128.648 136.752 128.86 137.157C129.073 137.554 129.18 138.03 129.18 138.584C129.18 138.995 129.119 139.368 128.999 139.701C128.878 140.035 128.704 140.319 128.477 140.553C128.257 140.787 127.987 140.968 127.668 141.096C127.356 141.217 127.008 141.277 126.625 141.277ZM126.625 140.447C126.916 140.447 127.171 140.376 127.391 140.234C127.611 140.092 127.782 139.882 127.902 139.606C128.03 139.329 128.094 138.988 128.094 138.584C128.094 137.973 127.959 137.512 127.689 137.2C127.42 136.887 127.065 136.731 126.625 136.731C126.327 136.731 126.068 136.802 125.848 136.944C125.628 137.079 125.454 137.285 125.326 137.562C125.205 137.838 125.145 138.179 125.145 138.584C125.145 139.187 125.28 139.648 125.55 139.968C125.819 140.287 126.178 140.447 126.625 140.447ZM132.306 141.256C132.157 141.256 132.026 141.217 131.912 141.139C131.806 141.06 131.717 140.94 131.646 140.777L129.868 136.646C129.811 136.518 129.79 136.398 129.804 136.284C129.818 136.171 129.872 136.082 129.964 136.018C130.056 135.947 130.18 135.911 130.336 135.911C130.471 135.911 130.578 135.943 130.656 136.007C130.734 136.071 130.805 136.181 130.869 136.337L132.476 140.298H132.178L133.818 136.337C133.881 136.181 133.952 136.071 134.03 136.007C134.116 135.943 134.233 135.911 134.382 135.911C134.51 135.911 134.609 135.947 134.68 136.018C134.758 136.082 134.804 136.171 134.818 136.284C134.84 136.391 134.822 136.508 134.765 136.635L132.966 140.777C132.902 140.94 132.813 141.06 132.7 141.139C132.586 141.217 132.455 141.256 132.306 141.256ZM138.169 141.277C137.601 141.277 137.111 141.171 136.7 140.958C136.295 140.738 135.979 140.429 135.752 140.031C135.532 139.627 135.422 139.148 135.422 138.594C135.422 138.055 135.532 137.583 135.752 137.178C135.972 136.774 136.274 136.458 136.657 136.231C137.041 136.004 137.477 135.89 137.967 135.89C138.329 135.89 138.652 135.951 138.935 136.071C139.219 136.185 139.461 136.355 139.659 136.582C139.865 136.802 140.018 137.072 140.117 137.391C140.224 137.711 140.277 138.069 140.277 138.466C140.277 138.587 140.241 138.679 140.17 138.743C140.099 138.8 139.993 138.828 139.851 138.828H136.274V138.168H139.553L139.372 138.317C139.372 137.963 139.319 137.661 139.212 137.413C139.113 137.164 138.96 136.976 138.754 136.848C138.556 136.713 138.307 136.646 138.009 136.646C137.676 136.646 137.392 136.724 137.158 136.88C136.93 137.036 136.757 137.253 136.636 137.53C136.515 137.806 136.455 138.129 136.455 138.498V138.562C136.455 139.187 136.6 139.659 136.891 139.978C137.19 140.29 137.619 140.447 138.18 140.447C138.393 140.447 138.616 140.418 138.85 140.361C139.092 140.305 139.319 140.209 139.532 140.074C139.652 140.003 139.759 139.971 139.851 139.978C139.95 139.985 140.028 140.017 140.085 140.074C140.149 140.131 140.188 140.202 140.202 140.287C140.217 140.372 140.202 140.461 140.16 140.553C140.117 140.638 140.043 140.716 139.936 140.787C139.695 140.95 139.415 141.075 139.095 141.16C138.776 141.238 138.467 141.277 138.169 141.277ZM141.992 141.256C141.815 141.256 141.68 141.21 141.587 141.117C141.495 141.018 141.449 140.883 141.449 140.713V136.454C141.449 136.277 141.495 136.142 141.587 136.05C141.68 135.958 141.807 135.911 141.971 135.911C142.141 135.911 142.269 135.958 142.354 136.05C142.446 136.142 142.492 136.277 142.492 136.454V137.232H142.386C142.499 136.806 142.709 136.483 143.014 136.263C143.319 136.043 143.709 135.915 144.185 135.88C144.313 135.872 144.412 135.904 144.483 135.975C144.561 136.046 144.604 136.156 144.611 136.305C144.625 136.454 144.593 136.575 144.515 136.667C144.437 136.752 144.316 136.802 144.153 136.816L143.951 136.838C143.489 136.88 143.138 137.026 142.897 137.274C142.656 137.523 142.535 137.863 142.535 138.296V140.713C142.535 140.883 142.489 141.018 142.397 141.117C142.311 141.21 142.176 141.256 141.992 141.256ZM144.936 141.852C144.83 141.852 144.741 141.82 144.67 141.756C144.606 141.692 144.574 141.614 144.574 141.522C144.574 141.43 144.606 141.348 144.67 141.277C144.741 141.213 144.83 141.181 144.936 141.181H149.269C149.368 141.181 149.45 141.213 149.514 141.277C149.585 141.348 149.62 141.43 149.62 141.522C149.62 141.614 149.585 141.692 149.514 141.756C149.45 141.82 149.368 141.852 149.269 141.852H144.936ZM151.196 141.181C151.019 141.181 150.88 141.131 150.781 141.032C150.681 140.933 150.632 140.794 150.632 140.617V134.197C150.632 134.013 150.678 133.875 150.77 133.782C150.869 133.683 151.008 133.633 151.185 133.633C151.363 133.633 151.498 133.683 151.59 133.782C151.689 133.875 151.739 134.013 151.739 134.197V140.234H155.039C155.195 140.234 155.316 140.276 155.401 140.361C155.486 140.439 155.529 140.553 155.529 140.702C155.529 140.851 155.486 140.968 155.401 141.053C155.316 141.139 155.195 141.181 155.039 141.181H151.196ZM158.049 141.277C157.687 141.277 157.361 141.206 157.07 141.064C156.786 140.922 156.562 140.73 156.399 140.489C156.236 140.248 156.154 139.975 156.154 139.669C156.154 139.286 156.25 138.985 156.442 138.765C156.64 138.537 156.963 138.378 157.411 138.285C157.865 138.186 158.475 138.136 159.242 138.136H159.742V138.796H159.252C158.741 138.796 158.337 138.821 158.039 138.871C157.741 138.921 157.528 139.006 157.4 139.127C157.279 139.24 157.219 139.4 157.219 139.606C157.219 139.875 157.311 140.095 157.496 140.266C157.68 140.429 157.936 140.51 158.262 140.51C158.525 140.51 158.755 140.45 158.954 140.329C159.153 140.202 159.309 140.031 159.423 139.818C159.543 139.606 159.604 139.361 159.604 139.084V137.86C159.604 137.455 159.518 137.164 159.348 136.987C159.178 136.809 158.897 136.721 158.507 136.721C158.28 136.721 158.042 136.749 157.794 136.806C157.552 136.862 157.301 136.958 157.038 137.093C156.917 137.15 156.814 137.168 156.729 137.146C156.644 137.125 156.577 137.079 156.527 137.008C156.477 136.93 156.449 136.848 156.442 136.763C156.442 136.671 156.463 136.582 156.506 136.497C156.555 136.412 156.637 136.348 156.75 136.305C157.063 136.156 157.371 136.05 157.677 135.986C157.982 135.922 158.269 135.89 158.539 135.89C159.014 135.89 159.405 135.965 159.71 136.114C160.022 136.263 160.253 136.49 160.402 136.795C160.551 137.1 160.626 137.494 160.626 137.977V140.713C160.626 140.883 160.583 141.018 160.498 141.117C160.413 141.21 160.288 141.256 160.125 141.256C159.969 141.256 159.845 141.21 159.753 141.117C159.66 141.018 159.614 140.883 159.614 140.713V140.021H159.71C159.653 140.283 159.547 140.51 159.391 140.702C159.242 140.887 159.054 141.029 158.826 141.128C158.599 141.227 158.34 141.277 158.049 141.277ZM164.321 141.277C163.895 141.277 163.537 141.202 163.246 141.053C162.955 140.904 162.738 140.684 162.596 140.393C162.454 140.102 162.383 139.748 162.383 139.329V136.816H161.745C161.603 136.816 161.493 136.781 161.415 136.71C161.336 136.632 161.297 136.529 161.297 136.401C161.297 136.266 161.336 136.163 161.415 136.092C161.493 136.021 161.603 135.986 161.745 135.986H162.383V134.889C162.383 134.712 162.429 134.577 162.522 134.485C162.621 134.393 162.756 134.347 162.926 134.347C163.097 134.347 163.228 134.393 163.32 134.485C163.412 134.577 163.459 134.712 163.459 134.889V135.986H164.704C164.846 135.986 164.956 136.021 165.034 136.092C165.112 136.163 165.151 136.266 165.151 136.401C165.151 136.529 165.112 136.632 165.034 136.71C164.956 136.781 164.846 136.816 164.704 136.816H163.459V139.244C163.459 139.62 163.537 139.904 163.693 140.095C163.856 140.287 164.119 140.383 164.481 140.383C164.608 140.383 164.718 140.372 164.811 140.351C164.91 140.322 164.992 140.305 165.055 140.298C165.133 140.298 165.197 140.326 165.247 140.383C165.297 140.432 165.322 140.532 165.322 140.681C165.322 140.787 165.3 140.887 165.258 140.979C165.222 141.071 165.155 141.131 165.055 141.16C164.97 141.188 164.853 141.213 164.704 141.234C164.562 141.263 164.434 141.277 164.321 141.277ZM166.621 141.245C166.45 141.245 166.319 141.195 166.227 141.096C166.134 140.99 166.088 140.844 166.088 140.66V136.508C166.088 136.323 166.134 136.181 166.227 136.082C166.319 135.982 166.45 135.933 166.621 135.933C166.791 135.933 166.922 135.982 167.014 136.082C167.114 136.181 167.164 136.323 167.164 136.508V140.66C167.164 140.844 167.117 140.99 167.025 141.096C166.933 141.195 166.798 141.245 166.621 141.245ZM166.621 134.826C166.408 134.826 166.241 134.772 166.12 134.666C166.007 134.559 165.95 134.41 165.95 134.219C165.95 134.02 166.007 133.871 166.12 133.772C166.241 133.665 166.408 133.612 166.621 133.612C166.833 133.612 166.997 133.665 167.11 133.772C167.231 133.871 167.291 134.02 167.291 134.219C167.291 134.41 167.231 134.559 167.11 134.666C166.997 134.772 166.833 134.826 166.621 134.826ZM169.209 141.256C169.039 141.256 168.908 141.21 168.815 141.117C168.723 141.018 168.677 140.883 168.677 140.713V136.454C168.677 136.277 168.723 136.142 168.815 136.05C168.908 135.958 169.035 135.911 169.199 135.911C169.369 135.911 169.497 135.958 169.582 136.05C169.674 136.142 169.72 136.277 169.72 136.454V137.285L169.603 137.093C169.759 136.696 170.004 136.398 170.338 136.199C170.671 135.993 171.055 135.89 171.487 135.89C171.899 135.89 172.24 135.968 172.509 136.124C172.786 136.273 172.992 136.504 173.127 136.816C173.262 137.122 173.329 137.508 173.329 137.977V140.713C173.329 140.883 173.283 141.018 173.191 141.117C173.099 141.21 172.967 141.256 172.797 141.256C172.619 141.256 172.485 141.21 172.392 141.117C172.3 141.018 172.254 140.883 172.254 140.713V138.041C172.254 137.594 172.165 137.267 171.988 137.061C171.817 136.855 171.548 136.752 171.179 136.752C170.746 136.752 170.398 136.887 170.135 137.157C169.88 137.427 169.752 137.789 169.752 138.243V140.713C169.752 141.075 169.571 141.256 169.209 141.256ZM174.555 141.852C174.449 141.852 174.36 141.82 174.289 141.756C174.225 141.692 174.193 141.614 174.193 141.522C174.193 141.43 174.225 141.348 174.289 141.277C174.36 141.213 174.449 141.181 174.555 141.181H178.888C178.987 141.181 179.069 141.213 179.133 141.277C179.204 141.348 179.239 141.43 179.239 141.522C179.239 141.614 179.204 141.692 179.133 141.756C179.069 141.82 178.987 141.852 178.888 141.852H174.555ZM180.416 141.256C180.274 141.256 180.161 141.224 180.075 141.16C179.99 141.096 179.941 141.011 179.926 140.904C179.912 140.798 179.934 140.677 179.99 140.542L182.875 134.07C182.946 133.899 183.035 133.779 183.141 133.708C183.255 133.637 183.379 133.601 183.514 133.601C183.642 133.601 183.759 133.637 183.865 133.708C183.979 133.779 184.071 133.899 184.142 134.07L187.027 140.542C187.091 140.677 187.116 140.801 187.102 140.915C187.088 141.021 187.041 141.107 186.963 141.171C186.885 141.227 186.775 141.256 186.633 141.256C186.477 141.256 186.353 141.217 186.261 141.139C186.168 141.06 186.087 140.94 186.016 140.777L185.271 139.052L185.771 139.35H181.236L181.726 139.052L180.991 140.777C180.92 140.947 180.842 141.071 180.757 141.149C180.672 141.22 180.558 141.256 180.416 141.256ZM183.493 134.9L181.885 138.711L181.619 138.456H185.377L185.132 138.711L183.514 134.9H183.493ZM188.734 141.256C188.564 141.256 188.432 141.21 188.34 141.117C188.248 141.018 188.202 140.883 188.202 140.713V136.454C188.202 136.277 188.248 136.142 188.34 136.05C188.432 135.958 188.56 135.911 188.723 135.911C188.894 135.911 189.021 135.958 189.107 136.05C189.199 136.142 189.245 136.277 189.245 136.454V137.327L189.128 137.093C189.27 136.717 189.49 136.422 189.788 136.21C190.086 135.997 190.444 135.89 190.863 135.89C191.296 135.89 191.647 135.993 191.917 136.199C192.187 136.405 192.371 136.721 192.471 137.146H192.322C192.456 136.756 192.687 136.451 193.014 136.231C193.34 136.004 193.72 135.89 194.153 135.89C194.55 135.89 194.877 135.968 195.132 136.124C195.388 136.273 195.579 136.504 195.707 136.816C195.835 137.122 195.899 137.508 195.899 137.977V140.713C195.899 140.883 195.849 141.018 195.75 141.117C195.657 141.21 195.526 141.256 195.356 141.256C195.185 141.256 195.054 141.21 194.962 141.117C194.87 141.018 194.823 140.883 194.823 140.713V138.03C194.823 137.59 194.745 137.267 194.589 137.061C194.44 136.855 194.192 136.752 193.844 136.752C193.454 136.752 193.145 136.887 192.918 137.157C192.691 137.427 192.577 137.799 192.577 138.275V140.713C192.577 140.883 192.531 141.018 192.439 141.117C192.346 141.21 192.215 141.256 192.045 141.256C191.875 141.256 191.74 141.21 191.64 141.117C191.548 141.018 191.502 140.883 191.502 140.713V138.03C191.502 137.59 191.427 137.267 191.278 137.061C191.129 136.855 190.881 136.752 190.533 136.752C190.143 136.752 189.834 136.887 189.607 137.157C189.387 137.427 189.277 137.799 189.277 138.275V140.713C189.277 141.075 189.096 141.256 188.734 141.256ZM199.84 141.277C199.272 141.277 198.782 141.171 198.371 140.958C197.966 140.738 197.65 140.429 197.423 140.031C197.203 139.627 197.093 139.148 197.093 138.594C197.093 138.055 197.203 137.583 197.423 137.178C197.643 136.774 197.945 136.458 198.328 136.231C198.711 136.004 199.148 135.89 199.638 135.89C200 135.89 200.322 135.951 200.606 136.071C200.89 136.185 201.132 136.355 201.33 136.582C201.536 136.802 201.689 137.072 201.788 137.391C201.894 137.711 201.948 138.069 201.948 138.466C201.948 138.587 201.912 138.679 201.841 138.743C201.77 138.8 201.664 138.828 201.522 138.828H197.945V138.168H201.224L201.043 138.317C201.043 137.963 200.99 137.661 200.883 137.413C200.784 137.164 200.631 136.976 200.425 136.848C200.227 136.713 199.978 136.646 199.68 136.646C199.347 136.646 199.063 136.724 198.828 136.88C198.601 137.036 198.428 137.253 198.307 137.53C198.186 137.806 198.126 138.129 198.126 138.498V138.562C198.126 139.187 198.271 139.659 198.562 139.978C198.86 140.29 199.29 140.447 199.85 140.447C200.063 140.447 200.287 140.418 200.521 140.361C200.762 140.305 200.99 140.209 201.203 140.074C201.323 140.003 201.43 139.971 201.522 139.978C201.621 139.985 201.699 140.017 201.756 140.074C201.82 140.131 201.859 140.202 201.873 140.287C201.887 140.372 201.873 140.461 201.831 140.553C201.788 140.638 201.714 140.716 201.607 140.787C201.366 140.95 201.085 141.075 200.766 141.16C200.447 141.238 200.138 141.277 199.84 141.277ZM203.663 141.256C203.485 141.256 203.351 141.21 203.258 141.117C203.166 141.018 203.12 140.883 203.12 140.713V136.454C203.12 136.277 203.166 136.142 203.258 136.05C203.351 135.958 203.478 135.911 203.642 135.911C203.812 135.911 203.94 135.958 204.025 136.05C204.117 136.142 204.163 136.277 204.163 136.454V137.232H204.057C204.17 136.806 204.38 136.483 204.685 136.263C204.99 136.043 205.38 135.915 205.856 135.88C205.984 135.872 206.083 135.904 206.154 135.975C206.232 136.046 206.275 136.156 206.282 136.305C206.296 136.454 206.264 136.575 206.186 136.667C206.108 136.752 205.987 136.802 205.824 136.816L205.622 136.838C205.16 136.88 204.809 137.026 204.568 137.274C204.326 137.523 204.206 137.863 204.206 138.296V140.713C204.206 140.883 204.16 141.018 204.067 141.117C203.982 141.21 203.847 141.256 203.663 141.256ZM207.624 141.245C207.453 141.245 207.322 141.195 207.23 141.096C207.137 140.99 207.091 140.844 207.091 140.66V136.508C207.091 136.323 207.137 136.181 207.23 136.082C207.322 135.982 207.453 135.933 207.624 135.933C207.794 135.933 207.925 135.982 208.017 136.082C208.117 136.181 208.167 136.323 208.167 136.508V140.66C208.167 140.844 208.12 140.99 208.028 141.096C207.936 141.195 207.801 141.245 207.624 141.245ZM207.624 134.826C207.411 134.826 207.244 134.772 207.123 134.666C207.01 134.559 206.953 134.41 206.953 134.219C206.953 134.02 207.01 133.871 207.123 133.772C207.244 133.665 207.411 133.612 207.624 133.612C207.837 133.612 208 133.665 208.113 133.772C208.234 133.871 208.294 134.02 208.294 134.219C208.294 134.41 208.234 134.559 208.113 134.666C208 134.772 207.837 134.826 207.624 134.826ZM211.969 141.277C211.437 141.277 210.975 141.167 210.585 140.947C210.202 140.72 209.904 140.404 209.691 139.999C209.478 139.588 209.371 139.105 209.371 138.552C209.371 138.14 209.432 137.771 209.552 137.444C209.673 137.111 209.843 136.831 210.063 136.603C210.29 136.376 210.564 136.202 210.883 136.082C211.209 135.954 211.571 135.89 211.969 135.89C212.217 135.89 212.476 135.929 212.746 136.007C213.023 136.078 213.278 136.199 213.512 136.369C213.605 136.426 213.662 136.497 213.683 136.582C213.711 136.66 213.715 136.742 213.693 136.827C213.679 136.912 213.64 136.987 213.576 137.051C213.52 137.107 213.449 137.143 213.363 137.157C213.278 137.164 213.186 137.139 213.087 137.083C212.916 136.962 212.742 136.877 212.565 136.827C212.388 136.77 212.217 136.742 212.054 136.742C211.799 136.742 211.571 136.784 211.373 136.87C211.181 136.948 211.018 137.065 210.883 137.221C210.748 137.37 210.645 137.558 210.574 137.785C210.51 138.012 210.478 138.271 210.478 138.562C210.478 139.144 210.613 139.602 210.883 139.936C211.16 140.262 211.55 140.425 212.054 140.425C212.217 140.425 212.388 140.4 212.565 140.351C212.742 140.301 212.916 140.216 213.087 140.095C213.186 140.039 213.278 140.017 213.363 140.031C213.449 140.046 213.516 140.085 213.566 140.149C213.622 140.205 213.658 140.276 213.672 140.361C213.693 140.439 213.69 140.521 213.662 140.606C213.633 140.691 213.573 140.762 213.481 140.819C213.253 140.982 213.005 141.1 212.735 141.171C212.473 141.241 212.217 141.277 211.969 141.277ZM216.269 141.277C215.907 141.277 215.58 141.206 215.289 141.064C215.005 140.922 214.782 140.73 214.618 140.489C214.455 140.248 214.374 139.975 214.374 139.669C214.374 139.286 214.469 138.985 214.661 138.765C214.86 138.537 215.183 138.378 215.63 138.285C216.084 138.186 216.694 138.136 217.461 138.136H217.961V138.796H217.472C216.961 138.796 216.556 138.821 216.258 138.871C215.96 138.921 215.747 139.006 215.619 139.127C215.499 139.24 215.438 139.4 215.438 139.606C215.438 139.875 215.53 140.095 215.715 140.266C215.9 140.429 216.155 140.51 216.482 140.51C216.744 140.51 216.975 140.45 217.173 140.329C217.372 140.202 217.528 140.031 217.642 139.818C217.763 139.606 217.823 139.361 217.823 139.084V137.86C217.823 137.455 217.738 137.164 217.567 136.987C217.397 136.809 217.117 136.721 216.726 136.721C216.499 136.721 216.261 136.749 216.013 136.806C215.772 136.862 215.52 136.958 215.257 137.093C215.137 137.15 215.034 137.168 214.949 137.146C214.863 137.125 214.796 137.079 214.746 137.008C214.697 136.93 214.668 136.848 214.661 136.763C214.661 136.671 214.682 136.582 214.725 136.497C214.775 136.412 214.856 136.348 214.97 136.305C215.282 136.156 215.591 136.05 215.896 135.986C216.201 135.922 216.489 135.89 216.758 135.89C217.234 135.89 217.624 135.965 217.929 136.114C218.242 136.263 218.472 136.49 218.621 136.795C218.77 137.1 218.845 137.494 218.845 137.977V140.713C218.845 140.883 218.802 141.018 218.717 141.117C218.632 141.21 218.508 141.256 218.345 141.256C218.188 141.256 218.064 141.21 217.972 141.117C217.88 141.018 217.834 140.883 217.834 140.713V140.021H217.929C217.873 140.283 217.766 140.51 217.61 140.702C217.461 140.887 217.273 141.029 217.046 141.128C216.819 141.227 216.56 141.277 216.269 141.277ZM220.847 141.224C220.642 141.224 220.475 141.16 220.347 141.032C220.219 140.904 220.155 140.741 220.155 140.542C220.155 140.344 220.219 140.184 220.347 140.063C220.475 139.936 220.642 139.872 220.847 139.872C221.053 139.872 221.217 139.936 221.337 140.063C221.458 140.184 221.518 140.344 221.518 140.542C221.518 140.741 221.458 140.904 221.337 141.032C221.217 141.16 221.053 141.224 220.847 141.224ZM223.384 143.172C223.214 143.172 223.083 143.126 222.991 143.034C222.898 142.941 222.852 142.806 222.852 142.629V136.454C222.852 136.277 222.898 136.142 222.991 136.05C223.083 135.958 223.211 135.911 223.374 135.911C223.544 135.911 223.675 135.958 223.768 136.05C223.86 136.142 223.906 136.277 223.906 136.454V137.381L223.789 137.157C223.903 136.774 224.126 136.469 224.46 136.241C224.793 136.007 225.187 135.89 225.641 135.89C226.103 135.89 226.504 136 226.844 136.22C227.192 136.44 227.458 136.749 227.643 137.146C227.834 137.544 227.93 138.023 227.93 138.584C227.93 139.13 227.834 139.609 227.643 140.021C227.458 140.425 227.196 140.738 226.855 140.958C226.514 141.171 226.11 141.277 225.641 141.277C225.194 141.277 224.804 141.163 224.47 140.936C224.137 140.709 223.913 140.408 223.8 140.031H223.927V142.629C223.927 142.806 223.878 142.941 223.778 143.034C223.686 143.126 223.555 143.172 223.384 143.172ZM225.375 140.447C225.673 140.447 225.932 140.376 226.152 140.234C226.372 140.092 226.543 139.882 226.663 139.606C226.784 139.329 226.844 138.988 226.844 138.584C226.844 137.973 226.709 137.512 226.44 137.2C226.177 136.887 225.822 136.731 225.375 136.731C225.084 136.731 224.825 136.802 224.598 136.944C224.378 137.079 224.208 137.285 224.087 137.562C223.966 137.838 223.906 138.179 223.906 138.584C223.906 139.187 224.041 139.648 224.311 139.968C224.58 140.287 224.935 140.447 225.375 140.447ZM231.122 141.277C230.668 141.277 230.267 141.171 229.919 140.958C229.578 140.738 229.312 140.425 229.121 140.021C228.929 139.609 228.833 139.13 228.833 138.584C228.833 138.023 228.929 137.544 229.121 137.146C229.312 136.749 229.578 136.44 229.919 136.22C230.267 136 230.668 135.89 231.122 135.89C231.576 135.89 231.967 136.004 232.293 136.231C232.627 136.451 232.85 136.749 232.964 137.125H232.847V134.144C232.847 133.967 232.893 133.832 232.985 133.74C233.077 133.647 233.209 133.601 233.379 133.601C233.549 133.601 233.681 133.647 233.773 133.74C233.872 133.832 233.922 133.967 233.922 134.144V140.713C233.922 140.883 233.876 141.018 233.783 141.117C233.691 141.21 233.56 141.256 233.39 141.256C233.219 141.256 233.088 141.21 232.996 141.117C232.903 141.018 232.857 140.883 232.857 140.713V139.776L232.974 140.01C232.861 140.393 232.637 140.702 232.304 140.936C231.977 141.163 231.583 141.277 231.122 141.277ZM231.399 140.447C231.69 140.447 231.945 140.376 232.165 140.234C232.385 140.092 232.556 139.882 232.676 139.606C232.804 139.329 232.868 138.988 232.868 138.584C232.868 137.973 232.733 137.512 232.463 137.2C232.194 136.887 231.839 136.731 231.399 136.731C231.101 136.731 230.842 136.802 230.622 136.944C230.402 137.079 230.228 137.285 230.1 137.562C229.979 137.838 229.919 138.179 229.919 138.584C229.919 139.187 230.054 139.648 230.324 139.968C230.593 140.287 230.952 140.447 231.399 140.447ZM236.283 141.256C236.113 141.256 235.978 141.21 235.879 141.117C235.786 141.018 235.74 140.883 235.74 140.713V136.816H235.144C235.009 136.816 234.903 136.781 234.825 136.71C234.747 136.632 234.708 136.529 234.708 136.401C234.708 136.266 234.747 136.163 234.825 136.092C234.903 136.021 235.009 135.986 235.144 135.986H236.049L235.74 136.273V135.89C235.74 135.188 235.914 134.659 236.262 134.304C236.61 133.942 237.117 133.729 237.784 133.665L238.114 133.644C238.235 133.63 238.331 133.647 238.402 133.697C238.473 133.747 238.519 133.811 238.54 133.889C238.562 133.967 238.562 134.048 238.54 134.134C238.526 134.212 238.491 134.283 238.434 134.347C238.377 134.41 238.306 134.446 238.221 134.453L238.019 134.464C237.6 134.499 237.295 134.62 237.103 134.826C236.911 135.024 236.816 135.33 236.816 135.741V136.156L236.667 135.986H237.848C237.997 135.986 238.107 136.021 238.178 136.092C238.256 136.163 238.295 136.266 238.295 136.401C238.295 136.529 238.256 136.632 238.178 136.71C238.107 136.781 237.997 136.816 237.848 136.816H236.816V140.713C236.816 141.075 236.638 141.256 236.283 141.256Z" fill="#15343A"/>
<path d="M304.681 189.067V192.393M312.666 191.728C312.666 196.138 309.091 199.712 304.681 199.712C300.271 199.712 296.697 196.138 296.697 191.728C296.697 187.318 300.271 183.744 304.681 183.744C309.091 183.744 312.666 187.318 312.666 191.728ZM304.681 195.055H304.688V195.061H304.681V195.055Z" stroke="#6444F4" stroke-width="1.33073" stroke-linecap="round" stroke-linejoin="round"/>
</g>
<defs>
<filter id="filter0_b_5561_8196" x="-31.6316" y="-32.1404" width="405.772" height="293.281" filterUnits="userSpaceOnUse" color-interpolation-filters="sRGB">
<feFlood flood-opacity="0" result="BackgroundImageFix"/>
<feGaussianBlur in="BackgroundImageFix" stdDeviation="16.0702"/>
<feComposite in2="SourceAlpha" operator="in" result="effect1_backgroundBlur_5561_8196"/>
<feBlend mode="normal" in="SourceGraphic" in2="effect1_backgroundBlur_5561_8196" result="shape"/>
</filter>
<linearGradient id="paint0_linear_5561_8196" x1="171.254" y1="0" x2="171.254" y2="156.944" gradientUnits="userSpaceOnUse">
<stop stop-color="white"/>
<stop offset="1" stop-color="white" stop-opacity="0.5"/>
</linearGradient>
</defs>
</svg>
