<svg width="350" height="210" viewBox="0 0 350 210" fill="none" xmlns="http://www.w3.org/2000/svg">
<g filter="url(#filter0_b_7831_27776)">
<rect width="350" height="210" rx="13" fill="url(#paint0_linear_7831_27776)" fill-opacity="0.25"/>
<rect x="16" y="16" width="318" height="178" rx="8" fill="#FEFDFF"/>
<path d="M41 62.8595C41 62.8595 73.6516 55 91.6226 55C109.594 55 65.8051 72.8612 88.3321 65.0018C110.859 57.1423 113.822 55.0001 126.352 55.0001C138.881 55.0001 122.735 59.2105 117.06 62.8595" stroke="#B9FFE4" stroke-width="12" stroke-linecap="round"/>
<path d="M66.9856 67.216C65.2736 67.216 63.8096 66.864 62.5936 66.16C61.3776 65.456 60.4416 64.456 59.7856 63.16C59.1456 61.848 58.8256 60.304 58.8256 58.528C58.8256 57.2 59.0096 56.008 59.3776 54.952C59.7456 53.88 60.2736 52.968 60.9616 52.216C61.6656 51.448 62.5216 50.864 63.5296 50.464C64.5536 50.064 65.7056 49.864 66.9856 49.864C67.9296 49.864 68.8336 49.992 69.6976 50.248C70.5776 50.504 71.3376 50.872 71.9776 51.352C72.2496 51.528 72.4256 51.744 72.5056 52C72.6016 52.24 72.6176 52.472 72.5536 52.696C72.5056 52.92 72.4016 53.112 72.2416 53.272C72.0816 53.416 71.8736 53.496 71.6176 53.512C71.3776 53.528 71.1136 53.44 70.8256 53.248C70.2976 52.848 69.7136 52.552 69.0736 52.36C68.4336 52.168 67.7616 52.072 67.0576 52.072C65.8416 52.072 64.8176 52.328 63.9856 52.84C63.1536 53.336 62.5216 54.064 62.0896 55.024C61.6576 55.984 61.4416 57.152 61.4416 58.528C61.4416 59.904 61.6576 61.08 62.0896 62.056C62.5216 63.016 63.1536 63.752 63.9856 64.264C64.8176 64.76 65.8416 65.008 67.0576 65.008C67.7616 65.008 68.4336 64.912 69.0736 64.72C69.7296 64.512 70.3456 64.208 70.9216 63.808C71.2096 63.632 71.4656 63.552 71.6896 63.568C71.9296 63.584 72.1296 63.664 72.2896 63.808C72.4496 63.952 72.5536 64.136 72.6016 64.36C72.6656 64.568 72.6576 64.792 72.5776 65.032C72.5136 65.256 72.3616 65.448 72.1216 65.608C71.4656 66.136 70.6896 66.536 69.7936 66.808C68.8976 67.08 67.9616 67.216 66.9856 67.216ZM76.5803 67.168C76.1803 67.168 75.8763 67.064 75.6683 66.856C75.4603 66.632 75.3563 66.328 75.3563 65.944V56.344C75.3563 55.944 75.4603 55.64 75.6683 55.432C75.8763 55.224 76.1643 55.12 76.5323 55.12C76.9163 55.12 77.2043 55.224 77.3963 55.432C77.6043 55.64 77.7083 55.944 77.7083 56.344V58.096H77.4683C77.7243 57.136 78.1963 56.408 78.8843 55.912C79.5723 55.416 80.4523 55.128 81.5243 55.048C81.8123 55.032 82.0363 55.104 82.1963 55.264C82.3723 55.424 82.4683 55.672 82.4843 56.008C82.5163 56.344 82.4443 56.616 82.2683 56.824C82.0923 57.016 81.8203 57.128 81.4523 57.16L80.9963 57.208C79.9563 57.304 79.1643 57.632 78.6203 58.192C78.0763 58.752 77.8043 59.52 77.8043 60.496V65.944C77.8043 66.328 77.7003 66.632 77.4923 66.856C77.3003 67.064 76.9963 67.168 76.5803 67.168ZM89.6414 67.216C88.3614 67.216 87.2574 66.976 86.3294 66.496C85.4174 66 84.7054 65.304 84.1934 64.408C83.6974 63.496 83.4494 62.416 83.4494 61.168C83.4494 59.952 83.6974 58.888 84.1934 57.976C84.6894 57.064 85.3694 56.352 86.2334 55.84C87.0974 55.328 88.0814 55.072 89.1854 55.072C90.0014 55.072 90.7294 55.208 91.3694 55.48C92.0094 55.736 92.5534 56.12 93.0014 56.632C93.4654 57.128 93.8094 57.736 94.0334 58.456C94.2734 59.176 94.3934 59.984 94.3934 60.88C94.3934 61.152 94.3134 61.36 94.1534 61.504C93.9934 61.632 93.7534 61.696 93.4334 61.696H85.3694V60.208H92.7614L92.3534 60.544C92.3534 59.744 92.2334 59.064 91.9934 58.504C91.7694 57.944 91.4254 57.52 90.9614 57.232C90.5134 56.928 89.9534 56.776 89.2814 56.776C88.5294 56.776 87.8894 56.952 87.3614 57.304C86.8494 57.656 86.4574 58.144 86.1854 58.768C85.9134 59.392 85.7774 60.12 85.7774 60.952V61.096C85.7774 62.504 86.1054 63.568 86.7614 64.288C87.4334 64.992 88.4014 65.344 89.6654 65.344C90.1454 65.344 90.6494 65.28 91.1774 65.152C91.7214 65.024 92.2334 64.808 92.7134 64.504C92.9854 64.344 93.2254 64.272 93.4334 64.288C93.6574 64.304 93.8334 64.376 93.9614 64.504C94.1054 64.632 94.1934 64.792 94.2254 64.984C94.2574 65.176 94.2254 65.376 94.1294 65.584C94.0334 65.776 93.8654 65.952 93.6254 66.112C93.0814 66.48 92.4494 66.76 91.7294 66.952C91.0094 67.128 90.3134 67.216 89.6414 67.216ZM100.78 67.216C99.964 67.216 99.228 67.056 98.572 66.736C97.932 66.416 97.428 65.984 97.06 65.44C96.692 64.896 96.508 64.28 96.508 63.592C96.508 62.728 96.724 62.048 97.156 61.552C97.604 61.04 98.332 60.68 99.34 60.472C100.364 60.248 101.74 60.136 103.468 60.136H104.596V61.624H103.492C102.34 61.624 101.428 61.68 100.756 61.792C100.084 61.904 99.604 62.096 99.316 62.368C99.044 62.624 98.908 62.984 98.908 63.448C98.908 64.056 99.116 64.552 99.532 64.936C99.948 65.304 100.524 65.488 101.26 65.488C101.852 65.488 102.372 65.352 102.82 65.08C103.268 64.792 103.62 64.408 103.876 63.928C104.148 63.448 104.284 62.896 104.284 62.272V59.512C104.284 58.6 104.092 57.944 103.708 57.544C103.324 57.144 102.692 56.944 101.812 56.944C101.3 56.944 100.764 57.008 100.204 57.136C99.66 57.264 99.092 57.48 98.5 57.784C98.228 57.912 97.996 57.952 97.804 57.904C97.612 57.856 97.46 57.752 97.348 57.592C97.236 57.416 97.172 57.232 97.156 57.04C97.156 56.832 97.204 56.632 97.3 56.44C97.412 56.248 97.596 56.104 97.852 56.008C98.556 55.672 99.252 55.432 99.94 55.288C100.628 55.144 101.276 55.072 101.884 55.072C102.956 55.072 103.836 55.24 104.524 55.576C105.228 55.912 105.748 56.424 106.084 57.112C106.42 57.8 106.588 58.688 106.588 59.776V65.944C106.588 66.328 106.492 66.632 106.3 66.856C106.108 67.064 105.828 67.168 105.46 67.168C105.108 67.168 104.828 67.064 104.62 66.856C104.412 66.632 104.308 66.328 104.308 65.944V64.384H104.524C104.396 64.976 104.156 65.488 103.804 65.92C103.468 66.336 103.044 66.656 102.532 66.88C102.02 67.104 101.436 67.216 100.78 67.216ZM114.919 67.216C113.959 67.216 113.151 67.048 112.495 66.712C111.839 66.376 111.351 65.88 111.031 65.224C110.711 64.568 110.551 63.768 110.551 62.824V57.16H109.111C108.791 57.16 108.543 57.08 108.367 56.92C108.191 56.744 108.103 56.512 108.103 56.224C108.103 55.92 108.191 55.688 108.367 55.528C108.543 55.368 108.791 55.288 109.111 55.288H110.551V52.816C110.551 52.416 110.655 52.112 110.863 51.904C111.087 51.696 111.391 51.592 111.775 51.592C112.159 51.592 112.455 51.696 112.663 51.904C112.871 52.112 112.975 52.416 112.975 52.816V55.288H115.783C116.103 55.288 116.351 55.368 116.527 55.528C116.703 55.688 116.791 55.92 116.791 56.224C116.791 56.512 116.703 56.744 116.527 56.92C116.351 57.08 116.103 57.16 115.783 57.16H112.975V62.632C112.975 63.48 113.151 64.12 113.503 64.552C113.871 64.984 114.463 65.2 115.279 65.2C115.567 65.2 115.815 65.176 116.023 65.128C116.247 65.064 116.431 65.024 116.575 65.008C116.751 65.008 116.895 65.072 117.007 65.2C117.119 65.312 117.175 65.536 117.175 65.872C117.175 66.112 117.127 66.336 117.031 66.544C116.951 66.752 116.799 66.888 116.575 66.952C116.383 67.016 116.119 67.072 115.783 67.12C115.463 67.184 115.175 67.216 114.919 67.216ZM124.071 67.216C122.791 67.216 121.687 66.976 120.759 66.496C119.847 66 119.135 65.304 118.623 64.408C118.127 63.496 117.879 62.416 117.879 61.168C117.879 59.952 118.127 58.888 118.623 57.976C119.119 57.064 119.799 56.352 120.663 55.84C121.527 55.328 122.511 55.072 123.615 55.072C124.431 55.072 125.159 55.208 125.799 55.48C126.439 55.736 126.983 56.12 127.431 56.632C127.895 57.128 128.239 57.736 128.463 58.456C128.703 59.176 128.823 59.984 128.823 60.88C128.823 61.152 128.743 61.36 128.583 61.504C128.423 61.632 128.183 61.696 127.863 61.696H119.799V60.208H127.191L126.783 60.544C126.783 59.744 126.663 59.064 126.423 58.504C126.199 57.944 125.855 57.52 125.391 57.232C124.943 56.928 124.383 56.776 123.711 56.776C122.959 56.776 122.319 56.952 121.791 57.304C121.279 57.656 120.887 58.144 120.615 58.768C120.343 59.392 120.207 60.12 120.207 60.952V61.096C120.207 62.504 120.535 63.568 121.191 64.288C121.863 64.992 122.831 65.344 124.095 65.344C124.575 65.344 125.079 65.28 125.607 65.152C126.151 65.024 126.663 64.808 127.143 64.504C127.415 64.344 127.655 64.272 127.863 64.288C128.087 64.304 128.263 64.376 128.391 64.504C128.535 64.632 128.623 64.792 128.655 64.984C128.687 65.176 128.655 65.376 128.559 65.584C128.463 65.776 128.295 65.952 128.055 66.112C127.511 66.48 126.879 66.76 126.159 66.952C125.439 67.128 124.743 67.216 124.071 67.216ZM140.554 71.488C140.266 71.488 140.026 71.408 139.834 71.248C139.658 71.104 139.554 70.904 139.522 70.648C139.506 70.408 139.554 70.144 139.666 69.856L141.298 66.184V67.216L136.81 56.776C136.698 56.488 136.658 56.216 136.69 55.96C136.722 55.704 136.842 55.504 137.05 55.36C137.258 55.2 137.538 55.12 137.89 55.12C138.194 55.12 138.434 55.192 138.61 55.336C138.786 55.48 138.946 55.728 139.09 56.08L142.714 65.032H142.042L145.714 56.08C145.858 55.712 146.026 55.464 146.218 55.336C146.41 55.192 146.674 55.12 147.01 55.12C147.298 55.12 147.522 55.2 147.682 55.36C147.858 55.504 147.962 55.704 147.994 55.96C148.042 56.2 148.002 56.464 147.874 56.752L141.874 70.552C141.714 70.92 141.53 71.168 141.322 71.296C141.13 71.424 140.874 71.488 140.554 71.488ZM155.14 67.216C153.956 67.216 152.932 66.968 152.068 66.472C151.22 65.976 150.556 65.272 150.076 64.36C149.596 63.448 149.356 62.376 149.356 61.144C149.356 60.2 149.492 59.36 149.764 58.624C150.036 57.888 150.42 57.256 150.916 56.728C151.428 56.184 152.036 55.776 152.74 55.504C153.46 55.216 154.26 55.072 155.14 55.072C156.308 55.072 157.316 55.32 158.164 55.816C159.028 56.312 159.7 57.016 160.18 57.928C160.66 58.824 160.9 59.896 160.9 61.144C160.9 62.072 160.764 62.912 160.492 63.664C160.22 64.416 159.828 65.056 159.316 65.584C158.82 66.112 158.212 66.52 157.492 66.808C156.788 67.08 156.004 67.216 155.14 67.216ZM155.14 65.344C155.796 65.344 156.372 65.184 156.868 64.864C157.364 64.544 157.748 64.072 158.02 63.448C158.308 62.824 158.452 62.056 158.452 61.144C158.452 59.768 158.148 58.728 157.54 58.024C156.932 57.32 156.132 56.968 155.14 56.968C154.468 56.968 153.884 57.128 153.388 57.448C152.892 57.752 152.5 58.216 152.212 58.84C151.94 59.464 151.804 60.232 151.804 61.144C151.804 62.504 152.108 63.544 152.716 64.264C153.324 64.984 154.132 65.344 155.14 65.344ZM167.798 67.216C166.854 67.216 166.062 67.04 165.422 66.688C164.798 66.336 164.326 65.816 164.006 65.128C163.702 64.424 163.55 63.544 163.55 62.488V56.344C163.55 55.928 163.654 55.624 163.862 55.432C164.07 55.224 164.366 55.12 164.75 55.12C165.134 55.12 165.43 55.224 165.638 55.432C165.862 55.624 165.974 55.928 165.974 56.344V62.512C165.974 63.456 166.166 64.152 166.55 64.6C166.934 65.048 167.542 65.272 168.374 65.272C169.286 65.272 170.022 64.968 170.582 64.36C171.158 63.736 171.446 62.92 171.446 61.912V56.344C171.446 55.928 171.55 55.624 171.758 55.432C171.966 55.224 172.27 55.12 172.67 55.12C173.054 55.12 173.35 55.224 173.558 55.432C173.766 55.624 173.87 55.928 173.87 56.344V65.944C173.87 66.76 173.478 67.168 172.694 67.168C172.326 67.168 172.038 67.064 171.83 66.856C171.622 66.632 171.518 66.328 171.518 65.944V63.904L171.83 64.432C171.51 65.328 170.998 66.016 170.294 66.496C169.59 66.976 168.758 67.216 167.798 67.216ZM178.51 67.168C178.11 67.168 177.806 67.064 177.598 66.856C177.39 66.632 177.286 66.328 177.286 65.944V56.344C177.286 55.944 177.39 55.64 177.598 55.432C177.806 55.224 178.094 55.12 178.462 55.12C178.846 55.12 179.134 55.224 179.326 55.432C179.534 55.64 179.638 55.944 179.638 56.344V58.096H179.398C179.654 57.136 180.126 56.408 180.814 55.912C181.502 55.416 182.382 55.128 183.454 55.048C183.742 55.032 183.966 55.104 184.126 55.264C184.302 55.424 184.398 55.672 184.414 56.008C184.446 56.344 184.374 56.616 184.198 56.824C184.022 57.016 183.75 57.128 183.382 57.16L182.926 57.208C181.886 57.304 181.094 57.632 180.55 58.192C180.006 58.752 179.734 59.52 179.734 60.496V65.944C179.734 66.328 179.63 66.632 179.422 66.856C179.23 67.064 178.926 67.168 178.51 67.168ZM202.119 71.488C201.735 71.488 201.439 71.384 201.231 71.176C201.023 70.968 200.919 70.664 200.919 70.264V64.408H201.183C200.927 65.256 200.423 65.936 199.671 66.448C198.935 66.96 198.055 67.216 197.031 67.216C196.007 67.216 195.103 66.976 194.319 66.496C193.551 66 192.951 65.296 192.519 64.384C192.087 63.456 191.871 62.376 191.871 61.144C191.871 59.88 192.087 58.8 192.519 57.904C192.951 57.008 193.551 56.312 194.319 55.816C195.103 55.32 196.007 55.072 197.031 55.072C198.071 55.072 198.959 55.336 199.695 55.864C200.447 56.376 200.951 57.064 201.207 57.928L200.943 58.432V56.344C200.943 55.944 201.047 55.64 201.255 55.432C201.463 55.224 201.759 55.12 202.143 55.12C202.527 55.12 202.823 55.224 203.031 55.432C203.239 55.64 203.343 55.944 203.343 56.344V70.264C203.343 70.664 203.231 70.968 203.007 71.176C202.799 71.384 202.503 71.488 202.119 71.488ZM197.655 65.344C198.311 65.344 198.887 65.184 199.383 64.864C199.879 64.544 200.263 64.072 200.535 63.448C200.823 62.824 200.967 62.056 200.967 61.144C200.967 59.768 200.663 58.728 200.055 58.024C199.447 57.32 198.647 56.968 197.655 56.968C196.983 56.968 196.399 57.128 195.903 57.448C195.407 57.752 195.015 58.216 194.727 58.84C194.455 59.464 194.319 60.232 194.319 61.144C194.319 62.504 194.623 63.544 195.231 64.264C195.839 64.984 196.647 65.344 197.655 65.344ZM210.923 67.216C209.979 67.216 209.187 67.04 208.547 66.688C207.923 66.336 207.451 65.816 207.131 65.128C206.827 64.424 206.675 63.544 206.675 62.488V56.344C206.675 55.928 206.779 55.624 206.987 55.432C207.195 55.224 207.491 55.12 207.875 55.12C208.259 55.12 208.555 55.224 208.763 55.432C208.987 55.624 209.099 55.928 209.099 56.344V62.512C209.099 63.456 209.291 64.152 209.675 64.6C210.059 65.048 210.667 65.272 211.499 65.272C212.411 65.272 213.147 64.968 213.707 64.36C214.283 63.736 214.571 62.92 214.571 61.912V56.344C214.571 55.928 214.675 55.624 214.883 55.432C215.091 55.224 215.395 55.12 215.795 55.12C216.179 55.12 216.475 55.224 216.683 55.432C216.891 55.624 216.995 55.928 216.995 56.344V65.944C216.995 66.76 216.603 67.168 215.819 67.168C215.451 67.168 215.163 67.064 214.955 66.856C214.747 66.632 214.643 66.328 214.643 65.944V63.904L214.955 64.432C214.635 65.328 214.123 66.016 213.419 66.496C212.715 66.976 211.883 67.216 210.923 67.216ZM221.611 67.144C221.227 67.144 220.931 67.032 220.723 66.808C220.515 66.568 220.411 66.24 220.411 65.824V56.464C220.411 56.048 220.515 55.728 220.723 55.504C220.931 55.28 221.227 55.168 221.611 55.168C221.995 55.168 222.291 55.28 222.499 55.504C222.723 55.728 222.835 56.048 222.835 56.464V65.824C222.835 66.24 222.731 66.568 222.523 66.808C222.315 67.032 222.011 67.144 221.611 67.144ZM221.611 52.672C221.131 52.672 220.755 52.552 220.483 52.312C220.227 52.072 220.099 51.736 220.099 51.304C220.099 50.856 220.227 50.52 220.483 50.296C220.755 50.056 221.131 49.936 221.611 49.936C222.091 49.936 222.459 50.056 222.715 50.296C222.987 50.52 223.123 50.856 223.123 51.304C223.123 51.736 222.987 52.072 222.715 52.312C222.459 52.552 222.091 52.672 221.611 52.672ZM226.703 67C226.447 67 226.239 66.944 226.079 66.832C225.919 66.704 225.807 66.544 225.743 66.352C225.695 66.144 225.695 65.928 225.743 65.704C225.807 65.464 225.935 65.24 226.127 65.032L232.655 56.56V57.16H226.559C226.255 57.16 226.023 57.08 225.863 56.92C225.703 56.744 225.623 56.512 225.623 56.224C225.623 55.92 225.703 55.688 225.863 55.528C226.023 55.368 226.255 55.288 226.559 55.288H233.807C234.111 55.288 234.351 55.352 234.527 55.48C234.719 55.608 234.839 55.768 234.887 55.96C234.951 56.152 234.959 56.36 234.911 56.584C234.863 56.808 234.743 57.024 234.551 57.232L227.927 65.8V65.152H234.335C234.975 65.152 235.295 65.456 235.295 66.064C235.295 66.352 235.207 66.584 235.031 66.76C234.871 66.92 234.639 67 234.335 67H226.703ZM245.722 67.168C245.338 67.168 245.034 67.064 244.81 66.856C244.602 66.632 244.498 66.328 244.498 65.944V57.16H243.154C242.85 57.16 242.61 57.08 242.434 56.92C242.258 56.744 242.17 56.512 242.17 56.224C242.17 55.92 242.258 55.688 242.434 55.528C242.61 55.368 242.85 55.288 243.154 55.288H245.194L244.498 55.936V55.072C244.498 53.488 244.89 52.296 245.674 51.496C246.458 50.68 247.602 50.2 249.106 50.056L249.85 50.008C250.122 49.976 250.338 50.016 250.498 50.128C250.658 50.24 250.762 50.384 250.81 50.56C250.858 50.736 250.858 50.92 250.81 51.112C250.778 51.288 250.698 51.448 250.57 51.592C250.442 51.736 250.282 51.816 250.09 51.832L249.634 51.856C248.69 51.936 248.002 52.208 247.57 52.672C247.138 53.12 246.922 53.808 246.922 54.736V55.672L246.586 55.288H249.25C249.586 55.288 249.834 55.368 249.994 55.528C250.17 55.688 250.258 55.92 250.258 56.224C250.258 56.512 250.17 56.744 249.994 56.92C249.834 57.08 249.586 57.16 249.25 57.16H246.922V65.944C246.922 66.76 246.522 67.168 245.722 67.168ZM253.346 67.168C252.946 67.168 252.642 67.064 252.434 66.856C252.226 66.632 252.122 66.328 252.122 65.944V56.344C252.122 55.944 252.226 55.64 252.434 55.432C252.642 55.224 252.93 55.12 253.298 55.12C253.682 55.12 253.97 55.224 254.162 55.432C254.37 55.64 254.474 55.944 254.474 56.344V58.096H254.234C254.49 57.136 254.962 56.408 255.65 55.912C256.338 55.416 257.218 55.128 258.29 55.048C258.578 55.032 258.802 55.104 258.962 55.264C259.138 55.424 259.234 55.672 259.25 56.008C259.282 56.344 259.21 56.616 259.034 56.824C258.858 57.016 258.586 57.128 258.218 57.16L257.762 57.208C256.722 57.304 255.93 57.632 255.386 58.192C254.842 58.752 254.57 59.52 254.57 60.496V65.944C254.57 66.328 254.466 66.632 254.258 66.856C254.066 67.064 253.762 67.168 253.346 67.168ZM265.999 67.216C264.815 67.216 263.791 66.968 262.927 66.472C262.079 65.976 261.415 65.272 260.935 64.36C260.455 63.448 260.215 62.376 260.215 61.144C260.215 60.2 260.351 59.36 260.623 58.624C260.895 57.888 261.279 57.256 261.775 56.728C262.287 56.184 262.895 55.776 263.599 55.504C264.319 55.216 265.119 55.072 265.999 55.072C267.167 55.072 268.175 55.32 269.023 55.816C269.887 56.312 270.559 57.016 271.039 57.928C271.519 58.824 271.759 59.896 271.759 61.144C271.759 62.072 271.623 62.912 271.351 63.664C271.079 64.416 270.687 65.056 270.175 65.584C269.679 66.112 269.071 66.52 268.351 66.808C267.647 67.08 266.863 67.216 265.999 67.216ZM265.999 65.344C266.655 65.344 267.231 65.184 267.727 64.864C268.223 64.544 268.607 64.072 268.879 63.448C269.167 62.824 269.311 62.056 269.311 61.144C269.311 59.768 269.007 58.728 268.399 58.024C267.791 57.32 266.991 56.968 265.999 56.968C265.327 56.968 264.743 57.128 264.247 57.448C263.751 57.752 263.359 58.216 263.071 58.84C262.799 59.464 262.663 60.232 262.663 61.144C262.663 62.504 262.967 63.544 263.575 64.264C264.183 64.984 264.991 65.344 265.999 65.344ZM275.729 67.168C275.345 67.168 275.049 67.064 274.841 66.856C274.633 66.632 274.529 66.328 274.529 65.944V56.344C274.529 55.944 274.633 55.64 274.841 55.432C275.049 55.224 275.337 55.12 275.705 55.12C276.089 55.12 276.377 55.224 276.569 55.432C276.777 55.64 276.881 55.944 276.881 56.344V58.312L276.617 57.784C276.937 56.936 277.433 56.272 278.105 55.792C278.777 55.312 279.585 55.072 280.529 55.072C281.505 55.072 282.297 55.304 282.905 55.768C283.513 56.232 283.929 56.944 284.153 57.904H283.817C284.121 57.024 284.641 56.336 285.377 55.84C286.113 55.328 286.969 55.072 287.945 55.072C288.841 55.072 289.577 55.248 290.153 55.6C290.729 55.936 291.161 56.456 291.449 57.16C291.737 57.848 291.881 58.72 291.881 59.776V65.944C291.881 66.328 291.769 66.632 291.545 66.856C291.337 67.064 291.041 67.168 290.657 67.168C290.273 67.168 289.977 67.064 289.769 66.856C289.561 66.632 289.457 66.328 289.457 65.944V59.896C289.457 58.904 289.281 58.176 288.929 57.712C288.593 57.248 288.033 57.016 287.249 57.016C286.369 57.016 285.673 57.32 285.161 57.928C284.649 58.536 284.393 59.376 284.393 60.448V65.944C284.393 66.328 284.289 66.632 284.081 66.856C283.873 67.064 283.577 67.168 283.193 67.168C282.809 67.168 282.505 67.064 282.281 66.856C282.073 66.632 281.969 66.328 281.969 65.944V59.896C281.969 58.904 281.801 58.176 281.465 57.712C281.129 57.248 280.569 57.016 279.785 57.016C278.905 57.016 278.209 57.32 277.697 57.928C277.201 58.536 276.953 59.376 276.953 60.448V65.944C276.953 66.76 276.545 67.168 275.729 67.168Z" fill="#6444F4"/>
<g clip-path="url(#clip0_7831_27776)">
<g clip-path="url(#clip1_7831_27776)">
<path d="M50.75 121.875V119.688C50.75 118.134 49.4908 116.875 47.9375 116.875H46.6875C46.1697 116.875 45.75 116.455 45.75 115.938V114.688C45.75 113.134 44.4908 111.875 42.9375 111.875H41.375M43.25 111.875H39.1875C38.6697 111.875 38.25 112.295 38.25 112.812V127.188C38.25 127.705 38.6697 128.125 39.1875 128.125H49.8125C50.3303 128.125 50.75 127.705 50.75 127.188V119.375C50.75 115.233 47.3921 111.875 43.25 111.875Z" stroke="#6444F4" stroke-linecap="round" stroke-linejoin="round"/>
<path d="M65.18 126.64C64.8467 126.64 64.5867 126.547 64.4 126.36C64.2267 126.173 64.14 125.913 64.14 125.58V113.46C64.14 113.113 64.2333 112.853 64.42 112.68C64.6067 112.493 64.8667 112.4 65.2 112.4H69.98C71.5 112.4 72.6733 112.78 73.5 113.54C74.3267 114.287 74.74 115.34 74.74 116.7C74.74 118.073 74.3267 119.14 73.5 119.9C72.6733 120.647 71.5 121.02 69.98 121.02H66.22V125.58C66.22 125.913 66.1333 126.173 65.96 126.36C65.7867 126.547 65.5267 126.64 65.18 126.64ZM66.22 119.36H69.68C70.68 119.36 71.4333 119.14 71.94 118.7C72.46 118.247 72.72 117.58 72.72 116.7C72.72 115.833 72.46 115.18 71.94 114.74C71.4333 114.287 70.68 114.06 69.68 114.06H66.22V119.36ZM78.092 126.5C77.732 126.5 77.452 126.407 77.252 126.22C77.0654 126.02 76.972 125.74 76.972 125.38V113.52C76.972 113.16 77.0654 112.887 77.252 112.7C77.452 112.5 77.732 112.4 78.092 112.4H81.952C84.272 112.4 86.0587 113.007 87.312 114.22C88.5787 115.42 89.212 117.16 89.212 119.44C89.212 120.573 89.052 121.58 88.732 122.46C88.412 123.34 87.9387 124.08 87.312 124.68C86.6987 125.267 85.9454 125.72 85.052 126.04C84.1587 126.347 83.1254 126.5 81.952 126.5H78.092ZM79.052 124.76H81.832C82.712 124.76 83.472 124.653 84.112 124.44C84.7654 124.213 85.312 123.88 85.752 123.44C86.192 123 86.5187 122.447 86.732 121.78C86.9454 121.113 87.052 120.333 87.052 119.44C87.052 117.667 86.612 116.34 85.732 115.46C84.8654 114.58 83.5654 114.14 81.832 114.14H79.052V124.76ZM93.0916 126.64C92.7449 126.64 92.4716 126.547 92.2716 126.36C92.0849 126.173 91.9916 125.9 91.9916 125.54V113.52C91.9916 113.16 92.0849 112.887 92.2716 112.7C92.4716 112.5 92.7516 112.4 93.1116 112.4H100.232C100.525 112.4 100.738 112.473 100.872 112.62C101.018 112.753 101.092 112.953 101.092 113.22C101.092 113.5 101.018 113.713 100.872 113.86C100.738 114.007 100.525 114.08 100.232 114.08H94.0716V118.58H99.8316C100.098 118.58 100.305 118.653 100.452 118.8C100.612 118.933 100.692 119.133 100.692 119.4C100.692 119.68 100.612 119.893 100.452 120.04C100.305 120.187 100.098 120.26 99.8316 120.26H94.0716V125.54C94.0716 126.273 93.7449 126.64 93.0916 126.64Z" fill="#4E30D2"/>
</g>
<rect x="32" y="135.5" width="80" height="2" fill="#4E30D2"/>
</g>
<g clip-path="url(#clip2_7831_27776)">
<g clip-path="url(#clip3_7831_27776)">
<path d="M131.312 126.25H145.688M131.312 126.25C130.795 126.25 130.375 125.83 130.375 125.312M131.312 126.25H132.563C133.08 126.25 133.5 125.83 133.5 125.312M130.375 125.312V114.687M130.375 125.312V124.062C130.375 123.545 130.795 123.125 131.313 123.125M146.625 125.312V114.688M146.625 125.312C146.625 125.83 146.205 126.25 145.688 126.25M146.625 125.312V124.062C146.625 123.545 146.205 123.125 145.688 123.125M145.688 126.25H144.438C143.92 126.25 143.5 125.83 143.5 125.312M145.688 113.75H131.313M145.688 113.75C146.205 113.75 146.625 114.17 146.625 114.688M145.688 113.75H144.438C143.92 113.75 143.5 114.17 143.5 114.688M146.625 114.688V115.938C146.625 116.455 146.205 116.875 145.688 116.875M131.313 113.75C130.795 113.75 130.375 114.17 130.375 114.687M131.313 113.75H132.563C133.08 113.75 133.5 114.17 133.5 114.688M130.375 114.687V115.938C130.375 116.455 130.795 116.875 131.313 116.875M131.313 116.875H132.563M131.313 116.875C130.795 116.875 130.375 117.295 130.375 117.812V119.062C130.375 119.58 130.795 120 131.313 120M132.563 116.875C133.08 116.875 133.5 116.455 133.5 115.938V114.688M132.563 116.875C133.08 116.875 133.5 117.295 133.5 117.812V119.062M133.5 114.688V119.062M133.5 114.688C133.5 114.17 133.92 113.75 134.438 113.75H142.563C143.08 113.75 143.5 114.17 143.5 114.688M144.438 116.875H145.688M144.438 116.875C143.92 116.875 143.5 116.455 143.5 115.938V114.688M144.438 116.875C143.92 116.875 143.5 117.295 143.5 117.812V119.062M145.688 116.875C146.205 116.875 146.625 117.295 146.625 117.812V119.062C146.625 119.58 146.205 120 145.688 120M143.5 114.688V119.062M134.438 120H142.563M134.438 120C133.92 120 133.5 119.58 133.5 119.062M134.438 120C133.92 120 133.5 120.42 133.5 120.938M133.5 119.062C133.5 119.58 133.08 120 132.563 120M143.5 119.062C143.5 119.58 143.08 120 142.563 120M143.5 119.062C143.5 119.58 143.92 120 144.438 120M142.563 120C143.08 120 143.5 120.42 143.5 120.938M133.5 125.312V120.938M133.5 125.312C133.5 125.83 133.92 126.25 134.438 126.25H142.563C143.08 126.25 143.5 125.83 143.5 125.312M133.5 125.312V124.062C133.5 123.545 133.08 123.125 132.563 123.125M143.5 125.312V120.938M143.5 125.312V124.062C143.5 123.545 143.92 123.125 144.438 123.125M143.5 120.938V122.188C143.5 122.705 143.92 123.125 144.438 123.125M143.5 120.938C143.5 120.42 143.92 120 144.438 120M133.5 120.938V122.188C133.5 122.705 133.08 123.125 132.563 123.125M133.5 120.938C133.5 120.42 133.08 120 132.563 120M131.313 120H132.563M131.313 120C130.795 120 130.375 120.42 130.375 120.938V122.188C130.375 122.705 130.795 123.125 131.313 123.125M144.438 120H145.688M145.688 120C146.205 120 146.625 120.42 146.625 120.938V122.188C146.625 122.705 146.205 123.125 145.688 123.125M131.313 123.125H132.563M144.438 123.125H145.688" stroke="#475569" stroke-width="0.88819" stroke-linecap="round" stroke-linejoin="round"/>
<path d="M162.56 127.14C162.227 127.14 161.967 127.047 161.78 126.86C161.607 126.673 161.52 126.407 161.52 126.06V119.72L161.98 121.04L157.04 114.18C156.893 113.98 156.827 113.773 156.84 113.56C156.853 113.333 156.94 113.147 157.1 113C157.273 112.84 157.5 112.76 157.78 112.76C157.993 112.76 158.187 112.813 158.36 112.92C158.547 113.027 158.72 113.193 158.88 113.42L162.84 118.92H162.36L166.32 113.42C166.493 113.18 166.66 113.013 166.82 112.92C166.98 112.813 167.18 112.76 167.42 112.76C167.7 112.76 167.913 112.833 168.06 112.98C168.22 113.113 168.3 113.293 168.3 113.52C168.313 113.733 168.233 113.96 168.06 114.2L163.16 121.04L163.58 119.72V126.06C163.58 126.78 163.24 127.14 162.56 127.14ZM172.668 127.18C171.681 127.18 170.828 126.973 170.108 126.56C169.401 126.147 168.848 125.56 168.448 124.8C168.048 124.04 167.848 123.147 167.848 122.12C167.848 121.333 167.961 120.633 168.188 120.02C168.414 119.407 168.734 118.88 169.148 118.44C169.574 117.987 170.081 117.647 170.668 117.42C171.268 117.18 171.934 117.06 172.668 117.06C173.641 117.06 174.481 117.267 175.188 117.68C175.908 118.093 176.468 118.68 176.868 119.44C177.268 120.187 177.468 121.08 177.468 122.12C177.468 122.893 177.354 123.593 177.128 124.22C176.901 124.847 176.574 125.38 176.148 125.82C175.734 126.26 175.228 126.6 174.628 126.84C174.041 127.067 173.388 127.18 172.668 127.18ZM172.668 125.62C173.214 125.62 173.694 125.487 174.108 125.22C174.521 124.953 174.841 124.56 175.068 124.04C175.308 123.52 175.428 122.88 175.428 122.12C175.428 120.973 175.174 120.107 174.668 119.52C174.161 118.933 173.494 118.64 172.668 118.64C172.108 118.64 171.621 118.773 171.208 119.04C170.794 119.293 170.468 119.68 170.228 120.2C170.001 120.72 169.888 121.36 169.888 122.12C169.888 123.253 170.141 124.12 170.648 124.72C171.154 125.32 171.828 125.62 172.668 125.62ZM183.216 127.18C182.43 127.18 181.77 127.033 181.236 126.74C180.716 126.447 180.323 126.013 180.056 125.44C179.803 124.853 179.676 124.12 179.676 123.24V118.12C179.676 117.773 179.763 117.52 179.936 117.36C180.11 117.187 180.356 117.1 180.676 117.1C180.996 117.1 181.243 117.187 181.416 117.36C181.603 117.52 181.696 117.773 181.696 118.12V123.26C181.696 124.047 181.856 124.627 182.176 125C182.496 125.373 183.003 125.56 183.696 125.56C184.456 125.56 185.07 125.307 185.536 124.8C186.016 124.28 186.256 123.6 186.256 122.76V118.12C186.256 117.773 186.343 117.52 186.516 117.36C186.69 117.187 186.943 117.1 187.276 117.1C187.596 117.1 187.843 117.187 188.016 117.36C188.19 117.52 188.276 117.773 188.276 118.12V126.12C188.276 126.8 187.95 127.14 187.296 127.14C186.99 127.14 186.75 127.053 186.576 126.88C186.403 126.693 186.316 126.44 186.316 126.12V124.42L186.576 124.86C186.31 125.607 185.883 126.18 185.296 126.58C184.71 126.98 184.016 127.18 183.216 127.18ZM195.283 127.18C194.483 127.18 193.81 127.04 193.263 126.76C192.716 126.48 192.31 126.067 192.043 125.52C191.776 124.973 191.643 124.307 191.643 123.52V118.8H190.443C190.176 118.8 189.97 118.733 189.823 118.6C189.676 118.453 189.603 118.26 189.603 118.02C189.603 117.767 189.676 117.573 189.823 117.44C189.97 117.307 190.176 117.24 190.443 117.24H191.643V115.18C191.643 114.847 191.73 114.593 191.903 114.42C192.09 114.247 192.343 114.16 192.663 114.16C192.983 114.16 193.23 114.247 193.403 114.42C193.576 114.593 193.663 114.847 193.663 115.18V117.24H196.003C196.27 117.24 196.476 117.307 196.623 117.44C196.77 117.573 196.843 117.767 196.843 118.02C196.843 118.26 196.77 118.453 196.623 118.6C196.476 118.733 196.27 118.8 196.003 118.8H193.663V123.36C193.663 124.067 193.81 124.6 194.103 124.96C194.41 125.32 194.903 125.5 195.583 125.5C195.823 125.5 196.03 125.48 196.203 125.44C196.39 125.387 196.543 125.353 196.663 125.34C196.81 125.34 196.93 125.393 197.023 125.5C197.116 125.593 197.163 125.78 197.163 126.06C197.163 126.26 197.123 126.447 197.043 126.62C196.976 126.793 196.85 126.907 196.663 126.96C196.503 127.013 196.283 127.06 196.003 127.1C195.736 127.153 195.496 127.18 195.283 127.18ZM201.908 127.18C201.121 127.18 200.461 127.033 199.928 126.74C199.408 126.447 199.014 126.013 198.748 125.44C198.494 124.853 198.368 124.12 198.368 123.24V118.12C198.368 117.773 198.454 117.52 198.628 117.36C198.801 117.187 199.048 117.1 199.368 117.1C199.688 117.1 199.934 117.187 200.108 117.36C200.294 117.52 200.388 117.773 200.388 118.12V123.26C200.388 124.047 200.548 124.627 200.868 125C201.188 125.373 201.694 125.56 202.388 125.56C203.148 125.56 203.761 125.307 204.228 124.8C204.708 124.28 204.948 123.6 204.948 122.76V118.12C204.948 117.773 205.034 117.52 205.208 117.36C205.381 117.187 205.634 117.1 205.968 117.1C206.288 117.1 206.534 117.187 206.708 117.36C206.881 117.52 206.968 117.773 206.968 118.12V126.12C206.968 126.8 206.641 127.14 205.988 127.14C205.681 127.14 205.441 127.053 205.268 126.88C205.094 126.693 205.008 126.44 205.008 126.12V124.42L205.268 124.86C205.001 125.607 204.574 126.18 203.988 126.58C203.401 126.98 202.708 127.18 201.908 127.18ZM215.055 127.18C214.201 127.18 213.461 126.967 212.835 126.54C212.208 126.1 211.788 125.52 211.575 124.8L211.795 124.44V126.12C211.795 126.44 211.708 126.693 211.535 126.88C211.361 127.053 211.121 127.14 210.815 127.14C210.495 127.14 210.248 127.053 210.075 126.88C209.901 126.693 209.815 126.44 209.815 126.12V113.78C209.815 113.447 209.901 113.193 210.075 113.02C210.248 112.847 210.495 112.76 210.815 112.76C211.135 112.76 211.381 112.847 211.555 113.02C211.741 113.193 211.835 113.447 211.835 113.78V119.38H211.595C211.808 118.673 212.228 118.113 212.855 117.7C213.481 117.273 214.215 117.06 215.055 117.06C215.935 117.06 216.695 117.267 217.335 117.68C217.975 118.093 218.468 118.673 218.815 119.42C219.175 120.167 219.355 121.067 219.355 122.12C219.355 123.147 219.175 124.047 218.815 124.82C218.468 125.58 217.968 126.167 217.315 126.58C216.675 126.98 215.921 127.18 215.055 127.18ZM214.555 125.62C215.115 125.62 215.601 125.487 216.015 125.22C216.428 124.953 216.748 124.56 216.975 124.04C217.201 123.52 217.315 122.88 217.315 122.12C217.315 120.973 217.061 120.107 216.555 119.52C216.061 118.933 215.395 118.64 214.555 118.64C214.008 118.64 213.521 118.773 213.095 119.04C212.681 119.293 212.361 119.68 212.135 120.2C211.908 120.72 211.795 121.36 211.795 122.12C211.795 123.253 212.048 124.12 212.555 124.72C213.061 125.32 213.728 125.62 214.555 125.62ZM226.211 127.18C225.144 127.18 224.224 126.98 223.451 126.58C222.691 126.167 222.098 125.587 221.671 124.84C221.258 124.08 221.051 123.18 221.051 122.14C221.051 121.127 221.258 120.24 221.671 119.48C222.084 118.72 222.651 118.127 223.371 117.7C224.091 117.273 224.911 117.06 225.831 117.06C226.511 117.06 227.118 117.173 227.651 117.4C228.184 117.613 228.638 117.933 229.011 118.36C229.398 118.773 229.684 119.28 229.871 119.88C230.071 120.48 230.171 121.153 230.171 121.9C230.171 122.127 230.104 122.3 229.971 122.42C229.838 122.527 229.638 122.58 229.371 122.58H222.651V121.34H228.811L228.471 121.62C228.471 120.953 228.371 120.387 228.171 119.92C227.984 119.453 227.698 119.1 227.311 118.86C226.938 118.607 226.471 118.48 225.911 118.48C225.284 118.48 224.751 118.627 224.311 118.92C223.884 119.213 223.558 119.62 223.331 120.14C223.104 120.66 222.991 121.267 222.991 121.96V122.08C222.991 123.253 223.264 124.14 223.811 124.74C224.371 125.327 225.178 125.62 226.231 125.62C226.631 125.62 227.051 125.567 227.491 125.46C227.944 125.353 228.371 125.173 228.771 124.92C228.998 124.787 229.198 124.727 229.371 124.74C229.558 124.753 229.704 124.813 229.811 124.92C229.931 125.027 230.004 125.16 230.031 125.32C230.058 125.48 230.031 125.647 229.951 125.82C229.871 125.98 229.731 126.127 229.531 126.26C229.078 126.567 228.551 126.8 227.951 126.96C227.351 127.107 226.771 127.18 226.211 127.18Z" fill="#475569"/>
</g>
</g>
<g clip-path="url(#clip4_7831_27776)">
<path d="M265.25 121.875V119.688C265.25 118.134 263.991 116.875 262.438 116.875H261.188C260.67 116.875 260.25 116.455 260.25 115.938V114.688C260.25 113.134 258.991 111.875 257.438 111.875H255.875M255.875 122.5H262.125M255.875 125H259M257.75 111.875H253.688C253.17 111.875 252.75 112.295 252.75 112.812V127.188C252.75 127.705 253.17 128.125 253.687 128.125H264.312C264.83 128.125 265.25 127.705 265.25 127.188V119.375C265.25 115.233 261.892 111.875 257.75 111.875Z" stroke="#475569" stroke-width="0.88819" stroke-linecap="round" stroke-linejoin="round"/>
<path d="M283.12 127.14C282.787 127.14 282.527 127.047 282.34 126.86C282.167 126.673 282.08 126.413 282.08 126.08V114.64H277.84C277.56 114.64 277.34 114.567 277.18 114.42C277.02 114.26 276.94 114.04 276.94 113.76C276.94 113.48 277.02 113.267 277.18 113.12C277.34 112.973 277.56 112.9 277.84 112.9H288.38C288.673 112.9 288.9 112.973 289.06 113.12C289.22 113.267 289.3 113.48 289.3 113.76C289.3 114.04 289.22 114.26 289.06 114.42C288.9 114.567 288.673 114.64 288.38 114.64H284.14V126.08C284.14 126.413 284.053 126.673 283.88 126.86C283.72 127.047 283.467 127.14 283.12 127.14ZM293.684 127.18C292.617 127.18 291.697 126.98 290.924 126.58C290.164 126.167 289.57 125.587 289.144 124.84C288.73 124.08 288.524 123.18 288.524 122.14C288.524 121.127 288.73 120.24 289.144 119.48C289.557 118.72 290.124 118.127 290.844 117.7C291.564 117.273 292.384 117.06 293.304 117.06C293.984 117.06 294.59 117.173 295.124 117.4C295.657 117.613 296.11 117.933 296.484 118.36C296.87 118.773 297.157 119.28 297.344 119.88C297.544 120.48 297.644 121.153 297.644 121.9C297.644 122.127 297.577 122.3 297.444 122.42C297.31 122.527 297.11 122.58 296.844 122.58H290.124V121.34H296.284L295.944 121.62C295.944 120.953 295.844 120.387 295.644 119.92C295.457 119.453 295.17 119.1 294.784 118.86C294.41 118.607 293.944 118.48 293.384 118.48C292.757 118.48 292.224 118.627 291.784 118.92C291.357 119.213 291.03 119.62 290.804 120.14C290.577 120.66 290.464 121.267 290.464 121.96V122.08C290.464 123.253 290.737 124.14 291.284 124.74C291.844 125.327 292.65 125.62 293.704 125.62C294.104 125.62 294.524 125.567 294.964 125.46C295.417 125.353 295.844 125.173 296.244 124.92C296.47 124.787 296.67 124.727 296.844 124.74C297.03 124.753 297.177 124.813 297.284 124.92C297.404 125.027 297.477 125.16 297.504 125.32C297.53 125.48 297.504 125.647 297.424 125.82C297.344 125.98 297.204 126.127 297.004 126.26C296.55 126.567 296.024 126.8 295.424 126.96C294.824 127.107 294.244 127.18 293.684 127.18ZM300.108 127.12C299.868 127.12 299.668 127.053 299.508 126.92C299.361 126.773 299.281 126.593 299.268 126.38C299.268 126.167 299.361 125.933 299.548 125.68L302.928 121.46V122.46L299.768 118.52C299.554 118.28 299.454 118.053 299.468 117.84C299.481 117.613 299.568 117.433 299.728 117.3C299.888 117.167 300.081 117.1 300.308 117.1C300.561 117.1 300.768 117.147 300.928 117.24C301.101 117.32 301.261 117.46 301.408 117.66L304.068 121.04H303.348L306.028 117.66C306.174 117.46 306.328 117.32 306.488 117.24C306.661 117.147 306.868 117.1 307.108 117.1C307.348 117.1 307.541 117.173 307.688 117.32C307.848 117.453 307.928 117.633 307.928 117.86C307.941 118.073 307.848 118.3 307.648 118.54L304.488 122.42V121.52L307.868 125.68C308.068 125.92 308.161 126.153 308.148 126.38C308.148 126.593 308.068 126.773 307.908 126.92C307.748 127.053 307.548 127.12 307.308 127.12C307.068 127.12 306.861 127.073 306.688 126.98C306.528 126.887 306.368 126.747 306.208 126.56L303.348 122.96H304.028L301.188 126.56C301.041 126.733 300.881 126.873 300.708 126.98C300.548 127.073 300.348 127.12 300.108 127.12ZM314.611 127.18C313.811 127.18 313.138 127.04 312.591 126.76C312.045 126.48 311.638 126.067 311.371 125.52C311.105 124.973 310.971 124.307 310.971 123.52V118.8H309.771C309.505 118.8 309.298 118.733 309.151 118.6C309.005 118.453 308.931 118.26 308.931 118.02C308.931 117.767 309.005 117.573 309.151 117.44C309.298 117.307 309.505 117.24 309.771 117.24H310.971V115.18C310.971 114.847 311.058 114.593 311.231 114.42C311.418 114.247 311.671 114.16 311.991 114.16C312.311 114.16 312.558 114.247 312.731 114.42C312.905 114.593 312.991 114.847 312.991 115.18V117.24H315.331C315.598 117.24 315.805 117.307 315.951 117.44C316.098 117.573 316.171 117.767 316.171 118.02C316.171 118.26 316.098 118.453 315.951 118.6C315.805 118.733 315.598 118.8 315.331 118.8H312.991V123.36C312.991 124.067 313.138 124.6 313.431 124.96C313.738 125.32 314.231 125.5 314.911 125.5C315.151 125.5 315.358 125.48 315.531 125.44C315.718 125.387 315.871 125.353 315.991 125.34C316.138 125.34 316.258 125.393 316.351 125.5C316.445 125.593 316.491 125.78 316.491 126.06C316.491 126.26 316.451 126.447 316.371 126.62C316.305 126.793 316.178 126.907 315.991 126.96C315.831 127.013 315.611 127.06 315.331 127.1C315.065 127.153 314.825 127.18 314.611 127.18Z" fill="#475569"/>
</g>
</g>
<defs>
<filter id="filter0_b_7831_27776" x="-26.015" y="-26.015" width="402.03" height="262.03" filterUnits="userSpaceOnUse" color-interpolation-filters="sRGB">
<feFlood flood-opacity="0" result="BackgroundImageFix"/>
<feGaussianBlur in="BackgroundImageFix" stdDeviation="13.0075"/>
<feComposite in2="SourceAlpha" operator="in" result="effect1_backgroundBlur_7831_27776"/>
<feBlend mode="normal" in="SourceGraphic" in2="effect1_backgroundBlur_7831_27776" result="shape"/>
</filter>
<linearGradient id="paint0_linear_7831_27776" x1="175" y1="0" x2="175" y2="143.922" gradientUnits="userSpaceOnUse">
<stop stop-color="white"/>
<stop offset="1" stop-color="white" stop-opacity="0.5"/>
</linearGradient>
<clipPath id="clip0_7831_27776">
<rect width="80" height="33" fill="white" transform="translate(32 104.5)"/>
</clipPath>
<clipPath id="clip1_7831_27776">
<rect width="75" height="31" fill="white" transform="translate(34.5 104.5)"/>
</clipPath>
<clipPath id="clip2_7831_27776">
<rect width="116" height="33" fill="white" transform="translate(122 104.5)"/>
</clipPath>
<clipPath id="clip3_7831_27776">
<rect width="103" height="38" fill="white" transform="translate(128.5 101)"/>
</clipPath>
<clipPath id="clip4_7831_27776">
<rect width="70" height="40" fill="white" transform="translate(248 101)"/>
</clipPath>
</defs>
</svg>
