<svg width="274" height="244" viewBox="0 0 274 244" fill="none" xmlns="http://www.w3.org/2000/svg">
<path d="M0 8C0 3.58173 3.58172 0 8 0H266C270.418 0 274 3.58172 274 8V236C274 240.418 270.418 244 266 244H8C3.58173 244 0 240.418 0 236V8Z" fill="white"/>
<g clip-path="url(#clip0_5782_10291)">
<path fill-rule="evenodd" clip-rule="evenodd" d="M156.29 21.5333C156.389 21.4227 156.467 21.2476 156.467 21.0297C156.467 20.8118 156.389 20.6368 156.29 20.5262C156.193 20.4174 156.092 20.3828 156.01 20.3828C155.929 20.3828 155.828 20.4174 155.731 20.5262C155.632 20.6368 155.554 20.8118 155.554 21.0297C155.554 21.2476 155.632 21.4227 155.731 21.5333C155.828 21.642 155.929 21.6767 156.01 21.6767C156.092 21.6767 156.193 21.642 156.29 21.5333ZM157.512 21.0297C157.512 21.7252 157.135 22.322 156.598 22.5782V25.6879H156.829C157.245 23.8368 158.913 22.4531 160.906 22.4531H163.291C164.104 22.4531 162.39 23.2193 163.778 23.6176C163.909 23.8117 166.222 25.4419 166.464 25.4938C167.618 25.7419 169.51 24.6939 170.436 24.5881C171.376 24.4808 171.35 25.1703 171.447 25.6879H172.917C173.493 25.6879 173.961 26.1514 173.961 26.7231V30.8637C173.961 31.4354 173.493 31.8988 172.917 31.8988H171.349C170.885 33.6847 169.249 35.0043 167.303 35.0043H160.906C158.959 35.0043 157.324 33.6847 156.86 31.8988H155.292C154.716 31.8988 154.248 31.4354 154.248 30.8637V26.7231C154.248 26.1514 154.716 25.6879 155.292 25.6879H155.554L155.554 22.6325C154.948 22.4159 154.509 21.7802 154.509 21.0297C154.509 20.1007 155.181 19.3476 156.01 19.3476C156.84 19.3476 157.512 20.1007 157.512 21.0297ZM163.778 23.6176H160.906C159.248 23.6176 157.903 24.95 157.903 26.5937V30.8637C157.903 32.5073 159.248 33.8397 160.906 33.8397H167.303C168.961 33.8397 170.306 32.5073 170.306 30.8637V26.5937C170.306 26.1663 170.371 25.235 169.783 24.9116C169.04 24.6916 167.822 25.2065 166.781 25.235C165.975 25.2571 165.262 25.0927 164.692 24.7822C164.044 24.6616 164.386 23.792 163.778 23.6176ZM171.48 30.7343H172.786V26.8525H171.48V30.7343ZM155.423 26.8525H156.728V30.7343H155.423V26.8525ZM160.754 28.211C160.724 28.2466 160.696 28.2849 160.672 28.3252C160.632 28.392 160.587 28.4589 160.535 28.5204C160.407 28.6737 160.245 28.7934 160.05 28.7934C159.776 28.7934 159.549 28.5708 159.611 28.3069C159.652 28.1328 159.715 27.9657 159.797 27.8106C159.827 27.7539 159.86 27.6987 159.896 27.6454C159.928 27.5967 159.963 27.5495 160 27.504C160.023 27.4756 160.046 27.4479 160.071 27.4209C160.401 27.057 160.85 26.8525 161.317 26.8525C161.784 26.8525 162.233 27.057 162.563 27.4209C162.588 27.4479 162.611 27.4756 162.634 27.504C162.671 27.5495 162.706 27.5967 162.738 27.6454C162.774 27.6987 162.807 27.7539 162.837 27.8106C162.919 27.9657 162.982 28.1328 163.023 28.3069C163.085 28.5708 162.858 28.7934 162.584 28.7934C162.389 28.7934 162.227 28.6737 162.099 28.5204C162.047 28.4589 162.002 28.392 161.962 28.3252C161.938 28.2849 161.91 28.2466 161.88 28.211C161.874 28.2046 161.869 28.1982 161.863 28.192C161.838 28.1646 161.812 28.1392 161.784 28.116C161.65 28.0043 161.487 27.9429 161.317 27.9429C161.147 27.9429 160.984 28.0043 160.85 28.116C160.822 28.1392 160.796 28.1646 160.771 28.192C160.765 28.1982 160.76 28.2046 160.754 28.211ZM165.121 30.783C165.191 30.7268 165.262 30.6719 165.335 30.6245C165.47 30.5375 165.612 30.4755 165.764 30.4755C166.108 30.4755 166.398 30.7653 166.245 31.0711C166.14 31.2812 165.98 31.4751 165.771 31.64C165.765 31.6452 165.758 31.6504 165.751 31.6556C165.747 31.6587 165.743 31.6618 165.739 31.6649C165.663 31.7228 165.581 31.776 165.496 31.8243C165.115 32.0394 164.65 32.1576 164.17 32.1576C163.689 32.1576 163.224 32.0394 162.844 31.8243C162.758 31.776 162.677 31.7228 162.6 31.6649C162.59 31.6567 162.579 31.6484 162.568 31.64C162.359 31.4751 162.199 31.2812 162.094 31.0711C161.941 30.7653 162.231 30.4755 162.576 30.4755C162.728 30.4755 162.87 30.5375 163.004 30.6245C163.078 30.6719 163.149 30.7268 163.219 30.783C163.231 30.7934 163.244 30.8038 163.257 30.8142C163.275 30.8293 163.293 30.8445 163.312 30.8595C163.369 30.9074 163.426 30.9544 163.482 30.9967C163.664 31.1349 163.912 31.2126 164.17 31.2126C164.428 31.2126 164.675 31.1349 164.857 30.9967C164.913 30.9544 164.97 30.9074 165.028 30.8596L165.058 30.8346L165.068 30.8266L165.083 30.8142C165.095 30.8038 165.108 30.7934 165.121 30.783ZM166.286 28.3252C166.31 28.2849 166.337 28.2466 166.368 28.211C166.373 28.2046 166.379 28.1982 166.385 28.192C166.409 28.1646 166.436 28.1392 166.464 28.116C166.597 28.0043 166.761 27.9429 166.931 27.9429C167.1 27.9429 167.264 28.0043 167.398 28.116C167.425 28.1392 167.452 28.1646 167.477 28.192C167.482 28.1982 167.488 28.2046 167.493 28.211C167.524 28.2466 167.551 28.2849 167.575 28.3252C167.615 28.392 167.661 28.4589 167.712 28.5204C167.84 28.6737 168.003 28.7934 168.198 28.7934C168.471 28.7934 168.699 28.5708 168.637 28.3069C168.596 28.1328 168.533 27.9657 168.45 27.8106C168.42 27.7539 168.387 27.6987 168.352 27.6454C168.319 27.5967 168.285 27.5495 168.248 27.504C168.225 27.4756 168.201 27.4479 168.177 27.4209C167.846 27.057 167.398 26.8525 166.931 26.8525C166.463 26.8525 166.015 27.057 165.684 27.4209C165.66 27.4479 165.636 27.4756 165.613 27.504C165.577 27.5495 165.542 27.5967 165.51 27.6454C165.474 27.6987 165.441 27.7539 165.411 27.8106C165.328 27.9657 165.265 28.1328 165.224 28.3069C165.162 28.5708 165.39 28.7934 165.663 28.7934C165.858 28.7934 166.021 28.6737 166.149 28.5204C166.2 28.4589 166.246 28.392 166.286 28.3252Z" fill="#6444F4"/>
<path fill-rule="evenodd" clip-rule="evenodd" d="M164.691 17.2342C164.391 17.2342 164.104 17.3524 163.891 17.5627C163.679 17.773 163.56 18.0582 163.56 18.3556V22.8413C163.56 23.1387 163.679 23.4239 163.891 23.6342C164.104 23.8445 164.391 23.9627 164.691 23.9627H165.823C166.135 23.9627 166.389 24.2137 166.389 24.5234V25.2152L168.36 24.0426C168.448 23.9903 168.549 23.9627 168.651 23.9627H171.48C171.78 23.9627 172.068 23.8445 172.28 23.6342C172.492 23.4239 172.611 23.1387 172.611 22.8413V18.3556C172.611 18.0582 172.492 17.773 172.28 17.5627C172.068 17.3524 171.78 17.2342 171.48 17.2342H164.691ZM163.091 16.7697C163.516 16.3491 164.091 16.1128 164.691 16.1128H171.48C172.08 16.1128 172.656 16.3491 173.08 16.7697C173.504 17.1903 173.743 17.7608 173.743 18.3556V22.8413C173.743 23.4361 173.504 24.0066 173.08 24.4272C172.656 24.8478 172.08 25.0841 171.48 25.0841H168.808L166.114 26.6863C165.939 26.7903 165.722 26.793 165.544 26.6934C165.367 26.5939 165.257 26.4075 165.257 26.2055V25.0841H164.691C164.091 25.0841 163.516 24.8478 163.091 24.4272C162.667 24.0066 162.429 23.4361 162.429 22.8413V18.3556C162.429 17.7608 162.667 17.1903 163.091 16.7697ZM165.257 19.477C165.257 19.1674 165.51 18.9163 165.823 18.9163H170.349C170.661 18.9163 170.914 19.1674 170.914 19.477C170.914 19.7867 170.661 20.0377 170.349 20.0377H165.823C165.51 20.0377 165.257 19.7867 165.257 19.477ZM165.257 21.7199C165.257 21.4102 165.51 21.1592 165.823 21.1592H169.217C169.53 21.1592 169.783 21.4102 169.783 21.7199C169.783 22.0295 169.53 22.2806 169.217 22.2806H165.823C165.51 22.2806 165.257 22.0295 165.257 21.7199Z" fill="#04FB9C"/>
<path d="M135.962 33.93C135.598 33.93 135.317 33.8307 135.119 33.6322C134.92 33.4255 134.821 33.136 134.821 32.7638V26.1262C134.821 25.7457 134.92 25.4562 135.119 25.2577C135.317 25.0592 135.598 24.96 135.962 24.96C136.334 24.96 136.616 25.0592 136.806 25.2577C137.004 25.4562 137.104 25.7457 137.104 26.1262V32.7638C137.104 33.136 137.009 33.4255 136.818 33.6322C136.628 33.8307 136.343 33.93 135.962 33.93Z" fill="#6444F4"/>
<path d="M139.467 33.93C139.104 33.93 138.818 33.8307 138.611 33.6322C138.413 33.4255 138.314 33.1318 138.314 32.7514V26.2503C138.314 25.8698 138.413 25.5803 138.611 25.3818C138.818 25.175 139.116 25.0716 139.505 25.0716H143.636C143.934 25.0716 144.157 25.1461 144.306 25.2949C144.455 25.4438 144.529 25.6589 144.529 25.9401C144.529 26.2296 144.455 26.4529 144.306 26.6101C144.157 26.7589 143.934 26.8334 143.636 26.8334H140.596V28.5951H143.363C143.653 28.5951 143.872 28.6696 144.021 28.8184C144.178 28.9673 144.256 29.1824 144.256 29.4636C144.256 29.7531 144.178 29.9723 144.021 30.1211C143.872 30.27 143.653 30.3445 143.363 30.3445H140.596V32.7514C140.596 33.5371 140.22 33.93 139.467 33.93Z" fill="#6444F4"/>
<path d="M148.412 33.93C148.048 33.93 147.767 33.8307 147.568 33.6322C147.37 33.4255 147.27 33.1318 147.27 32.7514V29.8709L144.888 26.4984C144.748 26.2999 144.686 26.0807 144.702 25.8408C144.727 25.5927 144.826 25.3859 145 25.2205C145.182 25.0468 145.438 24.96 145.769 24.96C146.001 24.96 146.212 25.0179 146.402 25.1337C146.592 25.2412 146.77 25.4273 146.936 25.692L148.412 27.9726L149.963 25.6795C150.136 25.4149 150.314 25.2288 150.496 25.1212C150.678 25.0137 150.893 24.96 151.141 24.96C151.456 24.96 151.7 25.0385 151.873 25.1957C152.047 25.3528 152.138 25.5513 152.146 25.7912C152.163 26.0311 152.088 26.2751 151.923 26.5232L149.553 29.9426V32.7514C149.553 33.5371 149.173 33.93 148.412 33.93Z" fill="#6444F4"/>
<path d="M101.198 33.93C100.834 33.93 100.553 33.8307 100.354 33.6322C100.156 33.4255 100.057 33.136 100.057 32.7638V26.1262C100.057 25.7457 100.156 25.4562 100.354 25.2577C100.553 25.0592 100.834 24.96 101.198 24.96C101.57 24.96 101.851 25.0592 102.042 25.2577C102.24 25.4562 102.339 25.7457 102.339 26.1262V28.4462H105.95V26.1262C105.95 25.7457 106.045 25.4562 106.235 25.2577C106.434 25.0592 106.719 24.96 107.091 24.96C107.455 24.96 107.732 25.0592 107.922 25.2577C108.121 25.4562 108.22 25.7457 108.22 26.1262V32.7638C108.22 33.136 108.121 33.4255 107.922 33.6322C107.732 33.8307 107.455 33.93 107.091 33.93C106.719 33.93 106.434 33.8307 106.235 33.6322C106.045 33.4255 105.95 33.136 105.95 32.7638V30.3197H102.339V32.7638C102.339 33.136 102.244 33.4255 102.054 33.6322C101.864 33.8307 101.579 33.93 101.198 33.93Z" fill="#6444F4"/>
<path d="M110.629 33.8183C110.24 33.8183 109.942 33.7191 109.736 33.5206C109.537 33.3138 109.438 33.0202 109.438 32.6397V26.2503C109.438 25.8698 109.537 25.5803 109.736 25.3818C109.942 25.175 110.24 25.0716 110.629 25.0716H114.835C115.132 25.0716 115.356 25.1461 115.505 25.2949C115.654 25.4438 115.728 25.6589 115.728 25.9401C115.728 26.2296 115.654 26.4529 115.505 26.6101C115.356 26.7589 115.132 26.8334 114.835 26.8334H111.621V28.4959H114.562C114.851 28.4959 115.07 28.5703 115.219 28.7192C115.376 28.8681 115.455 29.0873 115.455 29.3767C115.455 29.6662 115.376 29.8854 115.219 30.0343C115.07 30.1832 114.851 30.2576 114.562 30.2576H111.621V32.0566H114.835C115.132 32.0566 115.356 32.1352 115.505 32.2923C115.654 32.4412 115.728 32.6562 115.728 32.9375C115.728 33.227 115.654 33.4461 115.505 33.595C115.356 33.7439 115.132 33.8183 114.835 33.8183H110.629Z" fill="#6444F4"/>
<path d="M116.963 33.93C116.706 33.93 116.491 33.8721 116.317 33.7563C116.144 33.6322 116.036 33.4668 115.995 33.26C115.954 33.045 115.991 32.8051 116.107 32.5405L119.196 25.8905C119.345 25.5679 119.527 25.3322 119.742 25.1833C119.965 25.0344 120.217 24.96 120.499 24.96C120.78 24.96 121.024 25.0344 121.231 25.1833C121.446 25.3322 121.632 25.5679 121.789 25.8905L124.878 32.5405C125.01 32.8051 125.056 33.045 125.015 33.26C124.981 33.4751 124.878 33.6405 124.704 33.7563C124.539 33.8721 124.332 33.93 124.084 33.93C123.753 33.93 123.497 33.8556 123.315 33.7067C123.141 33.5578 122.984 33.3179 122.843 32.9871L122.442 32.0442H118.542L118.141 32.9871C117.992 33.3179 117.839 33.5578 117.682 33.7067C117.525 33.8556 117.285 33.93 116.963 33.93ZM120.474 27.4537L119.34 30.2816L119.284 30.2948H121.699L120.499 27.4537H120.474Z" fill="#6444F4"/>
<path fill-rule="evenodd" clip-rule="evenodd" d="M126.331 33.6322C126.529 33.8307 126.81 33.93 127.174 33.93C127.555 33.93 127.84 33.8307 128.03 33.6322C128.221 33.4255 128.316 33.1401 128.316 32.7762V30.5554H128.998C129.197 30.5554 129.37 30.5926 129.519 30.667C129.676 30.7332 129.804 30.8573 129.904 31.0392L131.033 33.1112C131.19 33.3924 136.805 43.3172 136.981 43.4418C136.992 43.4573 137.005 43.4723 137.018 43.4869C137.313 43.8678 137.852 43.9817 138.281 43.7341C138.749 43.4639 138.909 42.8653 138.639 42.3972L137.399 40.2491C135.781 37.2584 133.269 32.6158 133.179 32.4536L132.559 31.337C132.377 30.9896 132.149 30.7332 131.876 30.5678C131.747 30.4858 131.609 30.4231 131.462 30.3798C131.627 30.3333 131.782 30.276 131.926 30.208C132.389 29.9847 132.741 29.6704 132.981 29.2651C133.229 28.8515 133.353 28.3677 133.353 27.8135C133.353 26.9533 133.08 26.2833 132.534 25.8036C131.996 25.3156 131.231 25.0716 130.239 25.0716H127.187C126.823 25.0716 126.537 25.1709 126.331 25.3694C126.132 25.5679 126.033 25.8532 126.033 26.2254V32.7762C126.033 33.1401 126.132 33.4255 126.331 33.6322ZM129.829 28.9425H128.316V26.821H129.829C130.268 26.821 130.603 26.9119 130.834 27.0939C131.066 27.2676 131.182 27.5281 131.182 27.8755C131.182 28.2395 131.066 28.5083 130.834 28.682C130.603 28.8557 130.268 28.9425 129.829 28.9425Z" fill="#04FB9C"/>
</g>
<rect x="58.5591" y="54.3062" width="156.882" height="32.7496" rx="2.87479" fill="#FEFDFF"/>
<rect x="58.5591" y="54.3062" width="156.882" height="32.7496" rx="2.87479" stroke="#6444F4" stroke-width="0.821369"/>
<path d="M117.487 63.88L117.027 66.2834H117.878C118.015 66.2834 118.13 66.3294 118.222 66.4214C118.314 66.5133 118.36 66.6283 118.36 66.7663C118.36 66.8967 118.314 67.004 118.222 67.0883C118.13 67.1726 118.015 67.2148 117.878 67.2148H116.843L116.521 68.8707C116.498 68.978 116.444 69.0662 116.36 69.1352C116.283 69.2042 116.183 69.2386 116.061 69.2386C115.915 69.2386 115.792 69.1927 115.693 69.1007C115.601 69.0087 115.555 68.8937 115.555 68.7557C115.555 68.702 115.559 68.6599 115.566 68.6292L115.842 67.2148H114.37L114.048 68.8707C114.033 68.978 113.983 69.0662 113.899 69.1352C113.814 69.2042 113.719 69.2386 113.611 69.2386C113.466 69.2386 113.347 69.1927 113.255 69.1007C113.163 69.0087 113.117 68.8937 113.117 68.7557C113.117 68.702 113.121 68.6599 113.128 68.6292L113.404 67.2148H112.91C112.772 67.2148 112.657 67.1688 112.565 67.0768C112.473 66.9848 112.427 66.8698 112.427 66.7318C112.427 66.6015 112.473 66.4942 112.565 66.4099C112.657 66.3255 112.772 66.2834 112.91 66.2834H113.588L114.048 63.88H113.14C113.002 63.88 112.887 63.834 112.795 63.742C112.703 63.6501 112.657 63.5351 112.657 63.3971C112.657 63.2667 112.703 63.1594 112.795 63.0751C112.887 62.9908 113.002 62.9486 113.14 62.9486H114.232L114.543 61.3502C114.566 61.2429 114.616 61.1547 114.692 61.0857C114.777 61.0167 114.88 60.9822 115.003 60.9822C115.148 60.9822 115.267 61.0282 115.359 61.1202C115.451 61.2122 115.497 61.3311 115.497 61.4767C115.497 61.5304 115.493 61.5725 115.486 61.6032L115.221 62.9486H116.682L116.992 61.3502C117.007 61.2429 117.057 61.1547 117.142 61.0857C117.226 61.0167 117.329 60.9822 117.452 60.9822C117.598 60.9822 117.717 61.0282 117.809 61.1202C117.901 61.2122 117.947 61.3272 117.947 61.4652C117.947 61.5189 117.943 61.561 117.935 61.5917L117.671 62.9486H118.107C118.245 62.9486 118.36 62.9946 118.452 63.0866C118.544 63.1786 118.59 63.2936 118.59 63.4316C118.59 63.5619 118.544 63.6692 118.452 63.7535C118.36 63.8379 118.245 63.88 118.107 63.88H117.487ZM116.026 66.2834L116.498 63.88H115.037L114.566 66.2834H116.026ZM126.463 70.3081C126.547 70.4461 126.589 70.5802 126.589 70.7105C126.589 70.8869 126.52 71.0287 126.382 71.136C126.244 71.251 126.083 71.3085 125.899 71.3085C125.761 71.3085 125.631 71.274 125.508 71.205C125.386 71.1437 125.286 71.0479 125.209 70.9175L124.531 69.8021C124.424 69.6258 124.282 69.4955 124.106 69.4111C123.937 69.3268 123.715 69.2846 123.439 69.2846C122.649 69.2846 121.963 69.116 121.38 68.7787C120.805 68.4414 120.361 67.9584 120.046 67.3298C119.732 66.7012 119.575 65.9652 119.575 65.1219C119.575 64.2787 119.732 63.5466 120.046 62.9256C120.361 62.297 120.805 61.814 121.38 61.4767C121.963 61.1394 122.649 60.9707 123.439 60.9707C124.221 60.9707 124.899 61.1394 125.474 61.4767C126.057 61.814 126.505 62.297 126.819 62.9256C127.134 63.5466 127.291 64.2787 127.291 65.1219C127.291 66.0342 127.107 66.82 126.739 67.4793C126.379 68.1309 125.861 68.6062 125.186 68.9052C125.539 69.0278 125.83 69.2808 126.06 69.6641L126.463 70.3081ZM123.439 68.1002C124.182 68.1002 124.761 67.8434 125.175 67.3298C125.597 66.8162 125.807 66.0802 125.807 65.1219C125.807 64.1637 125.597 63.4316 125.175 62.9256C124.761 62.412 124.182 62.1552 123.439 62.1552C122.687 62.1552 122.101 62.412 121.679 62.9256C121.265 63.4316 121.058 64.1637 121.058 65.1219C121.058 66.0802 121.265 66.8162 121.679 67.3298C122.101 67.8434 122.687 68.1002 123.439 68.1002ZM130.963 69.2386C130.733 69.2386 130.549 69.1735 130.411 69.0432C130.28 68.9052 130.215 68.725 130.215 68.5027V62.2931H128.122C127.662 62.2931 127.432 62.09 127.432 61.6837C127.432 61.2774 127.662 61.0742 128.122 61.0742H133.791C134.251 61.0742 134.481 61.2774 134.481 61.6837C134.481 62.09 134.251 62.2931 133.791 62.2931H131.699V68.5027C131.699 68.725 131.63 68.9052 131.492 69.0432C131.361 69.1735 131.185 69.2386 130.963 69.2386ZM139.176 65.0185C139.659 65.1411 140.027 65.3749 140.28 65.7199C140.541 66.0572 140.671 66.4788 140.671 66.9848C140.671 67.6824 140.414 68.2382 139.901 68.6522C139.387 69.0662 138.693 69.2731 137.819 69.2731C137.321 69.2731 136.842 69.1965 136.382 69.0432C135.922 68.8898 135.531 68.6752 135.209 68.3992C135.033 68.2459 134.945 68.0657 134.945 67.8587C134.945 67.6901 134.991 67.5483 135.083 67.4333C135.182 67.3106 135.297 67.2493 135.427 67.2493C135.504 67.2493 135.573 67.2646 135.634 67.2953C135.696 67.3183 135.78 67.3605 135.887 67.4218C136.209 67.6364 136.516 67.8013 136.807 67.9162C137.099 68.0312 137.417 68.0887 137.762 68.0887C138.268 68.0887 138.643 67.9891 138.889 67.7898C139.134 67.5828 139.257 67.2723 139.257 66.8583C139.257 66.452 139.126 66.153 138.866 65.9614C138.613 65.7621 138.218 65.6624 137.681 65.6624H137.026C136.85 65.6624 136.712 65.6049 136.612 65.4899C136.52 65.3673 136.474 65.2293 136.474 65.0759C136.474 64.915 136.52 64.777 136.612 64.662C136.712 64.547 136.85 64.4895 137.026 64.4895H137.486C138.536 64.4895 139.061 64.0947 139.061 63.3051C139.061 62.9371 138.95 62.6535 138.728 62.4541C138.505 62.2548 138.199 62.1552 137.808 62.1552C137.248 62.1552 136.65 62.3775 136.014 62.8221C135.907 62.8834 135.822 62.9294 135.761 62.9601C135.7 62.9831 135.631 62.9946 135.554 62.9946C135.424 62.9946 135.309 62.9371 135.209 62.8221C135.117 62.6995 135.071 62.5538 135.071 62.3851C135.071 62.2702 135.09 62.1743 135.129 62.0977C135.175 62.0133 135.244 61.929 135.335 61.8447C135.657 61.5764 136.041 61.3655 136.485 61.2122C136.938 61.0512 137.398 60.9707 137.865 60.9707C138.663 60.9707 139.295 61.1662 139.763 61.5572C140.238 61.9482 140.476 62.4695 140.476 63.1211C140.468 63.5657 140.349 63.9567 140.119 64.294C139.897 64.6236 139.583 64.8651 139.176 65.0185ZM147.141 67.9852C147.601 67.9852 147.831 68.1807 147.831 68.5717C147.831 68.978 147.601 69.1812 147.141 69.1812H143.254C142.786 69.1812 142.552 68.978 142.552 68.5717C142.552 68.1807 142.786 67.9852 143.254 67.9852H144.45V62.7416L143.346 63.4201C143.239 63.4814 143.143 63.5121 143.058 63.5121C142.897 63.5121 142.759 63.4431 142.644 63.3051C142.537 63.1671 142.483 63.0138 142.483 62.8451C142.483 62.6228 142.583 62.4503 142.782 62.3276L144.565 61.2237C144.795 61.0857 145.013 61.0167 145.22 61.0167C145.435 61.0167 145.607 61.0819 145.738 61.2122C145.868 61.3426 145.933 61.5227 145.933 61.7527V67.9852H147.141ZM154.312 66.4443C154.542 66.4443 154.714 66.4942 154.829 66.5938C154.944 66.6935 155.002 66.8353 155.002 67.0193C155.002 67.4026 154.772 67.5943 154.312 67.5943H153.725V68.5027C153.725 68.7404 153.656 68.9243 153.518 69.0547C153.388 69.185 153.215 69.2501 153.001 69.2501C152.786 69.2501 152.61 69.185 152.472 69.0547C152.341 68.9243 152.276 68.7404 152.276 68.5027V67.5943H149.264C149.057 67.5943 148.896 67.5368 148.781 67.4218C148.666 67.2991 148.608 67.1496 148.608 66.9733C148.608 66.7893 148.669 66.613 148.792 66.4443L152.345 61.3387C152.422 61.2314 152.518 61.1509 152.633 61.0972C152.748 61.0359 152.867 61.0052 152.989 61.0052C153.189 61.0052 153.361 61.0704 153.507 61.2007C153.652 61.3311 153.725 61.515 153.725 61.7527V66.4443H154.312ZM150.137 66.4443H152.276V63.3511L150.137 66.4443ZM156.756 69.1812C156.534 69.1812 156.358 69.1198 156.228 68.9972C156.105 68.8745 156.044 68.702 156.044 68.4797V61.7757C156.044 61.5534 156.105 61.3809 156.228 61.2582C156.358 61.1356 156.534 61.0742 156.756 61.0742H160.908C161.13 61.0742 161.302 61.1241 161.425 61.2237C161.548 61.3234 161.609 61.4652 161.609 61.6492C161.609 61.8408 161.548 61.9903 161.425 62.0977C161.302 62.1973 161.13 62.2472 160.908 62.2472H157.492V64.478H160.678C160.9 64.478 161.072 64.5278 161.195 64.6275C161.318 64.7271 161.379 64.8728 161.379 65.0644C161.379 65.2484 161.318 65.3903 161.195 65.4899C161.072 65.5896 160.9 65.6394 160.678 65.6394H157.492V68.0082H160.908C161.13 68.0082 161.302 68.0619 161.425 68.1692C161.548 68.2689 161.609 68.4145 161.609 68.6062C161.609 68.7902 161.548 68.932 161.425 69.0317C161.302 69.1313 161.13 69.1812 160.908 69.1812H156.756Z" fill="#6444F4"/>
<path d="M111.052 81.2206C110.951 81.225 110.873 81.1987 110.816 81.1417C110.759 81.0848 110.73 81.0125 110.73 80.9249C110.73 80.8592 110.752 80.8 110.796 80.7475C110.835 80.6949 110.894 80.6664 110.973 80.662L111.177 80.6489C111.387 80.6314 111.547 80.5613 111.657 80.4386C111.766 80.3116 111.821 80.1364 111.821 79.913V76.8443C111.821 76.7304 111.849 76.645 111.906 76.5881C111.963 76.5311 112.047 76.5026 112.156 76.5026C112.266 76.5026 112.349 76.5311 112.406 76.5881C112.467 76.645 112.498 76.7304 112.498 76.8443V79.913C112.498 80.1758 112.45 80.4014 112.353 80.5898C112.261 80.7738 112.125 80.9183 111.946 81.0234C111.766 81.1286 111.543 81.1899 111.276 81.2074L111.052 81.2206ZM114.895 81.2403C114.571 81.2403 114.291 81.1724 114.054 81.0366C113.822 80.9008 113.64 80.708 113.509 80.4583C113.378 80.2087 113.312 79.9151 113.312 79.5778C113.312 79.3194 113.349 79.0894 113.424 78.8879C113.498 78.6864 113.603 78.5133 113.739 78.3688C113.879 78.2198 114.046 78.1081 114.238 78.0337C114.436 77.9548 114.655 77.9154 114.895 77.9154C115.215 77.9154 115.491 77.9833 115.723 78.1191C115.96 78.2549 116.144 78.4476 116.275 78.6973C116.407 78.9426 116.473 79.2361 116.473 79.5778C116.473 79.8319 116.435 80.0619 116.361 80.2678C116.286 80.4737 116.179 80.6489 116.039 80.7935C115.903 80.938 115.737 81.0497 115.539 81.1286C115.347 81.2031 115.132 81.2403 114.895 81.2403ZM114.895 80.7278C115.075 80.7278 115.233 80.684 115.369 80.5963C115.504 80.5087 115.61 80.3795 115.684 80.2087C115.763 80.0378 115.802 79.8275 115.802 79.5778C115.802 79.2011 115.719 78.9164 115.553 78.7236C115.386 78.5309 115.167 78.4345 114.895 78.4345C114.712 78.4345 114.552 78.4783 114.416 78.5659C114.28 78.6491 114.173 78.7762 114.094 78.947C114.019 79.1179 113.982 79.3281 113.982 79.5778C113.982 79.9502 114.065 80.2349 114.232 80.4321C114.398 80.6292 114.62 80.7278 114.895 80.7278ZM117.546 81.2206C117.441 81.2206 117.36 81.1899 117.303 81.1286C117.246 81.0629 117.218 80.9731 117.218 80.8592V78.2965C117.218 78.1826 117.246 78.095 117.303 78.0337C117.36 77.9723 117.441 77.9417 117.546 77.9417C117.652 77.9417 117.733 77.9723 117.79 78.0337C117.851 78.095 117.882 78.1826 117.882 78.2965V80.8592C117.882 80.9731 117.853 81.0629 117.796 81.1286C117.739 81.1899 117.656 81.2206 117.546 81.2206ZM117.546 77.2583C117.415 77.2583 117.312 77.2254 117.238 77.1597C117.167 77.094 117.132 77.002 117.132 76.8837C117.132 76.7611 117.167 76.6691 117.238 76.6078C117.312 76.5421 117.415 76.5092 117.546 76.5092C117.678 76.5092 117.779 76.5421 117.849 76.6078C117.923 76.6691 117.96 76.7611 117.96 76.8837C117.96 77.002 117.923 77.094 117.849 77.1597C117.779 77.2254 117.678 77.2583 117.546 77.2583ZM119.144 81.2271C119.039 81.2271 118.958 81.1987 118.901 81.1417C118.844 81.0804 118.816 80.9972 118.816 80.892V78.2636C118.816 78.1541 118.844 78.0709 118.901 78.014C118.958 77.957 119.037 77.9285 119.138 77.9285C119.243 77.9285 119.322 77.957 119.374 78.014C119.431 78.0709 119.46 78.1541 119.46 78.2636V78.7762L119.387 78.6579C119.484 78.4126 119.635 78.2286 119.841 78.1059C120.047 77.9789 120.283 77.9154 120.55 77.9154C120.804 77.9154 121.015 77.9636 121.181 78.0599C121.352 78.1519 121.479 78.2943 121.562 78.4871C121.646 78.6754 121.687 78.9142 121.687 79.2033V80.892C121.687 80.9972 121.659 81.0804 121.602 81.1417C121.545 81.1987 121.464 81.2271 121.359 81.2271C121.249 81.2271 121.166 81.1987 121.109 81.1417C121.052 81.0804 121.024 80.9972 121.024 80.892V79.2427C121.024 78.9667 120.969 78.7652 120.859 78.6382C120.754 78.5112 120.588 78.4476 120.36 78.4476C120.093 78.4476 119.878 78.5309 119.716 78.6973C119.558 78.8638 119.479 79.0872 119.479 79.3676V80.892C119.479 81.1154 119.368 81.2271 119.144 81.2271ZM125.359 81.2403C125.136 81.2403 124.934 81.1965 124.755 81.1089C124.58 81.0213 124.442 80.903 124.341 80.754C124.24 80.6051 124.19 80.4364 124.19 80.2481C124.19 80.0115 124.249 79.8253 124.367 79.6895C124.49 79.5494 124.689 79.4508 124.965 79.3939C125.245 79.3325 125.622 79.3019 126.095 79.3019H126.404V79.7093H126.102C125.786 79.7093 125.537 79.7246 125.353 79.7553C125.169 79.7859 125.037 79.8385 124.958 79.913C124.884 79.983 124.847 80.0816 124.847 80.2087C124.847 80.3751 124.904 80.5109 125.018 80.6161C125.132 80.7168 125.289 80.7672 125.491 80.7672C125.653 80.7672 125.795 80.7299 125.918 80.6555C126.041 80.5766 126.137 80.4715 126.207 80.3401C126.281 80.2087 126.319 80.0575 126.319 79.8867V79.131C126.319 78.8813 126.266 78.7017 126.161 78.5922C126.056 78.4827 125.883 78.4279 125.642 78.4279C125.502 78.4279 125.355 78.4454 125.202 78.4805C125.053 78.5155 124.897 78.5747 124.735 78.6579C124.661 78.693 124.597 78.7039 124.545 78.6908C124.492 78.6776 124.45 78.6491 124.42 78.6053C124.389 78.5572 124.371 78.5068 124.367 78.4542C124.367 78.3973 124.38 78.3425 124.407 78.2899C124.437 78.2374 124.488 78.1979 124.558 78.1717C124.75 78.0797 124.941 78.014 125.129 77.9745C125.318 77.9351 125.495 77.9154 125.662 77.9154C125.955 77.9154 126.196 77.9614 126.384 78.0534C126.577 78.1454 126.72 78.2856 126.812 78.4739C126.903 78.6623 126.949 78.9054 126.949 79.2033V80.892C126.949 80.9972 126.923 81.0804 126.871 81.1417C126.818 81.1987 126.741 81.2271 126.641 81.2271C126.544 81.2271 126.468 81.1987 126.411 81.1417C126.354 81.0804 126.325 80.9972 126.325 80.892V80.4649H126.384C126.349 80.627 126.284 80.7672 126.187 80.8855C126.095 80.9994 125.979 81.087 125.839 81.1483C125.699 81.2096 125.539 81.2403 125.359 81.2403ZM129.23 81.2403C128.967 81.2403 128.746 81.1943 128.567 81.1023C128.387 81.0103 128.253 80.8745 128.166 80.6949C128.078 80.5153 128.034 80.2963 128.034 80.0378V78.4871H127.64C127.553 78.4871 127.485 78.4652 127.436 78.4214C127.388 78.3732 127.364 78.3096 127.364 78.2308C127.364 78.1476 127.388 78.084 127.436 78.0402C127.485 77.9964 127.553 77.9745 127.64 77.9745H128.034V77.2977C128.034 77.1882 128.063 77.105 128.12 77.048C128.181 76.9911 128.264 76.9626 128.37 76.9626C128.475 76.9626 128.556 76.9911 128.613 77.048C128.67 77.105 128.698 77.1882 128.698 77.2977V77.9745H129.467C129.555 77.9745 129.622 77.9964 129.671 78.0402C129.719 78.084 129.743 78.1476 129.743 78.2308C129.743 78.3096 129.719 78.3732 129.671 78.4214C129.622 78.4652 129.555 78.4871 129.467 78.4871H128.698V79.9852C128.698 80.2174 128.746 80.3926 128.843 80.5109C128.943 80.6292 129.105 80.6883 129.329 80.6883C129.408 80.6883 129.476 80.6818 129.533 80.6686C129.594 80.6511 129.644 80.6401 129.684 80.6358C129.732 80.6358 129.771 80.6533 129.802 80.6883C129.833 80.719 129.848 80.7803 129.848 80.8723C129.848 80.938 129.835 80.9994 129.809 81.0563C129.787 81.1133 129.745 81.1505 129.684 81.168C129.631 81.1855 129.559 81.2009 129.467 81.214C129.379 81.2315 129.3 81.2403 129.23 81.2403ZM132.325 81.2271C132.22 81.2271 132.138 81.1987 132.082 81.1417C132.025 81.0804 131.996 80.9972 131.996 80.892V76.8378C131.996 76.7282 132.025 76.645 132.082 76.5881C132.138 76.5311 132.22 76.5026 132.325 76.5026C132.43 76.5026 132.511 76.5311 132.568 76.5881C132.629 76.645 132.66 76.7282 132.66 76.8378V78.6579H132.568C132.664 78.4126 132.815 78.2286 133.021 78.1059C133.227 77.9789 133.464 77.9154 133.731 77.9154C133.985 77.9154 134.195 77.9636 134.362 78.0599C134.532 78.1519 134.66 78.2943 134.743 78.4871C134.826 78.6754 134.868 78.9142 134.868 79.2033V80.892C134.868 80.9972 134.839 81.0804 134.782 81.1417C134.725 81.1987 134.644 81.2271 134.539 81.2271C134.43 81.2271 134.346 81.1987 134.289 81.1417C134.232 81.0804 134.204 80.9972 134.204 80.892V79.2427C134.204 78.9667 134.149 78.7652 134.04 78.6382C133.935 78.5112 133.768 78.4476 133.54 78.4476C133.273 78.4476 133.058 78.5309 132.896 78.6973C132.739 78.8638 132.66 79.0872 132.66 79.3676V80.892C132.66 81.1154 132.548 81.2271 132.325 81.2271ZM137.287 81.2403C136.936 81.2403 136.634 81.1746 136.38 81.0432C136.13 80.9074 135.935 80.7168 135.795 80.4715C135.659 80.2218 135.592 79.9261 135.592 79.5844C135.592 79.2515 135.659 78.9602 135.795 78.7105C135.931 78.4608 136.117 78.2658 136.354 78.1257C136.59 77.9855 136.86 77.9154 137.162 77.9154C137.385 77.9154 137.585 77.9526 137.76 78.0271C137.935 78.0972 138.084 78.2023 138.207 78.3425C138.334 78.4783 138.428 78.6448 138.489 78.8419C138.555 79.039 138.588 79.2602 138.588 79.5056C138.588 79.58 138.566 79.637 138.522 79.6764C138.478 79.7114 138.413 79.729 138.325 79.729H136.117V79.3216H138.141L138.029 79.4136C138.029 79.1945 137.997 79.0084 137.931 78.855C137.869 78.7017 137.775 78.5856 137.648 78.5068C137.526 78.4235 137.372 78.3819 137.188 78.3819C136.982 78.3819 136.807 78.4301 136.663 78.5265C136.522 78.6229 136.415 78.7565 136.341 78.9273C136.266 79.0982 136.229 79.2975 136.229 79.5253V79.5647C136.229 79.9502 136.319 80.2415 136.498 80.4386C136.682 80.6314 136.947 80.7278 137.293 80.7278C137.425 80.7278 137.563 80.7102 137.707 80.6752C137.856 80.6401 137.997 80.581 138.128 80.4978C138.202 80.454 138.268 80.4343 138.325 80.4386C138.386 80.443 138.435 80.4627 138.47 80.4978C138.509 80.5328 138.533 80.5766 138.542 80.6292C138.551 80.6818 138.542 80.7365 138.516 80.7935C138.489 80.846 138.443 80.8942 138.378 80.938C138.229 81.0388 138.056 81.1154 137.859 81.168C137.661 81.2162 137.471 81.2403 137.287 81.2403ZM140.336 81.2403C140.113 81.2403 139.912 81.1965 139.732 81.1089C139.557 81.0213 139.419 80.903 139.318 80.754C139.217 80.6051 139.167 80.4364 139.167 80.2481C139.167 80.0115 139.226 79.8253 139.344 79.6895C139.467 79.5494 139.666 79.4508 139.942 79.3939C140.223 79.3325 140.599 79.3019 141.072 79.3019H141.381V79.7093H141.079C140.764 79.7093 140.514 79.7246 140.33 79.7553C140.146 79.7859 140.015 79.8385 139.936 79.913C139.861 79.983 139.824 80.0816 139.824 80.2087C139.824 80.3751 139.881 80.5109 139.995 80.6161C140.109 80.7168 140.266 80.7672 140.468 80.7672C140.63 80.7672 140.772 80.7299 140.895 80.6555C141.018 80.5766 141.114 80.4715 141.184 80.3401C141.259 80.2087 141.296 80.0575 141.296 79.8867V79.131C141.296 78.8813 141.243 78.7017 141.138 78.5922C141.033 78.4827 140.86 78.4279 140.619 78.4279C140.479 78.4279 140.332 78.4454 140.179 78.4805C140.03 78.5155 139.874 78.5747 139.712 78.6579C139.638 78.693 139.574 78.7039 139.522 78.6908C139.469 78.6776 139.427 78.6491 139.397 78.6053C139.366 78.5572 139.349 78.5068 139.344 78.4542C139.344 78.3973 139.357 78.3425 139.384 78.2899C139.414 78.2374 139.465 78.1979 139.535 78.1717C139.728 78.0797 139.918 78.014 140.106 77.9745C140.295 77.9351 140.472 77.9154 140.639 77.9154C140.932 77.9154 141.173 77.9614 141.362 78.0534C141.554 78.1454 141.697 78.2856 141.789 78.4739C141.881 78.6623 141.927 78.9054 141.927 79.2033V80.892C141.927 80.9972 141.9 81.0804 141.848 81.1417C141.795 81.1987 141.719 81.2271 141.618 81.2271C141.521 81.2271 141.445 81.1987 141.388 81.1417C141.331 81.0804 141.302 80.9972 141.302 80.892V80.4649H141.362C141.327 80.627 141.261 80.7672 141.164 80.8855C141.072 80.9994 140.956 81.087 140.816 81.1483C140.676 81.2096 140.516 81.2403 140.336 81.2403ZM143.176 81.2271C143.066 81.2271 142.983 81.1987 142.926 81.1417C142.869 81.0804 142.841 80.9972 142.841 80.892V78.2636C142.841 78.1541 142.869 78.0709 142.926 78.014C142.983 77.957 143.062 77.9285 143.163 77.9285C143.268 77.9285 143.347 77.957 143.399 78.014C143.456 78.0709 143.485 78.1541 143.485 78.2636V78.7433H143.419C143.489 78.4805 143.618 78.2812 143.807 78.1454C143.995 78.0096 144.236 77.9307 144.529 77.9088C144.608 77.9044 144.67 77.9241 144.713 77.968C144.762 78.0118 144.788 78.0797 144.792 78.1717C144.801 78.2636 144.781 78.3381 144.733 78.3951C144.685 78.4476 144.611 78.4783 144.51 78.4871L144.385 78.5002C144.1 78.5265 143.883 78.6163 143.734 78.7696C143.585 78.9229 143.511 79.1332 143.511 79.4004V80.892C143.511 80.9972 143.482 81.0804 143.426 81.1417C143.373 81.1987 143.29 81.2271 143.176 81.2271ZM145.621 81.2206C145.515 81.2206 145.434 81.1899 145.377 81.1286C145.32 81.0629 145.292 80.9731 145.292 80.8592V78.2965C145.292 78.1826 145.32 78.095 145.377 78.0337C145.434 77.9723 145.515 77.9417 145.621 77.9417C145.726 77.9417 145.807 77.9723 145.864 78.0337C145.925 78.095 145.956 78.1826 145.956 78.2965V80.8592C145.956 80.9731 145.927 81.0629 145.87 81.1286C145.813 81.1899 145.73 81.2206 145.621 81.2206ZM145.621 77.2583C145.489 77.2583 145.386 77.2254 145.312 77.1597C145.242 77.094 145.207 77.002 145.207 76.8837C145.207 76.7611 145.242 76.6691 145.312 76.6078C145.386 76.5421 145.489 76.5092 145.621 76.5092C145.752 76.5092 145.853 76.5421 145.923 76.6078C145.997 76.6691 146.035 76.7611 146.035 76.8837C146.035 77.002 145.997 77.094 145.923 77.1597C145.853 77.2254 145.752 77.2583 145.621 77.2583ZM147.416 81.2271C147.31 81.2271 147.227 81.1987 147.166 81.1417C147.109 81.0804 147.08 80.9972 147.08 80.892V78.4871H146.712C146.629 78.4871 146.563 78.4652 146.515 78.4214C146.467 78.3732 146.443 78.3096 146.443 78.2308C146.443 78.1476 146.467 78.084 146.515 78.0402C146.563 77.9964 146.629 77.9745 146.712 77.9745H147.271L147.08 78.1519V77.9154C147.08 77.4817 147.188 77.1553 147.402 76.9363C147.617 76.7129 147.93 76.5815 148.342 76.5421L148.546 76.5289C148.62 76.5202 148.679 76.5311 148.723 76.5618C148.767 76.5924 148.795 76.6319 148.809 76.68C148.822 76.7282 148.822 76.7786 148.809 76.8312C148.8 76.8794 148.778 76.9232 148.743 76.9626C148.708 77.002 148.664 77.0239 148.611 77.0283L148.487 77.0349C148.228 77.0568 148.04 77.1313 147.921 77.2583C147.803 77.381 147.744 77.5693 147.744 77.8234V78.0797L147.652 77.9745H148.381C148.473 77.9745 148.541 77.9964 148.585 78.0402C148.633 78.084 148.657 78.1476 148.657 78.2308C148.657 78.3096 148.633 78.3732 148.585 78.4214C148.541 78.4652 148.473 78.4871 148.381 78.4871H147.744V80.892C147.744 81.1154 147.635 81.2271 147.416 81.2271ZM149.866 82.4099C149.787 82.4099 149.721 82.388 149.669 82.3442C149.62 82.3048 149.592 82.25 149.583 82.1799C149.579 82.1142 149.592 82.0419 149.623 81.9631L150.069 80.9577V81.2403L148.841 78.3819C148.81 78.3031 148.799 78.2286 148.808 78.1585C148.817 78.0884 148.849 78.0337 148.906 77.9942C148.963 77.9504 149.04 77.9285 149.136 77.9285C149.22 77.9285 149.285 77.9482 149.334 77.9877C149.382 78.0271 149.425 78.095 149.465 78.1914L150.457 80.6423H150.273L151.279 78.1914C151.318 78.0906 151.364 78.0227 151.416 77.9877C151.469 77.9482 151.541 77.9285 151.633 77.9285C151.712 77.9285 151.774 77.9504 151.817 77.9942C151.866 78.0337 151.894 78.0884 151.903 78.1585C151.916 78.2242 151.905 78.2965 151.87 78.3754L150.227 82.1537C150.183 82.2544 150.133 82.3223 150.076 82.3574C150.023 82.3924 149.953 82.4099 149.866 82.4099ZM152.525 81.2074C152.398 81.2074 152.295 81.168 152.216 81.0892C152.137 81.0103 152.098 80.9096 152.098 80.7869C152.098 80.6642 152.137 80.5657 152.216 80.4912C152.295 80.4124 152.398 80.3729 152.525 80.3729C152.652 80.3729 152.753 80.4124 152.827 80.4912C152.902 80.5657 152.939 80.6642 152.939 80.7869C152.939 80.9096 152.902 81.0103 152.827 81.0892C152.753 81.168 152.652 81.2074 152.525 81.2074ZM155.021 81.2403C154.696 81.2403 154.416 81.1724 154.18 81.0366C153.947 80.9008 153.766 80.708 153.634 80.4583C153.503 80.2087 153.437 79.9151 153.437 79.5778C153.437 79.3194 153.474 79.0894 153.549 78.8879C153.623 78.6864 153.728 78.5133 153.864 78.3688C154.004 78.2198 154.171 78.1081 154.364 78.0337C154.561 77.9548 154.78 77.9154 155.021 77.9154C155.34 77.9154 155.616 77.9833 155.849 78.1191C156.085 78.2549 156.269 78.4476 156.401 78.6973C156.532 78.9426 156.598 79.2361 156.598 79.5778C156.598 79.8319 156.56 80.0619 156.486 80.2678C156.412 80.4737 156.304 80.6489 156.164 80.7935C156.028 80.938 155.862 81.0497 155.665 81.1286C155.472 81.2031 155.257 81.2403 155.021 81.2403ZM155.021 80.7278C155.2 80.7278 155.358 80.684 155.494 80.5963C155.63 80.5087 155.735 80.3795 155.809 80.2087C155.888 80.0378 155.927 79.8275 155.927 79.5778C155.927 79.2011 155.844 78.9164 155.678 78.7236C155.511 78.5309 155.292 78.4345 155.021 78.4345C154.837 78.4345 154.677 78.4783 154.541 78.5659C154.405 78.6491 154.298 78.7762 154.219 78.947C154.145 79.1179 154.107 79.3281 154.107 79.5778C154.107 79.9502 154.191 80.2349 154.357 80.4321C154.523 80.6292 154.745 80.7278 155.021 80.7278ZM157.678 81.2271C157.569 81.2271 157.485 81.1987 157.428 81.1417C157.372 81.0804 157.343 80.9972 157.343 80.892V78.2636C157.343 78.1541 157.372 78.0709 157.428 78.014C157.485 77.957 157.564 77.9285 157.665 77.9285C157.77 77.9285 157.849 77.957 157.902 78.014C157.959 78.0709 157.987 78.1541 157.987 78.2636V78.7433H157.921C157.991 78.4805 158.121 78.2812 158.309 78.1454C158.497 78.0096 158.738 77.9307 159.032 77.9088C159.111 77.9044 159.172 77.9241 159.216 77.968C159.264 78.0118 159.29 78.0797 159.295 78.1717C159.303 78.2636 159.284 78.3381 159.235 78.3951C159.187 78.4476 159.113 78.4783 159.012 78.4871L158.887 78.5002C158.602 78.5265 158.386 78.6163 158.237 78.7696C158.088 78.9229 158.013 79.1332 158.013 79.4004V80.892C158.013 80.9972 157.985 81.0804 157.928 81.1417C157.875 81.1987 157.792 81.2271 157.678 81.2271ZM161.202 82.4231C160.965 82.4231 160.735 82.399 160.512 82.3508C160.293 82.3026 160.093 82.2237 159.914 82.1142C159.848 82.0792 159.804 82.0354 159.782 81.9828C159.76 81.9346 159.754 81.8842 159.763 81.8317C159.776 81.7791 159.8 81.7331 159.835 81.6937C159.87 81.6543 159.911 81.628 159.96 81.6148C160.012 81.6017 160.067 81.6105 160.124 81.6411C160.317 81.7463 160.498 81.8163 160.669 81.8514C160.845 81.8908 161.007 81.9105 161.156 81.9105C161.462 81.9105 161.692 81.8317 161.846 81.674C161.999 81.5207 162.076 81.2929 162.076 80.9906V80.3204H162.135C162.069 80.5613 161.931 80.7518 161.721 80.892C161.51 81.0322 161.267 81.1023 160.991 81.1023C160.702 81.1023 160.45 81.0366 160.236 80.9052C160.021 80.7694 159.855 80.5832 159.736 80.3466C159.618 80.1057 159.559 79.8253 159.559 79.5056C159.559 79.2646 159.592 79.0478 159.657 78.855C159.727 78.6623 159.824 78.4958 159.947 78.3556C160.074 78.2155 160.225 78.1081 160.4 78.0337C160.58 77.9548 160.777 77.9154 160.991 77.9154C161.272 77.9154 161.515 77.9855 161.721 78.1257C161.931 78.2658 162.067 78.4564 162.128 78.6973L162.062 78.809V78.2636C162.062 78.1541 162.091 78.0709 162.148 78.014C162.209 77.957 162.29 77.9285 162.391 77.9285C162.496 77.9285 162.577 77.957 162.634 78.014C162.691 78.0709 162.719 78.1541 162.719 78.2636V80.9117C162.719 81.4111 162.59 81.7879 162.332 82.0419C162.073 82.296 161.697 82.4231 161.202 82.4231ZM161.149 80.5832C161.342 80.5832 161.506 80.5394 161.642 80.4518C161.778 80.3642 161.883 80.2393 161.957 80.0772C162.032 79.9151 162.069 79.7246 162.069 79.5056C162.069 79.177 161.986 78.9164 161.819 78.7236C161.657 78.5309 161.434 78.4345 161.149 78.4345C160.961 78.4345 160.799 78.4783 160.663 78.5659C160.527 78.6535 160.42 78.7784 160.341 78.9405C160.266 79.0982 160.229 79.2865 160.229 79.5056C160.229 79.8385 160.312 80.1013 160.479 80.2941C160.645 80.4868 160.869 80.5832 161.149 80.5832Z" fill="#6444F4"/>
<path d="M102.297 68.1685V66.6284C102.297 65.7779 101.608 65.0884 100.757 65.0884H95.1104C94.2598 65.0884 93.5703 65.7779 93.5703 66.6284V72.2754C93.5703 73.1259 94.2598 73.8154 95.1104 73.8154H96.6504M102.297 68.1685H103.324C104.175 68.1685 104.864 68.858 104.864 69.7086V74.8421C104.864 75.6927 104.175 76.3822 103.324 76.3822H98.1905C97.34 76.3822 96.6504 75.6927 96.6504 74.8421V73.8154M102.297 68.1685H98.1905C97.34 68.1685 96.6504 68.858 96.6504 69.7086V73.8154" stroke="#6444F4" stroke-width="0.616027" stroke-linecap="round" stroke-linejoin="round"/>
<path d="M137 149.891C151.516 149.891 163.283 138.123 163.283 123.607C163.283 109.091 151.516 97.3232 137 97.3232C122.483 97.3232 110.716 109.091 110.716 123.607C110.716 138.123 122.483 149.891 137 149.891Z" fill="#E6F9FF"/>
<path d="M154.815 142.926C149.968 138.943 143.763 136.552 137 136.552C130.236 136.552 124.03 138.944 119.183 142.927C119.183 142.927 125.546 149.891 137 149.891C148.454 149.891 154.815 142.926 154.815 142.926Z" fill="#061E4F"/>
<path d="M154.314 115.126C145.167 115.126 137.752 122.542 137.752 131.688C137.752 122.542 130.337 115.126 121.19 115.126" stroke="#76A7FF" stroke-width="3.68104" stroke-miterlimit="10"/>
<path d="M125.737 164.235C125.585 164.242 125.467 164.203 125.382 164.117C125.296 164.032 125.254 163.923 125.254 163.792C125.254 163.693 125.286 163.605 125.352 163.526C125.411 163.447 125.5 163.404 125.618 163.398L125.924 163.378C126.239 163.352 126.479 163.246 126.643 163.062C126.808 162.872 126.89 162.609 126.89 162.274V157.671C126.89 157.5 126.933 157.372 127.018 157.287C127.103 157.201 127.228 157.158 127.392 157.158C127.557 157.158 127.682 157.201 127.767 157.287C127.859 157.372 127.905 157.5 127.905 157.671V162.274C127.905 162.668 127.833 163.007 127.688 163.289C127.55 163.565 127.346 163.782 127.077 163.94C126.808 164.097 126.473 164.189 126.072 164.216L125.737 164.235ZM131.127 164.265C130.739 164.265 130.414 164.193 130.151 164.048C129.895 163.904 129.701 163.69 129.57 163.407C129.445 163.118 129.382 162.757 129.382 162.323V159.8C129.382 159.629 129.425 159.504 129.511 159.425C129.596 159.34 129.718 159.297 129.875 159.297C130.033 159.297 130.154 159.34 130.24 159.425C130.332 159.504 130.378 159.629 130.378 159.8V162.333C130.378 162.721 130.457 163.007 130.614 163.191C130.772 163.375 131.022 163.467 131.364 163.467C131.738 163.467 132.04 163.342 132.27 163.092C132.507 162.836 132.625 162.501 132.625 162.087V159.8C132.625 159.629 132.668 159.504 132.753 159.425C132.839 159.34 132.964 159.297 133.128 159.297C133.286 159.297 133.407 159.34 133.493 159.425C133.578 159.504 133.621 159.629 133.621 159.8V163.743C133.621 164.078 133.46 164.245 133.138 164.245C132.987 164.245 132.868 164.203 132.783 164.117C132.697 164.025 132.655 163.9 132.655 163.743V162.905L132.783 163.122C132.651 163.49 132.441 163.772 132.152 163.969C131.863 164.166 131.521 164.265 131.127 164.265ZM136.571 164.265C136.059 164.265 135.671 164.117 135.408 163.821C135.152 163.519 135.024 163.085 135.024 162.52V157.661C135.024 157.497 135.066 157.372 135.152 157.287C135.237 157.201 135.359 157.158 135.516 157.158C135.674 157.158 135.796 157.201 135.881 157.287C135.973 157.372 136.019 157.497 136.019 157.661V162.461C136.019 162.79 136.085 163.036 136.216 163.2C136.354 163.358 136.551 163.437 136.808 163.437C136.867 163.437 136.919 163.437 136.965 163.437C137.011 163.43 137.057 163.424 137.103 163.417C137.182 163.411 137.238 163.434 137.271 163.486C137.304 163.532 137.32 163.631 137.32 163.782C137.32 163.92 137.291 164.028 137.231 164.107C137.172 164.18 137.077 164.226 136.946 164.245C136.886 164.252 136.824 164.255 136.758 164.255C136.693 164.262 136.63 164.265 136.571 164.265ZM138.529 164.235C138.371 164.235 138.25 164.189 138.164 164.097C138.079 163.999 138.036 163.864 138.036 163.693V159.849C138.036 159.678 138.079 159.547 138.164 159.455C138.25 159.363 138.371 159.317 138.529 159.317C138.687 159.317 138.808 159.363 138.894 159.455C138.986 159.547 139.032 159.678 139.032 159.849V163.693C139.032 163.864 138.989 163.999 138.904 164.097C138.818 164.189 138.693 164.235 138.529 164.235ZM138.529 158.292C138.332 158.292 138.178 158.243 138.066 158.144C137.961 158.046 137.908 157.908 137.908 157.73C137.908 157.546 137.961 157.408 138.066 157.316C138.178 157.218 138.332 157.168 138.529 157.168C138.726 157.168 138.877 157.218 138.983 157.316C139.094 157.408 139.15 157.546 139.15 157.73C139.15 157.908 139.094 158.046 138.983 158.144C138.877 158.243 138.726 158.292 138.529 158.292ZM142.69 164.265C142.165 164.265 141.711 164.166 141.33 163.969C140.955 163.766 140.663 163.48 140.453 163.112C140.249 162.737 140.147 162.294 140.147 161.781C140.147 161.282 140.249 160.845 140.453 160.47C140.656 160.096 140.936 159.803 141.291 159.593C141.645 159.383 142.05 159.278 142.503 159.278C142.838 159.278 143.137 159.333 143.4 159.445C143.663 159.55 143.886 159.708 144.07 159.918C144.261 160.122 144.402 160.372 144.494 160.667C144.592 160.963 144.642 161.295 144.642 161.663C144.642 161.775 144.609 161.86 144.543 161.919C144.477 161.972 144.379 161.998 144.248 161.998H140.936V161.387H143.972L143.804 161.525C143.804 161.196 143.755 160.917 143.656 160.687C143.564 160.457 143.423 160.283 143.232 160.165C143.048 160.04 142.818 159.977 142.542 159.977C142.234 159.977 141.971 160.05 141.754 160.194C141.544 160.339 141.383 160.539 141.271 160.796C141.159 161.052 141.103 161.351 141.103 161.692V161.752C141.103 162.33 141.238 162.767 141.507 163.062C141.783 163.352 142.181 163.496 142.7 163.496C142.897 163.496 143.104 163.47 143.321 163.417C143.544 163.365 143.755 163.276 143.952 163.151C144.064 163.085 144.162 163.056 144.248 163.062C144.339 163.069 144.412 163.099 144.464 163.151C144.523 163.204 144.56 163.269 144.573 163.348C144.586 163.427 144.573 163.509 144.533 163.595C144.494 163.674 144.425 163.746 144.326 163.812C144.103 163.963 143.843 164.078 143.548 164.157C143.252 164.229 142.966 164.265 142.69 164.265ZM147.768 164.265C147.373 164.265 147.041 164.196 146.772 164.058C146.503 163.92 146.302 163.716 146.171 163.447C146.039 163.177 145.974 162.849 145.974 162.461V160.135H145.382C145.251 160.135 145.149 160.102 145.077 160.037C145.004 159.964 144.968 159.869 144.968 159.751C144.968 159.626 145.004 159.531 145.077 159.465C145.149 159.399 145.251 159.366 145.382 159.366H145.974V158.351C145.974 158.187 146.016 158.062 146.102 157.977C146.194 157.891 146.319 157.848 146.476 157.848C146.634 157.848 146.756 157.891 146.841 157.977C146.926 158.062 146.969 158.187 146.969 158.351V159.366H148.122C148.254 159.366 148.356 159.399 148.428 159.465C148.5 159.531 148.536 159.626 148.536 159.751C148.536 159.869 148.5 159.964 148.428 160.037C148.356 160.102 148.254 160.135 148.122 160.135H146.969V162.382C146.969 162.731 147.041 162.993 147.186 163.171C147.337 163.348 147.58 163.437 147.915 163.437C148.034 163.437 148.136 163.427 148.221 163.407C148.313 163.381 148.389 163.365 148.448 163.358C148.52 163.358 148.579 163.384 148.625 163.437C148.671 163.483 148.694 163.575 148.694 163.713C148.694 163.812 148.674 163.904 148.635 163.989C148.602 164.074 148.54 164.13 148.448 164.157C148.369 164.183 148.26 164.206 148.122 164.226C147.991 164.252 147.873 164.265 147.768 164.265Z" fill="#15343A"/>
<path d="M116.913 190.136C115.954 190.136 115.222 189.784 114.716 189.078C114.21 188.365 113.957 187.33 113.957 185.974C113.957 184.624 114.21 183.597 114.716 182.892C115.222 182.179 115.954 181.822 116.913 181.822C117.871 181.822 118.603 182.179 119.109 182.892C119.615 183.597 119.868 184.624 119.868 185.974C119.868 187.323 119.615 188.354 119.109 189.067C118.603 189.78 117.871 190.136 116.913 190.136ZM116.913 188.975C117.434 188.975 117.814 188.737 118.051 188.262C118.289 187.779 118.408 187.016 118.408 185.974C118.408 184.923 118.289 184.164 118.051 183.697C117.814 183.221 117.434 182.984 116.913 182.984C116.391 182.984 116.012 183.221 115.774 183.697C115.537 184.172 115.418 184.931 115.418 185.974C115.418 187.016 115.537 187.779 115.774 188.262C116.012 188.737 116.391 188.975 116.913 188.975ZM123.808 190.136C122.849 190.136 122.117 189.784 121.611 189.078C121.105 188.365 120.852 187.33 120.852 185.974C120.852 184.624 121.105 183.597 121.611 182.892C122.117 182.179 122.849 181.822 123.808 181.822C124.766 181.822 125.498 182.179 126.004 182.892C126.51 183.597 126.763 184.624 126.763 185.974C126.763 187.323 126.51 188.354 126.004 189.067C125.498 189.78 124.766 190.136 123.808 190.136ZM123.808 188.975C124.329 188.975 124.709 188.737 124.946 188.262C125.184 187.779 125.303 187.016 125.303 185.974C125.303 184.923 125.184 184.164 124.946 183.697C124.709 183.221 124.329 182.984 123.808 182.984C123.286 182.984 122.907 183.221 122.669 183.697C122.432 184.172 122.313 184.931 122.313 185.974C122.313 187.016 122.432 187.779 122.669 188.262C122.907 188.737 123.286 188.975 123.808 188.975ZM128.679 186.008C128.434 186.008 128.23 185.928 128.069 185.767C127.908 185.598 127.828 185.391 127.828 185.146C127.828 184.9 127.908 184.697 128.069 184.536C128.23 184.375 128.434 184.295 128.679 184.295C128.924 184.295 129.127 184.375 129.288 184.536C129.449 184.697 129.53 184.9 129.53 185.146C129.53 185.391 129.449 185.598 129.288 185.767C129.127 185.928 128.924 186.008 128.679 186.008ZM128.679 190.102C128.434 190.102 128.23 190.021 128.069 189.86C127.908 189.692 127.828 189.485 127.828 189.239C127.828 188.994 127.908 188.791 128.069 188.63C128.23 188.461 128.434 188.377 128.679 188.377C128.924 188.377 129.127 188.461 129.288 188.63C129.449 188.791 129.53 188.994 129.53 189.239C129.53 189.485 129.449 189.692 129.288 189.86C129.127 190.021 128.924 190.102 128.679 190.102ZM136.142 187.296C136.372 187.296 136.545 187.346 136.66 187.445C136.775 187.545 136.832 187.687 136.832 187.871C136.832 188.254 136.602 188.446 136.142 188.446H135.556V189.354C135.556 189.592 135.487 189.776 135.349 189.906C135.219 190.037 135.046 190.102 134.831 190.102C134.617 190.102 134.441 190.037 134.303 189.906C134.172 189.776 134.107 189.592 134.107 189.354V188.446H131.094C130.887 188.446 130.726 188.388 130.611 188.273C130.496 188.151 130.439 188.001 130.439 187.825C130.439 187.641 130.5 187.465 130.623 187.296L134.176 182.19C134.253 182.083 134.349 182.002 134.464 181.949C134.579 181.887 134.697 181.857 134.82 181.857C135.019 181.857 135.192 181.922 135.337 182.052C135.483 182.183 135.556 182.367 135.556 182.604V187.296H136.142ZM131.968 187.296H134.107V184.203L131.968 187.296ZM140.876 184.847C141.382 184.847 141.826 184.958 142.209 185.18C142.6 185.395 142.903 185.698 143.118 186.088C143.333 186.479 143.44 186.928 143.44 187.434C143.44 187.963 143.317 188.43 143.072 188.837C142.834 189.243 142.493 189.561 142.048 189.791C141.612 190.014 141.106 190.125 140.531 190.125C140.055 190.125 139.588 190.048 139.128 189.895C138.675 189.734 138.288 189.519 137.966 189.251C137.79 189.097 137.702 188.917 137.702 188.71C137.702 188.542 137.748 188.4 137.84 188.285C137.939 188.162 138.054 188.101 138.185 188.101C138.261 188.101 138.334 188.116 138.403 188.147C138.472 188.17 138.553 188.212 138.645 188.273C138.951 188.488 139.25 188.653 139.542 188.768C139.833 188.883 140.143 188.94 140.473 188.94C140.979 188.94 141.366 188.814 141.635 188.561C141.903 188.308 142.037 187.948 142.037 187.48C142.037 187.028 141.899 186.671 141.623 186.41C141.355 186.142 140.983 186.008 140.508 186.008C140.209 186.008 139.94 186.05 139.703 186.134C139.473 186.219 139.235 186.361 138.99 186.56C138.844 186.66 138.695 186.709 138.541 186.709C138.388 186.709 138.258 186.663 138.15 186.571C138.043 186.479 137.989 186.357 137.989 186.203V182.616C137.989 182.401 138.051 182.232 138.173 182.11C138.296 181.987 138.468 181.926 138.691 181.926H142.52C142.98 181.926 143.21 182.117 143.21 182.501C143.21 182.884 142.98 183.076 142.52 183.076H139.438V185.261C139.829 184.985 140.308 184.847 140.876 184.847ZM145.321 186.008C145.076 186.008 144.873 185.928 144.712 185.767C144.551 185.598 144.47 185.391 144.47 185.146C144.47 184.9 144.551 184.697 144.712 184.536C144.873 184.375 145.076 184.295 145.321 184.295C145.567 184.295 145.77 184.375 145.931 184.536C146.092 184.697 146.172 184.9 146.172 185.146C146.172 185.391 146.092 185.598 145.931 185.767C145.77 185.928 145.567 186.008 145.321 186.008ZM145.321 190.102C145.076 190.102 144.873 190.021 144.712 189.86C144.551 189.692 144.47 189.485 144.47 189.239C144.47 188.994 144.551 188.791 144.712 188.63C144.873 188.461 145.076 188.377 145.321 188.377C145.567 188.377 145.77 188.461 145.931 188.63C146.092 188.791 146.172 188.994 146.172 189.239C146.172 189.485 146.092 189.692 145.931 189.86C145.77 190.021 145.567 190.102 145.321 190.102ZM150.197 190.136C149.239 190.136 148.507 189.784 148.001 189.078C147.495 188.365 147.242 187.33 147.242 185.974C147.242 184.624 147.495 183.597 148.001 182.892C148.507 182.179 149.239 181.822 150.197 181.822C151.156 181.822 151.888 182.179 152.394 182.892C152.9 183.597 153.153 184.624 153.153 185.974C153.153 187.323 152.9 188.354 152.394 189.067C151.888 189.78 151.156 190.136 150.197 190.136ZM150.197 188.975C150.719 188.975 151.098 188.737 151.336 188.262C151.574 187.779 151.692 187.016 151.692 185.974C151.692 184.923 151.574 184.164 151.336 183.697C151.098 183.221 150.719 182.984 150.197 182.984C149.676 182.984 149.297 183.221 149.059 183.697C148.821 184.172 148.703 184.931 148.703 185.974C148.703 187.016 148.821 187.779 149.059 188.262C149.297 188.737 149.676 188.975 150.197 188.975ZM157.092 190.136C156.134 190.136 155.402 189.784 154.896 189.078C154.39 188.365 154.137 187.33 154.137 185.974C154.137 184.624 154.39 183.597 154.896 182.892C155.402 182.179 156.134 181.822 157.092 181.822C158.051 181.822 158.783 182.179 159.289 182.892C159.795 183.597 160.048 184.624 160.048 185.974C160.048 187.323 159.795 188.354 159.289 189.067C158.783 189.78 158.051 190.136 157.092 190.136ZM157.092 188.975C157.614 188.975 157.993 188.737 158.231 188.262C158.469 187.779 158.587 187.016 158.587 185.974C158.587 184.923 158.469 184.164 158.231 183.697C157.993 183.221 157.614 182.984 157.092 182.984C156.571 182.984 156.192 183.221 155.954 183.697C155.716 184.172 155.598 184.931 155.598 185.974C155.598 187.016 155.716 187.779 155.954 188.262C156.192 188.737 156.571 188.975 157.092 188.975Z" fill="#6444F4"/>
<path d="M58.1484 208.175C58.1484 206.36 59.6194 204.889 61.4339 204.889H212.566C214.38 204.889 215.851 206.36 215.851 208.175V224.602C215.851 226.417 214.38 227.888 212.566 227.888H61.4339C59.6194 227.888 58.1484 226.417 58.1484 224.602V208.175Z" fill="#6444F4"/>
<path d="M108.557 219.462C108.135 219.462 107.736 219.407 107.358 219.298C106.986 219.183 106.682 219.03 106.446 218.838C106.32 218.745 106.257 218.613 106.257 218.444C106.257 218.329 106.29 218.23 106.356 218.148C106.427 218.06 106.509 218.016 106.602 218.016C106.701 218.016 106.813 218.055 106.939 218.131C107.174 218.301 107.421 218.424 107.678 218.501C107.936 218.578 108.22 218.616 108.532 218.616C108.932 218.616 109.239 218.548 109.452 218.411C109.666 218.268 109.773 218.063 109.773 217.795C109.773 217.587 109.671 217.428 109.469 217.318C109.272 217.203 108.94 217.094 108.475 216.99C107.993 216.886 107.602 216.765 107.3 216.628C106.999 216.491 106.772 216.316 106.619 216.103C106.465 215.889 106.389 215.618 106.389 215.29C106.389 214.95 106.485 214.646 106.676 214.378C106.868 214.11 107.133 213.901 107.473 213.754C107.818 213.6 108.204 213.524 108.631 213.524C109.414 213.524 110.052 213.732 110.545 214.148C110.616 214.208 110.665 214.268 110.693 214.329C110.726 214.383 110.742 214.454 110.742 214.542C110.742 214.657 110.706 214.758 110.635 214.846C110.569 214.928 110.49 214.969 110.397 214.969C110.342 214.969 110.29 214.961 110.241 214.945C110.197 214.928 110.137 214.898 110.06 214.854C109.836 214.69 109.617 214.569 109.403 214.493C109.195 214.411 108.938 214.37 108.631 214.37C108.259 214.37 107.963 214.446 107.744 214.6C107.53 214.747 107.424 214.956 107.424 215.224C107.424 215.448 107.519 215.621 107.711 215.741C107.903 215.862 108.229 215.974 108.689 216.078C109.176 216.188 109.57 216.311 109.871 216.448C110.178 216.579 110.411 216.749 110.569 216.957C110.734 217.165 110.816 217.425 110.816 217.737C110.816 218.077 110.72 218.378 110.528 218.641C110.342 218.898 110.077 219.101 109.732 219.249C109.392 219.391 109.001 219.462 108.557 219.462ZM113.568 219.429C113.404 219.429 113.272 219.383 113.174 219.29C113.08 219.191 113.034 219.062 113.034 218.904V214.468H111.539C111.211 214.468 111.046 214.323 111.046 214.033C111.046 213.743 111.211 213.598 111.539 213.598H115.588C115.917 213.598 116.081 213.743 116.081 214.033C116.081 214.323 115.917 214.468 115.588 214.468H114.094V218.904C114.094 219.062 114.044 219.191 113.946 219.29C113.853 219.383 113.727 219.429 113.568 219.429ZM121.242 218.756C121.275 218.827 121.292 218.898 121.292 218.969C121.292 219.095 121.24 219.202 121.136 219.29C121.037 219.377 120.922 219.421 120.791 219.421C120.703 219.421 120.621 219.399 120.544 219.355C120.468 219.306 120.407 219.232 120.364 219.134L119.871 218.033H116.98L116.487 219.134C116.443 219.232 116.383 219.306 116.306 219.355C116.229 219.399 116.144 219.421 116.051 219.421C115.925 219.421 115.81 219.377 115.706 219.29C115.602 219.202 115.55 219.095 115.55 218.969C115.55 218.898 115.567 218.827 115.6 218.756L117.867 213.885C117.916 213.775 117.99 213.693 118.088 213.639C118.192 213.578 118.302 213.548 118.417 213.548C118.532 213.548 118.639 213.578 118.737 213.639C118.841 213.693 118.918 213.775 118.967 213.885L121.242 218.756ZM117.341 217.212H119.509L118.425 214.772L117.341 217.212ZM126.723 218.723C126.788 218.821 126.821 218.917 126.821 219.01C126.821 219.136 126.769 219.24 126.665 219.322C126.566 219.405 126.449 219.446 126.312 219.446C126.224 219.446 126.139 219.427 126.057 219.388C125.981 219.344 125.915 219.281 125.86 219.199L124.768 217.54C124.658 217.365 124.54 217.242 124.414 217.17C124.294 217.099 124.135 217.064 123.938 217.064H123.133V218.904C123.133 219.068 123.087 219.199 122.993 219.298C122.9 219.391 122.774 219.437 122.616 219.437C122.457 219.437 122.328 219.391 122.23 219.298C122.137 219.199 122.09 219.068 122.09 218.904V214.099C122.09 213.94 122.134 213.817 122.221 213.729C122.314 213.641 122.44 213.598 122.599 213.598H124.653C125.31 213.598 125.808 213.745 126.148 214.041C126.493 214.331 126.665 214.753 126.665 215.306C126.665 215.755 126.536 216.125 126.279 216.415C126.027 216.7 125.668 216.883 125.203 216.965C125.362 217.003 125.501 217.072 125.622 217.17C125.742 217.269 125.86 217.406 125.975 217.581L126.723 218.723ZM124.505 216.251C124.905 216.251 125.197 216.177 125.384 216.029C125.57 215.875 125.663 215.643 125.663 215.331C125.663 215.013 125.57 214.783 125.384 214.641C125.197 214.493 124.905 214.419 124.505 214.419H123.125V216.251H124.505ZM129.538 219.429C129.374 219.429 129.242 219.383 129.144 219.29C129.051 219.191 129.004 219.062 129.004 218.904V214.468H127.509C127.181 214.468 127.016 214.323 127.016 214.033C127.016 213.743 127.181 213.598 127.509 213.598H131.559C131.887 213.598 132.051 213.743 132.051 214.033C132.051 214.323 131.887 214.468 131.559 214.468H130.064V218.904C130.064 219.062 130.014 219.191 129.916 219.29C129.823 219.383 129.697 219.429 129.538 219.429ZM139.647 220.193C139.707 220.292 139.737 220.388 139.737 220.481C139.737 220.607 139.688 220.708 139.59 220.785C139.491 220.867 139.376 220.908 139.245 220.908C139.146 220.908 139.053 220.883 138.965 220.834C138.878 220.79 138.807 220.722 138.752 220.628L138.267 219.832C138.191 219.706 138.089 219.613 137.963 219.552C137.843 219.492 137.684 219.462 137.487 219.462C136.923 219.462 136.433 219.342 136.017 219.101C135.606 218.86 135.288 218.515 135.064 218.066C134.839 217.617 134.727 217.091 134.727 216.489C134.727 215.886 134.839 215.363 135.064 214.92C135.288 214.471 135.606 214.126 136.017 213.885C136.433 213.644 136.923 213.524 137.487 213.524C138.045 213.524 138.53 213.644 138.941 213.885C139.357 214.126 139.677 214.471 139.902 214.92C140.126 215.363 140.239 215.886 140.239 216.489C140.239 217.14 140.107 217.702 139.844 218.173C139.587 218.638 139.217 218.977 138.735 219.191C138.987 219.279 139.195 219.459 139.36 219.733L139.647 220.193ZM137.487 218.616C138.018 218.616 138.432 218.433 138.727 218.066C139.028 217.699 139.179 217.173 139.179 216.489C139.179 215.804 139.028 215.281 138.727 214.92C138.432 214.553 138.018 214.37 137.487 214.37C136.95 214.37 136.531 214.553 136.23 214.92C135.935 215.281 135.787 215.804 135.787 216.489C135.787 217.173 135.935 217.699 136.23 218.066C136.531 218.433 136.95 218.616 137.487 218.616ZM143.699 219.462C142.905 219.462 142.303 219.257 141.892 218.846C141.481 218.435 141.276 217.836 141.276 217.047V214.082C141.276 213.923 141.322 213.797 141.416 213.704C141.509 213.606 141.635 213.556 141.793 213.556C141.952 213.556 142.078 213.606 142.171 213.704C142.264 213.797 142.311 213.923 142.311 214.082V217.105C142.311 217.603 142.429 217.981 142.664 218.238C142.899 218.49 143.244 218.616 143.699 218.616C144.148 218.616 144.49 218.487 144.726 218.23C144.961 217.973 145.079 217.598 145.079 217.105V214.082C145.079 213.923 145.125 213.797 145.218 213.704C145.312 213.606 145.437 213.556 145.596 213.556C145.755 213.556 145.881 213.606 145.974 213.704C146.067 213.797 146.114 213.923 146.114 214.082V217.047C146.114 217.83 145.908 218.43 145.498 218.846C145.087 219.257 144.487 219.462 143.699 219.462ZM147.858 219.437C147.7 219.437 147.571 219.388 147.472 219.29C147.379 219.191 147.333 219.062 147.333 218.904V214.082C147.333 213.923 147.379 213.797 147.472 213.704C147.571 213.606 147.7 213.556 147.858 213.556C148.023 213.556 148.151 213.606 148.244 213.704C148.343 213.797 148.392 213.923 148.392 214.082V218.904C148.392 219.062 148.343 219.191 148.244 219.29C148.151 219.388 148.023 219.437 147.858 219.437ZM153.281 218.542C153.61 218.542 153.774 218.682 153.774 218.961C153.774 219.246 153.61 219.388 153.281 219.388H149.782C149.64 219.388 149.525 219.347 149.437 219.265C149.355 219.177 149.314 219.068 149.314 218.936C149.314 218.805 149.358 218.679 149.446 218.559L152.386 214.444H149.815C149.487 214.444 149.322 214.304 149.322 214.025C149.322 213.74 149.487 213.598 149.815 213.598H153.207C153.35 213.598 153.462 213.641 153.544 213.729C153.632 213.811 153.676 213.915 153.676 214.041C153.676 214.167 153.629 214.293 153.536 214.419L150.596 218.542H153.281Z" fill="#FEFDFF"/>
<path d="M165.3 214.848L166.84 216.388M166.84 216.388L165.3 217.928M166.84 216.388H159.447" stroke="#FEFDFF" stroke-width="0.616027" stroke-linecap="round" stroke-linejoin="round"/>
<defs>
<clipPath id="clip0_5782_10291">
<rect width="73.9232" height="27.9266" fill="white" transform="translate(100.038 16.1128)"/>
</clipPath>
</defs>
</svg>
