<svg width="308" height="196" viewBox="0 0 308 196" fill="none" xmlns="http://www.w3.org/2000/svg">
<path d="M0 8C0 3.58172 3.58172 0 8 0H300C304.418 0 308 3.58172 308 8V188C308 192.418 304.418 196 300 196H8C3.58172 196 0 192.418 0 188V8Z" fill="#FEFDFF"/>
<path d="M93.3611 37.135C92.3411 37.135 91.4461 36.915 90.6761 36.475C89.9161 36.035 89.3311 35.405 88.9211 34.585C88.5111 33.765 88.3061 32.805 88.3061 31.705C88.3061 30.605 88.5111 29.65 88.9211 28.84C89.3311 28.02 89.9161 27.39 90.6761 26.95C91.4461 26.51 92.3411 26.29 93.3611 26.29C94.0211 26.29 94.6411 26.39 95.2211 26.59C95.8011 26.78 96.3161 27.06 96.7661 27.43C96.8961 27.53 96.9861 27.635 97.0361 27.745C97.0861 27.855 97.1111 27.99 97.1111 28.15C97.1111 28.37 97.0511 28.555 96.9311 28.705C96.8111 28.855 96.6661 28.93 96.4961 28.93C96.2961 28.93 96.0911 28.86 95.8811 28.72C95.4511 28.4 95.0511 28.18 94.6811 28.06C94.3111 27.93 93.9011 27.865 93.4511 27.865C92.4111 27.865 91.6211 28.19 91.0811 28.84C90.5511 29.49 90.2861 30.445 90.2861 31.705C90.2861 32.975 90.5511 33.935 91.0811 34.585C91.6211 35.235 92.4111 35.56 93.4511 35.56C93.8811 35.56 94.2761 35.495 94.6361 35.365C95.0061 35.235 95.4211 35.015 95.8811 34.705C95.9811 34.645 96.0811 34.595 96.1811 34.555C96.2811 34.515 96.3861 34.495 96.4961 34.495C96.6661 34.495 96.8111 34.57 96.9311 34.72C97.0511 34.87 97.1111 35.055 97.1111 35.275C97.1111 35.425 97.0861 35.56 97.0361 35.68C96.9861 35.79 96.8961 35.895 96.7661 35.995C96.3161 36.365 95.8011 36.65 95.2211 36.85C94.6411 37.04 94.0211 37.135 93.3611 37.135ZM102.927 29.485C104.647 29.485 105.507 30.49 105.507 32.5V36.19C105.507 36.47 105.422 36.69 105.252 36.85C105.092 37.01 104.867 37.09 104.577 37.09C104.287 37.09 104.057 37.01 103.887 36.85C103.717 36.69 103.632 36.47 103.632 36.19V32.5C103.632 31.97 103.522 31.585 103.302 31.345C103.092 31.095 102.757 30.97 102.297 30.97C101.757 30.97 101.322 31.14 100.992 31.48C100.672 31.82 100.512 32.275 100.512 32.845V36.19C100.512 36.47 100.427 36.69 100.257 36.85C100.087 37.01 99.8571 37.09 99.5671 37.09C99.2771 37.09 99.0471 37.01 98.8771 36.85C98.7171 36.69 98.6371 36.47 98.6371 36.19V27.22C98.6371 26.96 98.7221 26.75 98.8921 26.59C99.0721 26.43 99.3021 26.35 99.5821 26.35C99.8621 26.35 100.087 26.425 100.257 26.575C100.427 26.725 100.512 26.93 100.512 27.19V30.685C100.762 30.295 101.092 30 101.502 29.8C101.922 29.59 102.397 29.485 102.927 29.485ZM110.757 37.12C110.007 37.12 109.347 36.965 108.777 36.655C108.217 36.345 107.782 35.9 107.472 35.32C107.162 34.74 107.007 34.065 107.007 33.295C107.007 32.525 107.162 31.855 107.472 31.285C107.782 30.705 108.217 30.26 108.777 29.95C109.347 29.64 110.007 29.485 110.757 29.485C111.507 29.485 112.162 29.64 112.722 29.95C113.292 30.26 113.727 30.705 114.027 31.285C114.337 31.855 114.492 32.525 114.492 33.295C114.492 34.065 114.337 34.74 114.027 35.32C113.727 35.9 113.292 36.345 112.722 36.655C112.162 36.965 111.507 37.12 110.757 37.12ZM110.742 35.665C111.352 35.665 111.817 35.465 112.137 35.065C112.457 34.665 112.617 34.075 112.617 33.295C112.617 32.525 112.457 31.94 112.137 31.54C111.817 31.13 111.357 30.925 110.757 30.925C110.157 30.925 109.692 31.13 109.362 31.54C109.042 31.94 108.882 32.525 108.882 33.295C108.882 34.075 109.042 34.665 109.362 35.065C109.682 35.465 110.142 35.665 110.742 35.665ZM119.384 37.12C118.634 37.12 117.974 36.965 117.404 36.655C116.844 36.345 116.409 35.9 116.099 35.32C115.789 34.74 115.634 34.065 115.634 33.295C115.634 32.525 115.789 31.855 116.099 31.285C116.409 30.705 116.844 30.26 117.404 29.95C117.974 29.64 118.634 29.485 119.384 29.485C120.134 29.485 120.789 29.64 121.349 29.95C121.919 30.26 122.354 30.705 122.654 31.285C122.964 31.855 123.119 32.525 123.119 33.295C123.119 34.065 122.964 34.74 122.654 35.32C122.354 35.9 121.919 36.345 121.349 36.655C120.789 36.965 120.134 37.12 119.384 37.12ZM119.369 35.665C119.979 35.665 120.444 35.465 120.764 35.065C121.084 34.665 121.244 34.075 121.244 33.295C121.244 32.525 121.084 31.94 120.764 31.54C120.444 31.13 119.984 30.925 119.384 30.925C118.784 30.925 118.319 31.13 117.989 31.54C117.669 31.94 117.509 32.525 117.509 33.295C117.509 34.075 117.669 34.665 117.989 35.065C118.309 35.465 118.769 35.665 119.369 35.665ZM127.322 37.12C126.232 37.12 125.352 36.905 124.682 36.475C124.362 36.285 124.202 36.015 124.202 35.665C124.202 35.465 124.257 35.305 124.367 35.185C124.477 35.055 124.612 34.99 124.772 34.99C124.942 34.99 125.177 35.07 125.477 35.23C125.797 35.38 126.087 35.495 126.347 35.575C126.617 35.655 126.957 35.695 127.367 35.695C127.787 35.695 128.112 35.625 128.342 35.485C128.582 35.345 128.702 35.15 128.702 34.9C128.702 34.73 128.652 34.595 128.552 34.495C128.462 34.395 128.292 34.305 128.042 34.225C127.802 34.135 127.432 34.035 126.932 33.925C126.042 33.745 125.402 33.49 125.012 33.16C124.632 32.83 124.442 32.375 124.442 31.795C124.442 31.355 124.572 30.96 124.832 30.61C125.092 30.25 125.447 29.975 125.897 29.785C126.357 29.585 126.877 29.485 127.457 29.485C127.877 29.485 128.282 29.54 128.672 29.65C129.062 29.75 129.412 29.9 129.722 30.1C130.042 30.3 130.202 30.565 130.202 30.895C130.202 31.095 130.147 31.265 130.037 31.405C129.927 31.535 129.792 31.6 129.632 31.6C129.522 31.6 129.412 31.58 129.302 31.54C129.202 31.49 129.072 31.42 128.912 31.33C128.622 31.18 128.372 31.07 128.162 31C127.952 30.92 127.692 30.88 127.382 30.88C127.012 30.88 126.717 30.955 126.497 31.105C126.287 31.255 126.182 31.46 126.182 31.72C126.182 31.97 126.292 32.16 126.512 32.29C126.732 32.42 127.157 32.55 127.787 32.68C128.457 32.82 128.982 32.98 129.362 33.16C129.742 33.34 130.012 33.565 130.172 33.835C130.342 34.105 130.427 34.45 130.427 34.87C130.427 35.55 130.142 36.095 129.572 36.505C129.012 36.915 128.262 37.12 127.322 37.12ZM137.753 34.99C137.923 34.99 138.058 35.055 138.158 35.185C138.268 35.315 138.323 35.49 138.323 35.71C138.323 36.02 138.138 36.28 137.768 36.49C137.428 36.68 137.043 36.835 136.613 36.955C136.183 37.065 135.773 37.12 135.383 37.12C134.203 37.12 133.268 36.78 132.578 36.1C131.888 35.42 131.543 34.49 131.543 33.31C131.543 32.56 131.693 31.895 131.993 31.315C132.293 30.735 132.713 30.285 133.253 29.965C133.803 29.645 134.423 29.485 135.113 29.485C135.773 29.485 136.348 29.63 136.838 29.92C137.328 30.21 137.708 30.62 137.978 31.15C138.248 31.68 138.383 32.305 138.383 33.025C138.383 33.455 138.193 33.67 137.813 33.67H133.388C133.448 34.36 133.643 34.87 133.973 35.2C134.303 35.52 134.783 35.68 135.413 35.68C135.733 35.68 136.013 35.64 136.253 35.56C136.503 35.48 136.783 35.37 137.093 35.23C137.393 35.07 137.613 34.99 137.753 34.99ZM135.158 30.805C134.648 30.805 134.238 30.965 133.928 31.285C133.628 31.605 133.448 32.065 133.388 32.665H136.778C136.758 32.055 136.608 31.595 136.328 31.285C136.048 30.965 135.658 30.805 135.158 30.805ZM147.169 29.485C148.189 29.485 148.944 29.74 149.434 30.25C149.934 30.75 150.184 31.515 150.184 32.545V36.205C150.184 36.475 150.104 36.69 149.944 36.85C149.784 37 149.564 37.075 149.284 37.075C149.024 37.075 148.809 36.995 148.639 36.835C148.479 36.675 148.399 36.465 148.399 36.205V35.875C148.229 36.265 147.959 36.57 147.589 36.79C147.229 37.01 146.809 37.12 146.329 37.12C145.839 37.12 145.394 37.02 144.994 36.82C144.594 36.62 144.279 36.345 144.049 35.995C143.819 35.645 143.704 35.255 143.704 34.825C143.704 34.285 143.839 33.86 144.109 33.55C144.389 33.24 144.839 33.015 145.459 32.875C146.079 32.735 146.934 32.665 148.024 32.665H148.399V32.32C148.399 31.83 148.294 31.475 148.084 31.255C147.874 31.025 147.534 30.91 147.064 30.91C146.774 30.91 146.479 30.955 146.179 31.045C145.879 31.125 145.524 31.245 145.114 31.405C144.854 31.535 144.664 31.6 144.544 31.6C144.364 31.6 144.214 31.535 144.094 31.405C143.984 31.275 143.929 31.105 143.929 30.895C143.929 30.725 143.969 30.58 144.049 30.46C144.139 30.33 144.284 30.21 144.484 30.1C144.834 29.91 145.249 29.76 145.729 29.65C146.219 29.54 146.699 29.485 147.169 29.485ZM146.704 35.77C147.204 35.77 147.609 35.605 147.919 35.275C148.239 34.935 148.399 34.5 148.399 33.97V33.655H148.129C147.459 33.655 146.939 33.685 146.569 33.745C146.199 33.805 145.934 33.91 145.774 34.06C145.614 34.21 145.534 34.415 145.534 34.675C145.534 34.995 145.644 35.26 145.864 35.47C146.094 35.67 146.374 35.77 146.704 35.77ZM157.287 37.09C156.997 37.09 156.762 37.005 156.582 36.835C156.412 36.655 156.327 36.415 156.327 36.115V27.34C156.327 27.05 156.407 26.825 156.567 26.665C156.737 26.505 156.967 26.425 157.257 26.425H160.947C162.077 26.425 162.957 26.71 163.587 27.28C164.217 27.84 164.532 28.63 164.532 29.65C164.532 30.67 164.217 31.465 163.587 32.035C162.957 32.605 162.077 32.89 160.947 32.89H158.262V36.115C158.262 36.415 158.172 36.655 157.992 36.835C157.822 37.005 157.587 37.09 157.287 37.09ZM160.707 31.405C162.037 31.405 162.702 30.825 162.702 29.665C162.702 28.505 162.037 27.925 160.707 27.925H158.262V31.405H160.707ZM167.159 37C166.869 37 166.639 36.92 166.469 36.76C166.309 36.6 166.229 36.375 166.229 36.085V27.34C166.229 27.05 166.309 26.825 166.469 26.665C166.639 26.505 166.869 26.425 167.159 26.425H170.129C171.859 26.425 173.199 26.89 174.149 27.82C175.109 28.74 175.589 30.035 175.589 31.705C175.589 33.385 175.109 34.69 174.149 35.62C173.199 36.54 171.859 37 170.129 37H167.159ZM170.009 35.425C172.439 35.425 173.654 34.185 173.654 31.705C173.654 29.235 172.439 28 170.009 28H168.164V35.425H170.009ZM178.497 37.09C178.207 37.09 177.972 37 177.792 36.82C177.622 36.64 177.537 36.405 177.537 36.115V27.34C177.537 27.05 177.617 26.825 177.777 26.665C177.947 26.505 178.177 26.425 178.467 26.425H183.732C184.342 26.425 184.647 26.685 184.647 27.205C184.647 27.715 184.342 27.97 183.732 27.97H179.442V30.85H183.432C184.042 30.85 184.347 31.11 184.347 31.63C184.347 32.14 184.042 32.395 183.432 32.395H179.442V36.115C179.442 36.405 179.357 36.64 179.187 36.82C179.017 37 178.787 37.09 178.497 37.09ZM190.676 33.73C190.386 33.73 190.166 33.665 190.016 33.535C189.876 33.405 189.806 33.225 189.806 32.995C189.806 32.765 189.876 32.585 190.016 32.455C190.166 32.315 190.386 32.245 190.676 32.245H193.766C194.056 32.245 194.271 32.315 194.411 32.455C194.561 32.585 194.636 32.765 194.636 32.995C194.636 33.225 194.561 33.405 194.411 33.535C194.271 33.665 194.056 33.73 193.766 33.73H190.676ZM206.817 28.18C206.477 28.18 206.207 28.09 206.007 27.91C205.807 27.72 205.707 27.475 205.707 27.175C205.707 26.875 205.807 26.635 206.007 26.455C206.207 26.275 206.477 26.185 206.817 26.185C207.147 26.185 207.412 26.275 207.612 26.455C207.822 26.635 207.927 26.875 207.927 27.175C207.927 27.475 207.822 27.72 207.612 27.91C207.412 28.09 207.147 28.18 206.817 28.18ZM206.907 29.665C207.467 29.665 207.747 29.9 207.747 30.37V36.19C207.747 36.48 207.657 36.705 207.477 36.865C207.307 37.015 207.087 37.09 206.817 37.09C206.547 37.09 206.322 37.015 206.142 36.865C205.962 36.705 205.872 36.48 205.872 36.19V31.075H202.902V36.19C202.902 36.48 202.812 36.7 202.632 36.85C202.462 37 202.242 37.075 201.972 37.075C201.702 37.075 201.477 37 201.297 36.85C201.117 36.7 201.027 36.48 201.027 36.19V31.075H200.277C199.717 31.075 199.437 30.84 199.437 30.37C199.437 29.9 199.717 29.665 200.277 29.665H201.027V29.59C201.027 28.66 201.272 27.925 201.762 27.385C202.262 26.835 202.962 26.52 203.862 26.44L204.207 26.41C204.257 26.4 204.332 26.395 204.432 26.395C204.962 26.395 205.227 26.62 205.227 27.07C205.227 27.29 205.167 27.46 205.047 27.58C204.927 27.7 204.762 27.77 204.552 27.79L204.222 27.82C203.762 27.86 203.427 28.005 203.217 28.255C203.007 28.495 202.902 28.85 202.902 29.32V29.665H206.907ZM210.632 37.09C210.362 37.09 210.137 37.015 209.957 36.865C209.787 36.705 209.702 36.48 209.702 36.19V27.235C209.702 26.945 209.787 26.725 209.957 26.575C210.137 26.425 210.362 26.35 210.632 26.35C210.902 26.35 211.127 26.425 211.307 26.575C211.487 26.725 211.577 26.945 211.577 27.235V36.19C211.577 36.48 211.487 36.705 211.307 36.865C211.127 37.015 210.902 37.09 210.632 37.09ZM219.315 34.99C219.485 34.99 219.62 35.055 219.72 35.185C219.83 35.315 219.885 35.49 219.885 35.71C219.885 36.02 219.7 36.28 219.33 36.49C218.99 36.68 218.605 36.835 218.175 36.955C217.745 37.065 217.335 37.12 216.945 37.12C215.765 37.12 214.83 36.78 214.14 36.1C213.45 35.42 213.105 34.49 213.105 33.31C213.105 32.56 213.255 31.895 213.555 31.315C213.855 30.735 214.275 30.285 214.815 29.965C215.365 29.645 215.985 29.485 216.675 29.485C217.335 29.485 217.91 29.63 218.4 29.92C218.89 30.21 219.27 30.62 219.54 31.15C219.81 31.68 219.945 32.305 219.945 33.025C219.945 33.455 219.755 33.67 219.375 33.67H214.95C215.01 34.36 215.205 34.87 215.535 35.2C215.865 35.52 216.345 35.68 216.975 35.68C217.295 35.68 217.575 35.64 217.815 35.56C218.065 35.48 218.345 35.37 218.655 35.23C218.955 35.07 219.175 34.99 219.315 34.99ZM216.72 30.805C216.21 30.805 215.8 30.965 215.49 31.285C215.19 31.605 215.01 32.065 214.95 32.665H218.34C218.32 32.055 218.17 31.595 217.89 31.285C217.61 30.965 217.22 30.805 216.72 30.805Z" fill="#6444F4"/>
<path fill-rule="evenodd" clip-rule="evenodd" d="M153.94 64.9389C154.526 64.3531 155.476 64.3531 156.062 64.9389L165.062 73.9389C165.647 74.5246 165.647 75.4744 165.062 76.0602C164.476 76.646 163.526 76.646 162.94 76.0602L156.501 69.6208L156.501 92.9995C156.501 93.8279 155.829 94.4995 155.001 94.4995C154.173 94.4995 153.501 93.8279 153.501 92.9995L153.501 69.6208L147.062 76.0602C146.476 76.646 145.526 76.646 144.94 76.0602C144.355 75.4744 144.355 74.5246 144.94 73.9389L153.94 64.9389ZM137.001 91.4995C137.829 91.4995 138.501 92.1711 138.501 92.9995V97.4995C138.501 99.1564 139.844 100.5 141.501 100.5H168.501C170.158 100.5 171.501 99.1564 171.501 97.4995V92.9995C171.501 92.1711 172.173 91.4995 173.001 91.4995C173.829 91.4995 174.501 92.1711 174.501 92.9995V97.4995C174.501 100.813 171.815 103.5 168.501 103.5H141.501C138.187 103.5 135.501 100.813 135.501 97.4995V92.9995C135.501 92.1711 136.173 91.4995 137.001 91.4995Z" fill="#15343A"/>
<path d="M105.711 124C105.52 124 105.372 123.951 105.266 123.852C105.167 123.746 105.118 123.597 105.118 123.406V117.121C105.118 116.93 105.167 116.785 105.266 116.686C105.372 116.58 105.52 116.527 105.711 116.527H107.757C108.986 116.527 109.933 116.849 110.597 117.492C111.269 118.128 111.604 119.05 111.604 120.258C111.604 120.859 111.52 121.393 111.35 121.859C111.18 122.325 110.929 122.717 110.597 123.035C110.272 123.346 109.873 123.587 109.4 123.756C108.926 123.919 108.379 124 107.757 124H105.711ZM106.22 123.078H107.693C108.16 123.078 108.562 123.021 108.901 122.908C109.248 122.788 109.537 122.611 109.771 122.378C110.004 122.145 110.177 121.852 110.29 121.499C110.403 121.145 110.46 120.732 110.46 120.258C110.46 119.319 110.226 118.616 109.76 118.149C109.301 117.683 108.612 117.45 107.693 117.45H106.22V123.078ZM113.501 124.074C113.325 124.074 113.19 124.028 113.099 123.936C113.007 123.837 112.961 123.703 112.961 123.534V119.294C112.961 119.117 113.007 118.983 113.099 118.891C113.19 118.799 113.318 118.753 113.48 118.753C113.65 118.753 113.777 118.799 113.862 118.891C113.954 118.983 114 119.117 114 119.294V120.068H113.894C114.007 119.644 114.215 119.322 114.519 119.103C114.823 118.884 115.211 118.757 115.685 118.722C115.812 118.714 115.911 118.746 115.982 118.817C116.059 118.888 116.102 118.997 116.109 119.146C116.123 119.294 116.091 119.414 116.013 119.506C115.936 119.591 115.816 119.64 115.653 119.654L115.452 119.675C114.992 119.718 114.643 119.863 114.402 120.11C114.162 120.357 114.042 120.697 114.042 121.128V123.534C114.042 123.703 113.996 123.837 113.904 123.936C113.819 124.028 113.685 124.074 113.501 124.074ZM118.517 124.095C118.156 124.095 117.831 124.025 117.541 123.883C117.259 123.742 117.036 123.551 116.874 123.311C116.711 123.071 116.63 122.799 116.63 122.495C116.63 122.113 116.725 121.813 116.916 121.594C117.114 121.368 117.435 121.209 117.881 121.117C118.333 121.018 118.941 120.969 119.704 120.969H120.202V121.626H119.714C119.206 121.626 118.803 121.65 118.506 121.7C118.209 121.749 117.997 121.834 117.87 121.954C117.75 122.067 117.69 122.226 117.69 122.431C117.69 122.7 117.782 122.919 117.965 123.088C118.149 123.251 118.403 123.332 118.729 123.332C118.99 123.332 119.22 123.272 119.417 123.152C119.615 123.025 119.771 122.855 119.884 122.643C120.004 122.431 120.064 122.188 120.064 121.912V120.693C120.064 120.29 119.979 120.001 119.81 119.824C119.64 119.647 119.361 119.559 118.972 119.559C118.746 119.559 118.509 119.587 118.262 119.644C118.022 119.7 117.771 119.796 117.51 119.93C117.389 119.986 117.287 120.004 117.202 119.983C117.117 119.962 117.05 119.916 117.001 119.845C116.951 119.767 116.923 119.686 116.916 119.601C116.916 119.509 116.937 119.421 116.98 119.336C117.029 119.252 117.11 119.188 117.223 119.146C117.534 118.997 117.842 118.891 118.146 118.828C118.449 118.764 118.736 118.732 119.004 118.732C119.478 118.732 119.866 118.806 120.17 118.955C120.481 119.103 120.711 119.329 120.859 119.633C121.007 119.937 121.082 120.329 121.082 120.81V123.534C121.082 123.703 121.039 123.837 120.954 123.936C120.87 124.028 120.746 124.074 120.583 124.074C120.428 124.074 120.304 124.028 120.212 123.936C120.121 123.837 120.075 123.703 120.075 123.534V122.845H120.17C120.114 123.106 120.008 123.332 119.852 123.523C119.704 123.707 119.516 123.848 119.29 123.947C119.064 124.046 118.806 124.095 118.517 124.095ZM124.899 126.003C124.517 126.003 124.146 125.964 123.786 125.887C123.432 125.809 123.111 125.682 122.821 125.505C122.715 125.449 122.644 125.378 122.609 125.293C122.574 125.215 122.563 125.134 122.577 125.049C122.598 124.965 122.637 124.89 122.694 124.827C122.75 124.763 122.818 124.721 122.895 124.7C122.98 124.678 123.068 124.692 123.16 124.742C123.471 124.912 123.764 125.025 124.04 125.081C124.323 125.145 124.584 125.177 124.824 125.177C125.319 125.177 125.69 125.049 125.937 124.795C126.185 124.548 126.308 124.18 126.308 123.693V122.611H126.404C126.298 123 126.075 123.308 125.736 123.534C125.397 123.76 125.005 123.873 124.559 123.873C124.093 123.873 123.687 123.767 123.34 123.555C122.994 123.336 122.726 123.035 122.535 122.654C122.344 122.265 122.249 121.813 122.249 121.297C122.249 120.909 122.302 120.559 122.408 120.248C122.521 119.937 122.676 119.668 122.874 119.442C123.079 119.216 123.323 119.043 123.605 118.923C123.895 118.796 124.213 118.732 124.559 118.732C125.012 118.732 125.404 118.845 125.736 119.071C126.075 119.297 126.294 119.605 126.393 119.993L126.287 120.174V119.294C126.287 119.117 126.333 118.983 126.425 118.891C126.524 118.799 126.654 118.753 126.817 118.753C126.987 118.753 127.117 118.799 127.209 118.891C127.301 118.983 127.347 119.117 127.347 119.294V123.565C127.347 124.371 127.139 124.979 126.722 125.389C126.305 125.798 125.697 126.003 124.899 126.003ZM124.814 123.035C125.125 123.035 125.39 122.965 125.609 122.823C125.828 122.682 125.997 122.481 126.117 122.219C126.238 121.958 126.298 121.65 126.298 121.297C126.298 120.767 126.163 120.347 125.895 120.036C125.633 119.725 125.273 119.569 124.814 119.569C124.51 119.569 124.248 119.64 124.029 119.781C123.81 119.923 123.637 120.124 123.51 120.386C123.39 120.64 123.33 120.944 123.33 121.297C123.33 121.834 123.464 122.258 123.733 122.569C124.001 122.88 124.361 123.035 124.814 123.035ZM132.174 124.074C132.005 124.074 131.874 124.028 131.782 123.936C131.69 123.837 131.644 123.703 131.644 123.534V116.994C131.644 116.817 131.69 116.683 131.782 116.591C131.874 116.499 132.005 116.453 132.174 116.453C132.344 116.453 132.474 116.499 132.566 116.591C132.665 116.683 132.715 116.817 132.715 116.994V119.93H132.566C132.722 119.534 132.966 119.237 133.298 119.04C133.63 118.835 134.011 118.732 134.442 118.732C134.852 118.732 135.191 118.81 135.46 118.965C135.735 119.114 135.94 119.343 136.075 119.654C136.209 119.958 136.276 120.343 136.276 120.81V123.534C136.276 123.703 136.23 123.837 136.138 123.936C136.046 124.028 135.916 124.074 135.746 124.074C135.569 124.074 135.435 124.028 135.343 123.936C135.251 123.837 135.206 123.703 135.206 123.534V120.873C135.206 120.428 135.117 120.103 134.941 119.898C134.771 119.693 134.502 119.591 134.135 119.591C133.704 119.591 133.358 119.725 133.096 119.993C132.842 120.262 132.715 120.622 132.715 121.075V123.534C132.715 123.894 132.534 124.074 132.174 124.074ZM140.178 124.095C139.613 124.095 139.126 123.989 138.716 123.777C138.313 123.558 137.999 123.251 137.772 122.855C137.553 122.452 137.444 121.976 137.444 121.424C137.444 120.887 137.553 120.417 137.772 120.015C137.991 119.612 138.292 119.297 138.673 119.071C139.055 118.845 139.489 118.732 139.977 118.732C140.337 118.732 140.659 118.792 140.942 118.912C141.224 119.025 141.464 119.195 141.662 119.421C141.867 119.64 142.019 119.909 142.118 120.227C142.224 120.545 142.277 120.901 142.277 121.297C142.277 121.417 142.242 121.509 142.171 121.573C142.1 121.629 141.994 121.658 141.853 121.658H138.292V121H141.556L141.376 121.149C141.376 120.795 141.323 120.495 141.217 120.248C141.118 120.001 140.966 119.813 140.761 119.686C140.564 119.552 140.316 119.485 140.019 119.485C139.687 119.485 139.405 119.562 139.171 119.718C138.945 119.873 138.772 120.089 138.652 120.364C138.532 120.64 138.472 120.962 138.472 121.329V121.393C138.472 122.014 138.617 122.484 138.907 122.802C139.203 123.113 139.631 123.269 140.189 123.269C140.401 123.269 140.624 123.24 140.857 123.184C141.097 123.127 141.323 123.032 141.535 122.898C141.655 122.827 141.761 122.795 141.853 122.802C141.952 122.809 142.03 122.841 142.086 122.898C142.15 122.954 142.189 123.025 142.203 123.11C142.217 123.194 142.203 123.283 142.161 123.375C142.118 123.459 142.044 123.537 141.938 123.608C141.698 123.77 141.419 123.894 141.101 123.979C140.783 124.057 140.475 124.095 140.178 124.095ZM143.985 124.074C143.808 124.074 143.674 124.028 143.582 123.936C143.49 123.837 143.444 123.703 143.444 123.534V119.294C143.444 119.117 143.49 118.983 143.582 118.891C143.674 118.799 143.801 118.753 143.964 118.753C144.133 118.753 144.26 118.799 144.345 118.891C144.437 118.983 144.483 119.117 144.483 119.294V120.068H144.377C144.49 119.644 144.698 119.322 145.002 119.103C145.306 118.884 145.695 118.757 146.168 118.722C146.295 118.714 146.394 118.746 146.465 118.817C146.543 118.888 146.585 118.997 146.592 119.146C146.606 119.294 146.575 119.414 146.497 119.506C146.419 119.591 146.299 119.64 146.136 119.654L145.935 119.675C145.476 119.718 145.126 119.863 144.886 120.11C144.645 120.357 144.525 120.697 144.525 121.128V123.534C144.525 123.703 144.479 123.837 144.388 123.936C144.303 124.028 144.168 124.074 143.985 124.074ZM149.753 124.095C149.188 124.095 148.7 123.989 148.29 123.777C147.888 123.558 147.573 123.251 147.347 122.855C147.128 122.452 147.018 121.976 147.018 121.424C147.018 120.887 147.128 120.417 147.347 120.015C147.566 119.612 147.866 119.297 148.248 119.071C148.629 118.845 149.064 118.732 149.552 118.732C149.912 118.732 150.234 118.792 150.516 118.912C150.799 119.025 151.039 119.195 151.237 119.421C151.442 119.64 151.594 119.909 151.693 120.227C151.799 120.545 151.852 120.901 151.852 121.297C151.852 121.417 151.816 121.509 151.746 121.573C151.675 121.629 151.569 121.658 151.428 121.658H147.866V121H151.131L150.951 121.149C150.951 120.795 150.898 120.495 150.792 120.248C150.693 120.001 150.541 119.813 150.336 119.686C150.138 119.552 149.891 119.485 149.594 119.485C149.262 119.485 148.979 119.562 148.746 119.718C148.52 119.873 148.347 120.089 148.227 120.364C148.107 120.64 148.047 120.962 148.047 121.329V121.393C148.047 122.014 148.191 122.484 148.481 122.802C148.778 123.113 149.205 123.269 149.764 123.269C149.976 123.269 150.198 123.24 150.431 123.184C150.672 123.127 150.898 123.032 151.11 122.898C151.23 122.827 151.336 122.795 151.428 122.802C151.527 122.809 151.604 122.841 151.661 122.898C151.724 122.954 151.763 123.025 151.777 123.11C151.792 123.194 151.777 123.283 151.735 123.375C151.693 123.459 151.619 123.537 151.513 123.608C151.272 123.77 150.993 123.894 150.675 123.979C150.357 124.057 150.05 124.095 149.753 124.095ZM153.655 125.071C153.577 125.169 153.492 125.226 153.4 125.24C153.316 125.254 153.241 125.237 153.178 125.187C153.114 125.138 153.079 125.067 153.072 124.975C153.065 124.89 153.104 124.795 153.188 124.689C153.316 124.533 153.4 124.371 153.443 124.201C153.492 124.039 153.517 123.894 153.517 123.767L153.559 124.042C153.347 124.042 153.174 123.982 153.04 123.862C152.913 123.735 152.849 123.569 152.849 123.364C152.849 123.166 152.909 123.007 153.029 122.887C153.149 122.76 153.312 122.696 153.517 122.696C153.729 122.696 153.895 122.77 154.015 122.919C154.142 123.06 154.206 123.265 154.206 123.534C154.206 123.689 154.188 123.852 154.153 124.021C154.125 124.191 154.072 124.364 153.994 124.541C153.916 124.717 153.803 124.894 153.655 125.071ZM160.576 124.095C160.053 124.095 159.601 123.986 159.219 123.767C158.845 123.548 158.551 123.237 158.339 122.834C158.127 122.431 158.021 121.958 158.021 121.414C158.021 120.997 158.081 120.626 158.202 120.301C158.322 119.976 158.491 119.697 158.71 119.463C158.936 119.223 159.205 119.043 159.516 118.923C159.834 118.796 160.187 118.732 160.576 118.732C161.092 118.732 161.537 118.842 161.911 119.061C162.293 119.28 162.59 119.591 162.802 119.993C163.014 120.389 163.12 120.863 163.12 121.414C163.12 121.824 163.06 122.195 162.939 122.527C162.819 122.859 162.646 123.141 162.42 123.375C162.201 123.608 161.933 123.788 161.615 123.915C161.304 124.035 160.957 124.095 160.576 124.095ZM160.576 123.269C160.866 123.269 161.12 123.198 161.339 123.057C161.558 122.915 161.728 122.707 161.848 122.431C161.975 122.156 162.039 121.817 162.039 121.414C162.039 120.806 161.904 120.347 161.636 120.036C161.367 119.725 161.014 119.569 160.576 119.569C160.279 119.569 160.021 119.64 159.802 119.781C159.583 119.916 159.41 120.121 159.283 120.396C159.163 120.672 159.103 121.011 159.103 121.414C159.103 122.014 159.237 122.474 159.505 122.792C159.774 123.11 160.131 123.269 160.576 123.269ZM164.863 124.074C164.686 124.074 164.552 124.028 164.46 123.936C164.368 123.837 164.322 123.703 164.322 123.534V119.294C164.322 119.117 164.368 118.983 164.46 118.891C164.552 118.799 164.679 118.753 164.841 118.753C165.011 118.753 165.138 118.799 165.223 118.891C165.315 118.983 165.361 119.117 165.361 119.294V120.068H165.255C165.368 119.644 165.576 119.322 165.88 119.103C166.184 118.884 166.573 118.757 167.046 118.722C167.173 118.714 167.272 118.746 167.343 118.817C167.421 118.888 167.463 118.997 167.47 119.146C167.484 119.294 167.452 119.414 167.375 119.506C167.297 119.591 167.177 119.64 167.014 119.654L166.813 119.675C166.354 119.718 166.004 119.863 165.763 120.11C165.523 120.357 165.403 120.697 165.403 121.128V123.534C165.403 123.703 165.357 123.837 165.265 123.936C165.181 124.028 165.046 124.074 164.863 124.074ZM172.915 124.095C172.498 124.095 172.148 124.018 171.866 123.862C171.59 123.707 171.382 123.477 171.24 123.173C171.106 122.862 171.039 122.474 171.039 122.007V119.294C171.039 119.11 171.085 118.976 171.177 118.891C171.269 118.799 171.399 118.753 171.569 118.753C171.739 118.753 171.869 118.799 171.961 118.891C172.06 118.976 172.109 119.11 172.109 119.294V122.018C172.109 122.435 172.194 122.742 172.364 122.94C172.533 123.138 172.802 123.237 173.169 123.237C173.572 123.237 173.897 123.103 174.145 122.834C174.399 122.558 174.526 122.198 174.526 121.753V119.294C174.526 119.11 174.572 118.976 174.664 118.891C174.756 118.799 174.89 118.753 175.067 118.753C175.236 118.753 175.367 118.799 175.459 118.891C175.551 118.976 175.597 119.11 175.597 119.294V123.534C175.597 123.894 175.424 124.074 175.077 124.074C174.915 124.074 174.788 124.028 174.696 123.936C174.604 123.837 174.558 123.703 174.558 123.534V122.633L174.696 122.866C174.554 123.262 174.328 123.565 174.017 123.777C173.706 123.989 173.339 124.095 172.915 124.095ZM177.635 125.982C177.466 125.982 177.335 125.936 177.243 125.844C177.151 125.752 177.105 125.618 177.105 125.442V119.294C177.105 119.117 177.151 118.983 177.243 118.891C177.335 118.799 177.462 118.753 177.625 118.753C177.794 118.753 177.925 118.799 178.017 118.891C178.109 118.983 178.155 119.117 178.155 119.294V120.216L178.038 119.993C178.151 119.612 178.374 119.308 178.706 119.082C179.038 118.849 179.43 118.732 179.882 118.732C180.342 118.732 180.741 118.842 181.08 119.061C181.426 119.28 181.691 119.587 181.875 119.983C182.066 120.379 182.161 120.856 182.161 121.414C182.161 121.958 182.066 122.435 181.875 122.845C181.691 123.247 181.43 123.558 181.091 123.777C180.752 123.989 180.349 124.095 179.882 124.095C179.437 124.095 179.049 123.982 178.716 123.756C178.384 123.53 178.162 123.23 178.049 122.855H178.176V125.442C178.176 125.618 178.126 125.752 178.027 125.844C177.936 125.936 177.805 125.982 177.635 125.982ZM179.617 123.269C179.914 123.269 180.172 123.198 180.391 123.057C180.61 122.915 180.78 122.707 180.9 122.431C181.02 122.156 181.08 121.817 181.08 121.414C181.08 120.806 180.946 120.347 180.677 120.036C180.416 119.725 180.063 119.569 179.617 119.569C179.328 119.569 179.07 119.64 178.844 119.781C178.625 119.916 178.455 120.121 178.335 120.396C178.215 120.672 178.155 121.011 178.155 121.414C178.155 122.014 178.289 122.474 178.557 122.792C178.826 123.11 179.179 123.269 179.617 123.269ZM185.032 124.095C184.481 124.095 184.064 123.936 183.781 123.618C183.505 123.293 183.368 122.827 183.368 122.219V116.994C183.368 116.817 183.414 116.683 183.505 116.591C183.597 116.499 183.728 116.453 183.898 116.453C184.067 116.453 184.198 116.499 184.29 116.591C184.389 116.683 184.438 116.817 184.438 116.994V122.156C184.438 122.509 184.509 122.774 184.65 122.951C184.799 123.12 185.011 123.205 185.286 123.205C185.35 123.205 185.406 123.205 185.456 123.205C185.505 123.198 185.555 123.191 185.604 123.184C185.689 123.177 185.749 123.202 185.784 123.258C185.82 123.308 185.837 123.414 185.837 123.576C185.837 123.724 185.805 123.841 185.742 123.926C185.678 124.004 185.576 124.053 185.435 124.074C185.371 124.081 185.304 124.085 185.233 124.085C185.162 124.092 185.095 124.095 185.032 124.095ZM188.803 124.095C188.28 124.095 187.828 123.986 187.446 123.767C187.072 123.548 186.778 123.237 186.566 122.834C186.354 122.431 186.248 121.958 186.248 121.414C186.248 120.997 186.308 120.626 186.429 120.301C186.549 119.976 186.718 119.697 186.937 119.463C187.163 119.223 187.432 119.043 187.743 118.923C188.061 118.796 188.414 118.732 188.803 118.732C189.319 118.732 189.764 118.842 190.138 119.061C190.52 119.28 190.817 119.591 191.029 119.993C191.241 120.389 191.347 120.863 191.347 121.414C191.347 121.824 191.287 122.195 191.166 122.527C191.046 122.859 190.873 123.141 190.647 123.375C190.428 123.608 190.159 123.788 189.842 123.915C189.531 124.035 189.184 124.095 188.803 124.095ZM188.803 123.269C189.092 123.269 189.347 123.198 189.566 123.057C189.785 122.915 189.955 122.707 190.075 122.431C190.202 122.156 190.265 121.817 190.265 121.414C190.265 120.806 190.131 120.347 189.863 120.036C189.594 119.725 189.241 119.569 188.803 119.569C188.506 119.569 188.248 119.64 188.029 119.781C187.81 119.916 187.637 120.121 187.51 120.396C187.39 120.672 187.329 121.011 187.329 121.414C187.329 122.014 187.464 122.474 187.732 122.792C188.001 123.11 188.358 123.269 188.803 123.269ZM194.202 124.095C193.842 124.095 193.517 124.025 193.227 123.883C192.945 123.742 192.722 123.551 192.559 123.311C192.397 123.071 192.316 122.799 192.316 122.495C192.316 122.113 192.411 121.813 192.602 121.594C192.8 121.368 193.121 121.209 193.566 121.117C194.019 121.018 194.626 120.969 195.39 120.969H195.888V121.626H195.4C194.891 121.626 194.489 121.65 194.192 121.7C193.895 121.749 193.683 121.834 193.556 121.954C193.436 122.067 193.376 122.226 193.376 122.431C193.376 122.7 193.467 122.919 193.651 123.088C193.835 123.251 194.089 123.332 194.414 123.332C194.676 123.332 194.905 123.272 195.103 123.152C195.301 123.025 195.457 122.855 195.57 122.643C195.69 122.431 195.75 122.188 195.75 121.912V120.693C195.75 120.29 195.665 120.001 195.495 119.824C195.326 119.647 195.047 119.559 194.658 119.559C194.432 119.559 194.195 119.587 193.948 119.644C193.708 119.7 193.457 119.796 193.195 119.93C193.075 119.986 192.973 120.004 192.888 119.983C192.803 119.962 192.736 119.916 192.687 119.845C192.637 119.767 192.609 119.686 192.602 119.601C192.602 119.509 192.623 119.421 192.665 119.336C192.715 119.252 192.796 119.188 192.909 119.146C193.22 118.997 193.528 118.891 193.831 118.828C194.135 118.764 194.421 118.732 194.69 118.732C195.163 118.732 195.552 118.806 195.856 118.955C196.167 119.103 196.396 119.329 196.545 119.633C196.693 119.937 196.767 120.329 196.767 120.81V123.534C196.767 123.703 196.725 123.837 196.64 123.936C196.555 124.028 196.432 124.074 196.269 124.074C196.114 124.074 195.99 124.028 195.898 123.936C195.806 123.837 195.76 123.703 195.76 123.534V122.845H195.856C195.799 123.106 195.693 123.332 195.538 123.523C195.39 123.707 195.202 123.848 194.976 123.947C194.75 124.046 194.492 124.095 194.202 124.095ZM200.213 124.095C199.761 124.095 199.362 123.989 199.016 123.777C198.676 123.558 198.411 123.247 198.221 122.845C198.03 122.435 197.935 121.958 197.935 121.414C197.935 120.856 198.03 120.379 198.221 119.983C198.411 119.587 198.676 119.28 199.016 119.061C199.362 118.842 199.761 118.732 200.213 118.732C200.666 118.732 201.054 118.845 201.379 119.071C201.711 119.29 201.934 119.587 202.047 119.962H201.93V116.994C201.93 116.817 201.976 116.683 202.068 116.591C202.16 116.499 202.291 116.453 202.46 116.453C202.63 116.453 202.761 116.499 202.853 116.591C202.952 116.683 203.001 116.817 203.001 116.994V123.534C203.001 123.703 202.955 123.837 202.863 123.936C202.771 124.028 202.641 124.074 202.471 124.074C202.301 124.074 202.171 124.028 202.079 123.936C201.987 123.837 201.941 123.703 201.941 123.534V122.601L202.058 122.834C201.945 123.216 201.722 123.523 201.39 123.756C201.065 123.982 200.673 124.095 200.213 124.095ZM200.489 123.269C200.779 123.269 201.033 123.198 201.252 123.057C201.471 122.915 201.641 122.707 201.761 122.431C201.888 122.156 201.952 121.817 201.952 121.414C201.952 120.806 201.817 120.347 201.549 120.036C201.28 119.725 200.927 119.569 200.489 119.569C200.192 119.569 199.934 119.64 199.715 119.781C199.496 119.916 199.323 120.121 199.196 120.396C199.076 120.672 199.016 121.011 199.016 121.414C199.016 122.014 199.15 122.474 199.418 122.792C199.687 123.11 200.044 123.269 200.489 123.269Z" fill="#15343A"/>
<path d="M129.87 134.415C129.988 134.415 130.078 134.452 130.139 134.526C130.207 134.594 130.241 134.687 130.241 134.805V140.675C130.241 140.787 130.21 140.876 130.149 140.944C130.087 141.012 130 141.046 129.889 141.046C129.778 141.046 129.694 141.012 129.639 140.944C129.583 140.876 129.555 140.787 129.555 140.675V135.936L127.543 139.794C127.456 139.974 127.329 140.063 127.162 140.063C127.001 140.063 126.875 139.974 126.782 139.794L124.76 135.983V140.675C124.76 140.787 124.729 140.876 124.667 140.944C124.612 141.012 124.528 141.046 124.417 141.046C124.306 141.046 124.219 141.012 124.157 140.944C124.096 140.876 124.065 140.787 124.065 140.675V134.805C124.065 134.687 124.099 134.594 124.167 134.526C124.235 134.452 124.327 134.415 124.445 134.415C124.599 134.415 124.723 134.505 124.816 134.684L127.172 139.201L129.499 134.684C129.549 134.585 129.601 134.517 129.657 134.48C129.719 134.437 129.79 134.415 129.87 134.415ZM133.597 136.372C134.729 136.372 135.294 136.966 135.294 138.153V140.675C135.294 140.787 135.26 140.876 135.192 140.944C135.13 141.012 135.044 141.046 134.933 141.046C134.821 141.046 134.732 141.012 134.664 140.944C134.596 140.876 134.562 140.787 134.562 140.675V140.23C134.444 140.496 134.265 140.703 134.024 140.852C133.783 140.994 133.504 141.065 133.189 141.065C132.898 141.065 132.629 141.006 132.382 140.889C132.141 140.771 131.949 140.607 131.807 140.397C131.665 140.187 131.594 139.955 131.594 139.702C131.594 139.362 131.68 139.099 131.853 138.913C132.027 138.722 132.311 138.586 132.707 138.505C133.102 138.419 133.653 138.375 134.358 138.375H134.562V138.069C134.562 137.698 134.484 137.426 134.33 137.253C134.181 137.08 133.937 136.993 133.597 136.993C133.177 136.993 132.75 137.108 132.317 137.337C132.15 137.442 132.033 137.494 131.965 137.494C131.891 137.494 131.829 137.466 131.779 137.411C131.73 137.355 131.705 137.284 131.705 137.197C131.705 137.111 131.73 137.037 131.779 136.975C131.835 136.907 131.921 136.839 132.039 136.771C132.255 136.647 132.5 136.551 132.772 136.483C133.05 136.409 133.325 136.372 133.597 136.372ZM133.291 140.471C133.662 140.471 133.965 140.348 134.2 140.1C134.441 139.847 134.562 139.522 134.562 139.127V138.858H134.395C133.851 138.858 133.436 138.882 133.152 138.932C132.867 138.975 132.663 139.052 132.54 139.164C132.422 139.269 132.364 139.426 132.364 139.637C132.364 139.878 132.45 140.079 132.623 140.239C132.803 140.394 133.025 140.471 133.291 140.471ZM140.379 140.425C140.453 140.499 140.49 140.589 140.49 140.694C140.49 140.787 140.456 140.867 140.388 140.935C140.32 141.003 140.24 141.037 140.147 141.037C140.048 141.037 139.959 140.994 139.878 140.907L138.376 139.191L136.883 140.907C136.802 140.994 136.713 141.037 136.614 141.037C136.521 141.037 136.438 141.003 136.363 140.935C136.295 140.867 136.261 140.784 136.261 140.685C136.261 140.592 136.298 140.505 136.373 140.425L137.912 138.691L136.438 137.012C136.363 136.925 136.326 136.839 136.326 136.752C136.326 136.653 136.36 136.57 136.428 136.502C136.502 136.434 136.583 136.4 136.669 136.4C136.768 136.4 136.858 136.443 136.938 136.53L138.376 138.181L139.813 136.53C139.894 136.443 139.983 136.4 140.082 136.4C140.175 136.4 140.256 136.434 140.324 136.502C140.392 136.57 140.426 136.65 140.426 136.743C140.426 136.848 140.388 136.938 140.314 137.012L138.84 138.691L140.379 140.425ZM145.382 141.065C145.097 141.065 144.825 141.031 144.566 140.963C144.312 140.895 144.086 140.799 143.889 140.675C143.777 140.601 143.697 140.533 143.647 140.471C143.604 140.403 143.582 140.323 143.582 140.23C143.582 140.15 143.604 140.085 143.647 140.035C143.697 139.98 143.759 139.952 143.833 139.952C143.907 139.952 144.015 139.998 144.157 140.091C144.343 140.202 144.525 140.292 144.705 140.36C144.89 140.422 145.119 140.453 145.391 140.453C145.725 140.453 145.985 140.394 146.17 140.277C146.356 140.159 146.448 139.989 146.448 139.767C146.448 139.63 146.414 139.522 146.346 139.442C146.278 139.355 146.161 139.281 145.994 139.219C145.827 139.151 145.583 139.083 145.261 139.015C144.717 138.898 144.328 138.74 144.093 138.542C143.858 138.344 143.74 138.075 143.74 137.735C143.74 137.47 143.814 137.235 143.963 137.031C144.111 136.827 144.315 136.666 144.575 136.548C144.841 136.431 145.141 136.372 145.474 136.372C145.716 136.372 145.947 136.406 146.17 136.474C146.399 136.536 146.6 136.626 146.773 136.743C146.983 136.891 147.088 137.046 147.088 137.207C147.088 137.287 147.063 137.355 147.014 137.411C146.965 137.466 146.906 137.494 146.838 137.494C146.764 137.494 146.652 137.442 146.504 137.337C146.331 137.225 146.167 137.139 146.012 137.077C145.858 137.015 145.666 136.984 145.437 136.984C145.147 136.984 144.912 137.049 144.732 137.179C144.559 137.309 144.473 137.482 144.473 137.698C144.473 137.834 144.504 137.946 144.566 138.032C144.634 138.113 144.742 138.187 144.89 138.255C145.045 138.317 145.264 138.378 145.549 138.44C145.969 138.533 146.294 138.635 146.522 138.746C146.757 138.858 146.924 138.994 147.023 139.154C147.122 139.315 147.172 139.519 147.172 139.767C147.172 140.156 147.008 140.471 146.68 140.712C146.352 140.947 145.92 141.065 145.382 141.065ZM148.697 141.046C148.586 141.046 148.493 141.015 148.419 140.954C148.351 140.886 148.317 140.793 148.317 140.675V136.762C148.317 136.644 148.351 136.554 148.419 136.493C148.493 136.425 148.586 136.391 148.697 136.391C148.808 136.391 148.898 136.425 148.966 136.493C149.034 136.554 149.068 136.644 149.068 136.762V140.675C149.068 140.799 149.034 140.892 148.966 140.954C148.898 141.015 148.808 141.046 148.697 141.046ZM148.697 135.417C148.549 135.417 148.428 135.374 148.335 135.287C148.243 135.2 148.196 135.086 148.196 134.944C148.196 134.808 148.243 134.696 148.335 134.61C148.428 134.523 148.549 134.48 148.697 134.48C148.845 134.48 148.966 134.523 149.059 134.61C149.151 134.696 149.198 134.808 149.198 134.944C149.198 135.086 149.151 135.2 149.059 135.287C148.966 135.374 148.845 135.417 148.697 135.417ZM153.793 140.406C153.898 140.406 153.978 140.434 154.034 140.49C154.089 140.539 154.117 140.61 154.117 140.703C154.117 140.796 154.089 140.87 154.034 140.926C153.978 140.975 153.898 141 153.793 141H150.547C150.441 141 150.355 140.969 150.287 140.907C150.219 140.839 150.185 140.759 150.185 140.666C150.185 140.567 150.222 140.471 150.296 140.379L153.041 137.077H150.5C150.395 137.077 150.312 137.052 150.25 137.003C150.194 136.947 150.166 136.876 150.166 136.789C150.166 136.697 150.194 136.622 150.25 136.567C150.312 136.511 150.395 136.483 150.5 136.483H153.644C153.755 136.483 153.845 136.517 153.913 136.585C153.981 136.647 154.015 136.724 154.015 136.817C154.015 136.916 153.978 137.012 153.904 137.105L151.149 140.406H153.793ZM158.534 139.952C158.602 139.952 158.66 139.98 158.71 140.035C158.759 140.091 158.784 140.162 158.784 140.249C158.784 140.403 158.676 140.546 158.459 140.675C158.237 140.805 158.002 140.904 157.754 140.972C157.507 141.034 157.266 141.065 157.031 141.065C156.332 141.065 155.779 140.858 155.371 140.444C154.969 140.029 154.768 139.457 154.768 138.728C154.768 138.264 154.858 137.856 155.037 137.504C155.216 137.145 155.467 136.867 155.788 136.669C156.116 136.471 156.487 136.372 156.901 136.372C157.489 136.372 157.955 136.564 158.302 136.947C158.648 137.33 158.821 137.85 158.821 138.505C158.821 138.629 158.796 138.718 158.747 138.774C158.697 138.83 158.617 138.858 158.506 138.858H155.519C155.575 139.921 156.079 140.453 157.031 140.453C157.272 140.453 157.479 140.422 157.652 140.36C157.826 140.292 158.011 140.202 158.209 140.091C158.37 139.998 158.478 139.952 158.534 139.952ZM156.911 136.956C156.515 136.956 156.196 137.08 155.955 137.327C155.72 137.575 155.581 137.924 155.538 138.375H158.163C158.15 137.918 158.036 137.568 157.819 137.327C157.603 137.08 157.3 136.956 156.911 136.956ZM160.299 137.429C160.15 137.429 160.027 137.383 159.928 137.29C159.829 137.191 159.779 137.065 159.779 136.91C159.779 136.755 159.829 136.632 159.928 136.539C160.027 136.44 160.15 136.391 160.299 136.391C160.441 136.391 160.559 136.44 160.651 136.539C160.75 136.632 160.8 136.755 160.8 136.91C160.8 137.065 160.75 137.191 160.651 137.29C160.559 137.383 160.441 137.429 160.299 137.429ZM160.299 141.046C160.15 141.046 160.027 141 159.928 140.907C159.829 140.808 159.779 140.682 159.779 140.527C159.779 140.372 159.829 140.246 159.928 140.147C160.027 140.048 160.15 139.998 160.299 139.998C160.441 139.998 160.559 140.048 160.651 140.147C160.75 140.246 160.8 140.372 160.8 140.527C160.8 140.682 160.75 140.808 160.651 140.907C160.559 141 160.441 141.046 160.299 141.046ZM166.775 136.901C167.19 136.901 167.551 136.987 167.861 137.16C168.176 137.334 168.417 137.578 168.584 137.893C168.757 138.202 168.844 138.561 168.844 138.969C168.844 139.377 168.751 139.742 168.565 140.063C168.38 140.379 168.12 140.626 167.786 140.805C167.459 140.978 167.078 141.065 166.646 141.065C166.262 141.065 165.888 140.997 165.523 140.861C165.159 140.725 164.849 140.539 164.596 140.304C164.497 140.212 164.448 140.107 164.448 139.989C164.448 139.896 164.472 139.819 164.522 139.757C164.571 139.695 164.63 139.664 164.698 139.664C164.785 139.664 164.871 139.698 164.958 139.767C165.23 139.989 165.502 140.156 165.774 140.267C166.046 140.372 166.33 140.425 166.627 140.425C167.085 140.425 167.443 140.295 167.703 140.035C167.963 139.776 168.092 139.423 168.092 138.978C168.092 138.545 167.963 138.196 167.703 137.93C167.443 137.664 167.094 137.531 166.655 137.531C166.092 137.531 165.635 137.748 165.282 138.181C165.196 138.273 165.091 138.32 164.967 138.32C164.88 138.32 164.806 138.295 164.744 138.245C164.689 138.19 164.661 138.116 164.661 138.023V134.823C164.661 134.718 164.692 134.632 164.754 134.564C164.822 134.496 164.914 134.462 165.032 134.462H168.296C168.408 134.462 168.494 134.489 168.556 134.545C168.624 134.601 168.658 134.678 168.658 134.777C168.658 134.876 168.624 134.953 168.556 135.009C168.494 135.064 168.408 135.092 168.296 135.092H165.412V137.42C165.585 137.253 165.786 137.126 166.015 137.04C166.25 136.947 166.503 136.901 166.775 136.901ZM178.307 134.415C178.425 134.415 178.515 134.452 178.576 134.526C178.644 134.594 178.678 134.687 178.678 134.805V140.675C178.678 140.787 178.648 140.876 178.586 140.944C178.524 141.012 178.437 141.046 178.326 141.046C178.215 141.046 178.131 141.012 178.076 140.944C178.02 140.876 177.992 140.787 177.992 140.675V135.936L175.98 139.794C175.893 139.974 175.766 140.063 175.599 140.063C175.439 140.063 175.312 139.974 175.219 139.794L173.197 135.983V140.675C173.197 140.787 173.166 140.876 173.105 140.944C173.049 141.012 172.965 141.046 172.854 141.046C172.743 141.046 172.656 141.012 172.594 140.944C172.533 140.876 172.502 140.787 172.502 140.675V134.805C172.502 134.687 172.536 134.594 172.604 134.526C172.672 134.452 172.764 134.415 172.882 134.415C173.036 134.415 173.16 134.505 173.253 134.684L175.609 139.201L177.936 134.684C177.986 134.585 178.038 134.517 178.094 134.48C178.156 134.437 178.227 134.415 178.307 134.415ZM184.01 137.643C184.387 137.742 184.677 137.927 184.881 138.199C185.092 138.471 185.197 138.811 185.197 139.219C185.197 139.794 185.008 140.236 184.631 140.546C184.254 140.849 183.719 141 183.026 141H180.689C180.572 141 180.476 140.966 180.402 140.898C180.334 140.83 180.3 140.74 180.3 140.629V134.833C180.3 134.721 180.334 134.632 180.402 134.564C180.476 134.496 180.572 134.462 180.689 134.462H182.924C183.598 134.462 184.121 134.61 184.492 134.907C184.863 135.203 185.048 135.624 185.048 136.168C185.048 136.52 184.956 136.823 184.77 137.077C184.591 137.33 184.337 137.519 184.01 137.643ZM181.051 137.364H182.813C183.302 137.364 183.669 137.266 183.917 137.068C184.17 136.87 184.297 136.582 184.297 136.205C184.297 135.463 183.802 135.092 182.813 135.092H181.051V137.364ZM182.952 140.369C183.465 140.369 183.843 140.277 184.084 140.091C184.331 139.899 184.455 139.603 184.455 139.201C184.455 138.397 183.954 137.995 182.952 137.995H181.051V140.369H182.952Z" fill="#15343A"/>
<path d="M288 173V176.75M297 176C297 180.971 292.971 185 288 185C283.029 185 279 180.971 279 176C279 171.029 283.029 167 288 167C292.971 167 297 171.029 297 176ZM288 179.75H288.008V179.758H288V179.75Z" stroke="#6444F4" stroke-width="1.32492" stroke-linecap="round" stroke-linejoin="round"/>
</svg>
