<svg width="353" height="151" viewBox="0 0 353 151" fill="none" xmlns="http://www.w3.org/2000/svg">
<g filter="url(#filter0_b_5561_8222)">
<rect width="353" height="150.837" rx="14.0172" fill="url(#paint0_linear_5561_8222)" fill-opacity="0.25"/>
<rect x="12.5693" y="12.5693" width="327.861" height="125.697" rx="8.37982" fill="#FEFDFF"/>
<path d="M27.7131 62.1397C27.3359 62.1397 27.0439 62.0362 26.837 61.8294C26.6423 61.6104 26.545 61.3123 26.545 60.9351V50.1851C26.545 49.7957 26.6423 49.4976 26.837 49.2908C27.0439 49.0839 27.3359 48.9805 27.7131 48.9805C28.0903 48.9805 28.3762 49.0839 28.5709 49.2908C28.7777 49.4976 28.8812 49.7957 28.8812 50.1851V60.9351C28.8812 61.3123 28.7838 61.6104 28.5891 61.8294C28.3945 62.0362 28.1024 62.1397 27.7131 62.1397ZM32.6086 62.1397C32.2435 62.1397 31.9637 62.0423 31.769 61.8476C31.5743 61.6408 31.477 61.3488 31.477 60.9716V54.0726C31.477 53.6954 31.5743 53.4095 31.769 53.2148C31.9637 53.0201 32.2374 52.9228 32.5903 52.9228C32.9432 52.9228 33.2169 53.0201 33.4116 53.2148C33.6063 53.4095 33.7036 53.6954 33.7036 54.0726V55.3137L33.5029 54.8574C33.7706 54.2125 34.1842 53.7258 34.744 53.3973C35.3158 53.0566 35.9607 52.8863 36.6786 52.8863C37.3965 52.8863 37.9866 53.0201 38.449 53.2878C38.9113 53.5555 39.2581 53.9631 39.4893 54.5106C39.7205 55.046 39.8361 55.7274 39.8361 56.5548V60.9716C39.8361 61.3488 39.7387 61.6408 39.544 61.8476C39.3494 62.0423 39.0695 62.1397 38.7045 62.1397C38.3395 62.1397 38.0535 62.0423 37.8467 61.8476C37.652 61.6408 37.5547 61.3488 37.5547 60.9716V56.6643C37.5547 55.9707 37.4208 55.4658 37.1531 55.1494C36.8976 54.8331 36.4961 54.6749 35.9485 54.6749C35.2793 54.6749 34.744 54.8878 34.3424 55.3137C33.9531 55.7274 33.7584 56.281 33.7584 56.9746V60.9716C33.7584 61.7503 33.3751 62.1397 32.6086 62.1397ZM45.4202 62.1762C44.897 62.1762 44.3434 62.1214 43.7594 62.0119C43.1753 61.9024 42.6521 61.7138 42.1898 61.4461C41.9951 61.3244 41.8552 61.1845 41.77 61.0263C41.697 60.856 41.6666 60.6917 41.6787 60.5336C41.7031 60.3632 41.7639 60.2172 41.8612 60.0955C41.9707 59.9738 42.1046 59.8948 42.2628 59.8583C42.4331 59.8218 42.6156 59.8522 42.8103 59.9495C43.297 60.1807 43.7533 60.345 44.1792 60.4423C44.605 60.5275 45.0248 60.5701 45.4385 60.5701C46.0225 60.5701 46.4545 60.4727 46.7343 60.278C47.0264 60.0712 47.1724 59.8035 47.1724 59.475C47.1724 59.1951 47.075 58.9822 46.8803 58.8362C46.6978 58.678 46.418 58.5624 46.0408 58.4894L44.2157 58.1426C43.4613 57.9966 42.8833 57.7229 42.4818 57.3213C42.0924 56.9076 41.8977 56.3783 41.8977 55.7335C41.8977 55.1494 42.0559 54.6445 42.3723 54.2186C42.7008 53.7927 43.151 53.4642 43.7229 53.233C44.2947 53.0019 44.9518 52.8863 45.694 52.8863C46.2294 52.8863 46.7282 52.9471 47.1906 53.0688C47.6651 53.1783 48.1214 53.3547 48.5595 53.5981C48.742 53.6954 48.8636 53.8232 48.9245 53.9813C48.9975 54.1395 49.0157 54.3038 48.9792 54.4741C48.9427 54.6323 48.8697 54.7783 48.7602 54.9122C48.6507 55.0338 48.5108 55.1129 48.3404 55.1494C48.1823 55.1738 47.9998 55.1373 47.7929 55.0399C47.4157 54.8452 47.0507 54.7053 46.6978 54.6201C46.3571 54.535 46.0286 54.4924 45.7123 54.4924C45.1161 54.4924 44.6719 54.5958 44.3799 54.8026C44.1001 55.0095 43.9601 55.2833 43.9601 55.624C43.9601 55.8795 44.0453 56.0924 44.2157 56.2628C44.386 56.4331 44.6476 56.5487 45.0005 56.6095L46.8256 56.9563C47.6165 57.1023 48.2127 57.37 48.6142 57.7594C49.0279 58.1487 49.2348 58.6719 49.2348 59.329C49.2348 60.2172 48.888 60.9168 48.1944 61.4279C47.5009 61.9267 46.5762 62.1762 45.4202 62.1762ZM55.4636 62.1762C54.4537 62.1762 53.5837 61.9876 52.8536 61.6104C52.1236 61.2332 51.5578 60.6978 51.1563 60.0043C50.7669 59.3107 50.5722 58.4894 50.5722 57.5403C50.5722 56.6156 50.7608 55.8065 51.138 55.1129C51.5274 54.4194 52.0567 53.8779 52.7259 53.4886C53.4073 53.087 54.1799 52.8863 55.0438 52.8863C55.6765 52.8863 56.2423 52.9897 56.7412 53.1965C57.2522 53.4034 57.6841 53.7015 58.037 54.0908C58.402 54.4802 58.6758 54.9547 58.8583 55.5144C59.053 56.062 59.1503 56.6825 59.1503 57.3761C59.1503 57.5951 59.0712 57.7654 58.9131 57.8871C58.7671 57.9966 58.5541 58.0514 58.2743 58.0514H52.4156V56.7373H57.5442L57.2522 57.0111C57.2522 56.4513 57.167 55.9829 56.9967 55.6057C56.8385 55.2285 56.6012 54.9426 56.2849 54.7479C55.9807 54.541 55.5974 54.4376 55.1351 54.4376C54.624 54.4376 54.186 54.5593 53.821 54.8026C53.4681 55.0338 53.1943 55.3684 52.9997 55.8065C52.8171 56.2323 52.7259 56.7434 52.7259 57.3396V57.4673C52.7259 58.4651 52.9571 59.2134 53.4194 59.7122C53.894 60.1989 54.5875 60.4423 55.5001 60.4423C55.8164 60.4423 56.1693 60.4058 56.5587 60.3328C56.9602 60.2476 57.3374 60.1077 57.6902 59.913C57.9458 59.767 58.1708 59.7062 58.3655 59.7305C58.5602 59.7427 58.7123 59.8096 58.8218 59.9313C58.9435 60.0529 59.0165 60.205 59.0408 60.3875C59.0652 60.5579 59.0287 60.7343 58.9313 60.9168C58.8461 61.0993 58.6941 61.2575 58.475 61.3914C58.0492 61.659 57.5564 61.8598 56.9967 61.9937C56.4491 62.1153 55.9381 62.1762 55.4636 62.1762ZM62.1252 62.1397C61.748 62.1397 61.4559 62.0423 61.2491 61.8476C61.0544 61.6408 60.9571 61.3488 60.9571 60.9716V54.0726C60.9571 53.6954 61.0544 53.4095 61.2491 53.2148C61.4438 53.0201 61.7175 52.9228 62.0704 52.9228C62.4233 52.9228 62.697 53.0201 62.8917 53.2148C63.0864 53.4095 63.1837 53.6954 63.1837 54.0726V55.2224H63.0012C63.1716 54.4924 63.5062 53.9388 64.005 53.5616C64.5039 53.1844 65.167 52.9593 65.9944 52.8863C66.2499 52.8619 66.4507 52.9289 66.5967 53.087C66.7549 53.233 66.8461 53.4642 66.8705 53.7806C66.8948 54.0848 66.8218 54.3342 66.6515 54.5289C66.4933 54.7114 66.2499 54.8209 65.9214 54.8574L65.5199 54.8939C64.7777 54.9669 64.218 55.1981 63.8408 55.5875C63.4636 55.9646 63.275 56.5 63.275 57.1936V60.9716C63.275 61.3488 63.1776 61.6408 62.983 61.8476C62.7883 62.0423 62.5023 62.1397 62.1252 62.1397ZM72.7095 62.1762C71.9186 62.1762 71.2554 62.0423 70.7201 61.7746C70.1969 61.507 69.8075 61.1176 69.552 60.6066C69.2965 60.0834 69.1687 59.4385 69.1687 58.6719V54.7844H68.2196C67.9276 54.7844 67.7025 54.7114 67.5444 54.5654C67.3862 54.4072 67.3071 54.1943 67.3071 53.9266C67.3071 53.6467 67.3862 53.4338 67.5444 53.2878C67.7025 53.1418 67.9276 53.0688 68.2196 53.0688H69.1687V51.4079C69.1687 51.0307 69.2661 50.7448 69.4607 50.5501C69.6676 50.3554 69.9535 50.2581 70.3185 50.2581C70.6836 50.2581 70.9634 50.3554 71.1581 50.5501C71.3528 50.7448 71.4501 51.0307 71.4501 51.4079V53.0688H73.3848C73.6768 53.0688 73.9019 53.1418 74.0601 53.2878C74.2182 53.4338 74.2973 53.6467 74.2973 53.9266C74.2973 54.1943 74.2182 54.4072 74.0601 54.5654C73.9019 54.7114 73.6768 54.7844 73.3848 54.7844H71.4501V58.5442C71.4501 59.1282 71.5779 59.5662 71.8334 59.8583C72.0889 60.1503 72.5026 60.2963 73.0745 60.2963C73.2813 60.2963 73.4639 60.278 73.622 60.2415C73.7802 60.205 73.9201 60.1807 74.0418 60.1685C74.1878 60.1564 74.3095 60.205 74.4068 60.3145C74.5042 60.4119 74.5528 60.6187 74.5528 60.9351C74.5528 61.1784 74.5103 61.3974 74.4251 61.5921C74.3521 61.7746 74.2122 61.9024 74.0053 61.9754C73.8471 62.0241 73.6403 62.0667 73.3848 62.1032C73.1292 62.1518 72.9041 62.1762 72.7095 62.1762ZM83.5192 62.1762C82.8743 62.1762 82.2964 62.0545 81.7853 61.8111C81.2865 61.5556 80.891 61.2149 80.599 60.7891C80.3192 60.3632 80.1792 59.8826 80.1792 59.3472C80.1792 58.6902 80.3496 58.1731 80.6903 57.7959C81.031 57.4065 81.5846 57.1266 82.3511 56.9563C83.1177 56.786 84.1458 56.7008 85.4356 56.7008H86.3482V58.0149H85.4538C84.6995 58.0149 84.0972 58.0514 83.647 58.1244C83.1968 58.1974 82.8743 58.3251 82.6797 58.5077C82.4971 58.678 82.4059 58.9214 82.4059 59.2377C82.4059 59.6392 82.5458 59.9678 82.8257 60.2233C83.1055 60.4788 83.4949 60.6066 83.9937 60.6066C84.3953 60.6066 84.7481 60.5153 85.0523 60.3328C85.3687 60.1381 85.6181 59.8765 85.8006 59.548C85.9831 59.2195 86.0744 58.8423 86.0744 58.4164V56.3175C86.0744 55.7091 85.9405 55.2711 85.6729 55.0034C85.4052 54.7357 84.955 54.6019 84.3223 54.6019C83.9694 54.6019 83.5861 54.6445 83.1724 54.7296C82.7709 54.8148 82.345 54.9608 81.8948 55.1677C81.6637 55.2772 81.4568 55.3076 81.2743 55.2589C81.104 55.2103 80.9701 55.1129 80.8728 54.9669C80.7754 54.8087 80.7268 54.6384 80.7268 54.4559C80.7268 54.2734 80.7754 54.0969 80.8728 53.9266C80.9701 53.7441 81.1344 53.6102 81.3656 53.5251C81.9253 53.2939 82.4606 53.1296 82.9717 53.0323C83.4949 52.9349 83.9694 52.8863 84.3953 52.8863C85.2713 52.8863 85.9892 53.0201 86.5489 53.2878C87.1208 53.5555 87.5467 53.9631 87.8265 54.5106C88.1064 55.046 88.2463 55.7395 88.2463 56.5913V60.9716C88.2463 61.3488 88.155 61.6408 87.9725 61.8476C87.79 62.0423 87.5284 62.1397 87.1877 62.1397C86.847 62.1397 86.5793 62.0423 86.3847 61.8476C86.2022 61.6408 86.1109 61.3488 86.1109 60.9716V60.0955H86.2569C86.1717 60.5214 86.0014 60.8925 85.7459 61.2088C85.5025 61.513 85.1922 61.7503 84.8151 61.9206C84.4379 62.091 84.0059 62.1762 83.5192 62.1762ZM99.9702 62.1397C99.593 62.1397 99.301 62.0362 99.0941 61.8294C98.8994 61.6104 98.8021 61.3062 98.8021 60.9168V55.3684L99.2949 56.7738L94.8963 50.5866C94.7381 50.3676 94.6651 50.1364 94.6773 49.8931C94.7016 49.6375 94.8051 49.4246 94.9876 49.2543C95.1701 49.0717 95.4256 48.9805 95.7541 48.9805C95.9975 48.9805 96.2165 49.0413 96.4112 49.163C96.618 49.2847 96.8127 49.4733 96.9952 49.7288L100.262 54.3646H99.7512L103.036 49.7288C103.231 49.4611 103.42 49.2725 103.602 49.163C103.785 49.0413 104.01 48.9805 104.277 48.9805C104.594 48.9805 104.837 49.0657 105.008 49.236C105.19 49.3942 105.281 49.595 105.281 49.8383C105.293 50.0817 105.208 50.3372 105.026 50.6049L100.664 56.7738L101.138 55.3684V60.9168C101.138 61.7321 100.749 62.1397 99.9702 62.1397ZM109.354 62.1762C108.429 62.1762 107.626 61.9876 106.945 61.6104C106.264 61.2332 105.734 60.6978 105.357 60.0043C104.98 59.2985 104.791 58.4712 104.791 57.5221C104.791 56.8042 104.895 56.1654 105.102 55.6057C105.321 55.0338 105.631 54.5471 106.032 54.1456C106.434 53.7319 106.915 53.4216 107.474 53.2148C108.034 52.9958 108.661 52.8863 109.354 52.8863C110.279 52.8863 111.082 53.0749 111.763 53.4521C112.445 53.8292 112.974 54.3646 113.351 55.0582C113.728 55.7517 113.917 56.573 113.917 57.5221C113.917 58.24 113.807 58.8849 113.588 59.4567C113.382 60.0286 113.077 60.5214 112.676 60.9351C112.274 61.3366 111.794 61.6469 111.234 61.8659C110.674 62.0727 110.048 62.1762 109.354 62.1762ZM109.354 60.4423C109.804 60.4423 110.2 60.3328 110.541 60.1138C110.881 59.8948 111.143 59.5723 111.325 59.1465C111.52 58.7084 111.617 58.167 111.617 57.5221C111.617 56.5487 111.41 55.8247 110.997 55.3502C110.583 54.8635 110.036 54.6201 109.354 54.6201C108.904 54.6201 108.509 54.7296 108.168 54.9487C107.827 55.1555 107.559 55.4779 107.365 55.916C107.182 56.3418 107.091 56.8772 107.091 57.5221C107.091 58.4833 107.298 59.2134 107.712 59.7122C108.125 60.1989 108.673 60.4423 109.354 60.4423ZM119.03 62.1762C118.288 62.1762 117.674 62.0423 117.187 61.7746C116.7 61.4948 116.335 61.0811 116.092 60.5336C115.861 59.986 115.745 59.3046 115.745 58.4894V54.0726C115.745 53.6832 115.843 53.3973 116.037 53.2148C116.232 53.0201 116.512 52.9228 116.877 52.9228C117.242 52.9228 117.522 53.0201 117.716 53.2148C117.923 53.3973 118.027 53.6832 118.027 54.0726V58.5259C118.027 59.1586 118.154 59.6271 118.41 59.9313C118.665 60.2354 119.073 60.3875 119.633 60.3875C120.241 60.3875 120.74 60.1807 121.129 59.767C121.519 59.3411 121.713 58.7814 121.713 58.0879V54.0726C121.713 53.6832 121.811 53.3973 122.005 53.2148C122.2 53.0201 122.48 52.9228 122.845 52.9228C123.21 52.9228 123.49 53.0201 123.685 53.2148C123.891 53.3973 123.995 53.6832 123.995 54.0726V60.9716C123.995 61.7503 123.624 62.1397 122.882 62.1397C122.529 62.1397 122.255 62.0423 122.06 61.8476C121.866 61.6408 121.768 61.3488 121.768 60.9716V59.5845L122.024 60.132C121.768 60.7891 121.379 61.294 120.856 61.6469C120.345 61.9997 119.736 62.1762 119.03 62.1762ZM130.859 62.1397C130.482 62.1397 130.19 62.0362 129.983 61.8294C129.788 61.6104 129.691 61.3123 129.691 60.9351V51.0794H126.132C125.816 51.0794 125.566 50.9942 125.384 50.8239C125.213 50.6414 125.128 50.398 125.128 50.0938C125.128 49.7775 125.213 49.5402 125.384 49.382C125.566 49.2117 125.816 49.1265 126.132 49.1265H135.586C135.903 49.1265 136.146 49.2117 136.316 49.382C136.499 49.5402 136.59 49.7775 136.59 50.0938C136.59 50.398 136.499 50.6414 136.316 50.8239C136.146 50.9942 135.903 51.0794 135.586 51.0794H132.027V60.9351C132.027 61.3123 131.93 61.6104 131.735 61.8294C131.541 62.0362 131.249 62.1397 130.859 62.1397ZM139.563 62.1762C138.821 62.1762 138.207 62.0423 137.72 61.7746C137.233 61.4948 136.868 61.0811 136.625 60.5336C136.394 59.986 136.278 59.3046 136.278 58.4894V54.0726C136.278 53.6832 136.375 53.3973 136.57 53.2148C136.765 53.0201 137.045 52.9228 137.41 52.9228C137.775 52.9228 138.054 53.0201 138.249 53.2148C138.456 53.3973 138.559 53.6832 138.559 54.0726V58.5259C138.559 59.1586 138.687 59.6271 138.943 59.9313C139.198 60.2354 139.606 60.3875 140.165 60.3875C140.774 60.3875 141.273 60.1807 141.662 59.767C142.051 59.3411 142.246 58.7814 142.246 58.0879V54.0726C142.246 53.6832 142.343 53.3973 142.538 53.2148C142.733 53.0201 143.013 52.9228 143.378 52.9228C143.743 52.9228 144.023 53.0201 144.217 53.2148C144.424 53.3973 144.528 53.6832 144.528 54.0726V60.9716C144.528 61.7503 144.156 62.1397 143.414 62.1397C143.061 62.1397 142.788 62.0423 142.593 61.8476C142.398 61.6408 142.301 61.3488 142.301 60.9716V59.5845L142.556 60.132C142.301 60.7891 141.912 61.294 141.388 61.6469C140.877 61.9997 140.269 62.1762 139.563 62.1762ZM152.049 62.1762C151.295 62.1762 150.631 61.9876 150.06 61.6104C149.5 61.2332 149.129 60.7282 148.946 60.0955L149.147 59.6392V60.9716C149.147 61.3488 149.05 61.6408 148.855 61.8476C148.66 62.0423 148.386 62.1397 148.034 62.1397C147.669 62.1397 147.389 62.0423 147.194 61.8476C146.999 61.6408 146.902 61.3488 146.902 60.9716V50.1303C146.902 49.7531 146.999 49.4672 147.194 49.2725C147.389 49.0778 147.669 48.9805 148.034 48.9805C148.399 48.9805 148.679 49.0778 148.873 49.2725C149.08 49.4672 149.183 49.7531 149.183 50.1303V54.8757H148.964C149.159 54.2794 149.536 53.7988 150.096 53.4338C150.656 53.0688 151.307 52.8863 152.049 52.8863C152.84 52.8863 153.527 53.0749 154.111 53.4521C154.695 53.8292 155.152 54.3646 155.48 55.0582C155.809 55.7395 155.973 56.5609 155.973 57.5221C155.973 58.4712 155.809 59.2985 155.48 60.0043C155.152 60.6978 154.689 61.2332 154.093 61.6104C153.509 61.9876 152.828 62.1762 152.049 62.1762ZM151.41 60.4423C151.86 60.4423 152.256 60.3328 152.596 60.1138C152.937 59.8948 153.199 59.5723 153.381 59.1465C153.576 58.7084 153.673 58.167 153.673 57.5221C153.673 56.5487 153.466 55.8247 153.053 55.3502C152.639 54.8635 152.092 54.6201 151.41 54.6201C150.96 54.6201 150.564 54.7296 150.224 54.9487C149.883 55.1555 149.615 55.4779 149.421 55.916C149.238 56.3418 149.147 56.8772 149.147 57.5221C149.147 58.4833 149.354 59.2134 149.768 59.7122C150.181 60.1989 150.729 60.4423 151.41 60.4423ZM162.244 62.1762C161.234 62.1762 160.364 61.9876 159.634 61.6104C158.904 61.2332 158.338 60.6978 157.937 60.0043C157.548 59.3107 157.353 58.4894 157.353 57.5403C157.353 56.6156 157.542 55.8065 157.919 55.1129C158.308 54.4194 158.837 53.8779 159.507 53.4886C160.188 53.087 160.961 52.8863 161.824 52.8863C162.457 52.8863 163.023 52.9897 163.522 53.1965C164.033 53.4034 164.465 53.7015 164.818 54.0908C165.183 54.4802 165.456 54.9547 165.639 55.5144C165.834 56.062 165.931 56.6825 165.931 57.3761C165.931 57.5951 165.852 57.7654 165.694 57.8871C165.548 57.9966 165.335 58.0514 165.055 58.0514H159.196V56.7373H164.325L164.033 57.0111C164.033 56.4513 163.948 55.9829 163.777 55.6057C163.619 55.2285 163.382 54.9426 163.066 54.7479C162.761 54.541 162.378 54.4376 161.916 54.4376C161.405 54.4376 160.967 54.5593 160.602 54.8026C160.249 55.0338 159.975 55.3684 159.78 55.8065C159.598 56.2323 159.507 56.7434 159.507 57.3396V57.4673C159.507 58.4651 159.738 59.2134 160.2 59.7122C160.675 60.1989 161.368 60.4423 162.281 60.4423C162.597 60.4423 162.95 60.4058 163.339 60.3328C163.741 60.2476 164.118 60.1077 164.471 59.913C164.726 59.767 164.952 59.7062 165.146 59.7305C165.341 59.7427 165.493 59.8096 165.602 59.9313C165.724 60.0529 165.797 60.205 165.822 60.3875C165.846 60.5579 165.809 60.7343 165.712 60.9168C165.627 61.0993 165.475 61.2575 165.256 61.3914C164.83 61.659 164.337 61.8598 163.777 61.9937C163.23 62.1153 162.719 62.1762 162.244 62.1762ZM175.741 62.1762C174.731 62.1762 173.97 61.8902 173.459 61.3184C172.948 60.7343 172.693 59.8826 172.693 58.7632V50.1303C172.693 49.7531 172.79 49.4672 172.985 49.2725C173.179 49.0778 173.459 48.9805 173.824 48.9805C174.189 48.9805 174.469 49.0778 174.664 49.2725C174.871 49.4672 174.974 49.7531 174.974 50.1303V58.6537C174.974 59.2134 175.09 59.6271 175.321 59.8948C175.564 60.1624 175.905 60.2963 176.343 60.2963C176.44 60.2963 176.532 60.2963 176.617 60.2963C176.702 60.2841 176.787 60.2719 176.872 60.2598C177.043 60.2354 177.158 60.2841 177.219 60.4058C177.28 60.5153 177.31 60.7465 177.31 61.0993C177.31 61.4035 177.249 61.6408 177.128 61.8111C177.006 61.9815 176.805 62.0849 176.525 62.1214C176.404 62.1336 176.276 62.1457 176.142 62.1579C176.008 62.1701 175.874 62.1762 175.741 62.1762ZM179.653 62.1214C179.288 62.1214 179.008 62.0119 178.813 61.7929C178.618 61.5739 178.521 61.2697 178.521 60.8803V54.1821C178.521 53.7806 178.618 53.4764 178.813 53.2695C179.008 53.0505 179.288 52.941 179.653 52.941C180.018 52.941 180.297 53.0505 180.492 53.2695C180.699 53.4764 180.802 53.7806 180.802 54.1821V60.8803C180.802 61.2697 180.705 61.5739 180.51 61.7929C180.316 62.0119 180.03 62.1214 179.653 62.1214ZM179.653 51.2436C179.227 51.2436 178.892 51.1402 178.649 50.9334C178.418 50.7144 178.302 50.4163 178.302 50.0391C178.302 49.6497 178.418 49.3516 178.649 49.1448C178.892 48.9379 179.227 48.8345 179.653 48.8345C180.091 48.8345 180.425 48.9379 180.656 49.1448C180.888 49.3516 181.003 49.6497 181.003 50.0391C181.003 50.4163 180.888 50.7144 180.656 50.9334C180.425 51.1402 180.091 51.2436 179.653 51.2436ZM184.304 62.1397C183.939 62.1397 183.66 62.0423 183.465 61.8476C183.27 61.6408 183.173 61.3488 183.173 60.9716V54.0726C183.173 53.6954 183.27 53.4095 183.465 53.2148C183.66 53.0201 183.933 52.9228 184.286 52.9228C184.639 52.9228 184.913 53.0201 185.108 53.2148C185.302 53.4095 185.4 53.6954 185.4 54.0726V55.3137L185.199 54.8574C185.466 54.2125 185.88 53.7258 186.44 53.3973C187.012 53.0566 187.657 52.8863 188.375 52.8863C189.092 52.8863 189.683 53.0201 190.145 53.2878C190.607 53.5555 190.954 53.9631 191.185 54.5106C191.416 55.046 191.532 55.7274 191.532 56.5548V60.9716C191.532 61.3488 191.435 61.6408 191.24 61.8476C191.045 62.0423 190.765 62.1397 190.4 62.1397C190.035 62.1397 189.749 62.0423 189.543 61.8476C189.348 61.6408 189.251 61.3488 189.251 60.9716V56.6643C189.251 55.9707 189.117 55.4658 188.849 55.1494C188.594 54.8331 188.192 54.6749 187.644 54.6749C186.975 54.6749 186.44 54.8878 186.038 55.3137C185.649 55.7274 185.454 56.281 185.454 56.9746V60.9716C185.454 61.7503 185.071 62.1397 184.304 62.1397ZM194.981 62.1397C194.616 62.1397 194.336 62.0423 194.141 61.8476C193.947 61.6408 193.849 61.3488 193.849 60.9716V50.1303C193.849 49.7531 193.947 49.4672 194.141 49.2725C194.336 49.0778 194.616 48.9805 194.981 48.9805C195.346 48.9805 195.626 49.0778 195.82 49.2725C196.027 49.4672 196.131 49.7531 196.131 50.1303V56.865H196.167L199.179 53.6893C199.422 53.446 199.635 53.2574 199.817 53.1235C200 52.9897 200.249 52.9228 200.566 52.9228C200.882 52.9228 201.119 53.0079 201.277 53.1783C201.448 53.3365 201.533 53.5311 201.533 53.7623C201.533 53.9935 201.423 54.2247 201.204 54.4559L198.029 57.8141V56.865L201.515 60.6248C201.734 60.856 201.831 61.0933 201.807 61.3366C201.795 61.5678 201.697 61.7625 201.515 61.9206C201.332 62.0667 201.101 62.1397 200.821 62.1397C200.48 62.1397 200.207 62.0727 200 61.9389C199.805 61.8051 199.586 61.6043 199.343 61.3366L196.167 58.0149H196.131V60.9716C196.131 61.7503 195.747 62.1397 194.981 62.1397Z" fill="#6444F4"/>
<path d="M25.4656 84.6375C25.4656 81.9375 27.6543 79.7488 30.3543 79.7488H323.027C325.727 79.7488 327.915 81.9375 327.915 84.6375V102.889C327.915 105.589 325.727 107.778 323.027 107.778H30.3543C27.6543 107.778 25.4656 105.589 25.4656 102.889V84.6375Z" fill="#FEFDFF"/>
<path d="M25.4656 84.6375C25.4656 81.9375 27.6543 79.7488 30.3543 79.7488H323.027C325.727 79.7488 327.915 81.9375 327.915 84.6375V102.889C327.915 105.589 325.727 107.778 323.027 107.778H30.3543C27.6543 107.778 25.4656 105.589 25.4656 102.889V84.6375Z" stroke="#94A3B8" stroke-width="0.651831"/>
<path d="M34.1921 96.0144C34.0461 96.0144 33.9314 95.9727 33.8479 95.8893C33.7645 95.8058 33.7228 95.6842 33.7228 95.5242V88.9955C33.7228 88.8356 33.7645 88.7174 33.8479 88.6409C33.9314 88.5575 34.0461 88.5157 34.1921 88.5157C34.345 88.5157 34.4632 88.5575 34.5467 88.6409C34.6301 88.7174 34.6718 88.8356 34.6718 88.9955V91.9678H34.5363C34.6823 91.5715 34.9187 91.2726 35.2454 91.0709C35.5792 90.8693 35.9581 90.7685 36.3822 90.7685C36.7925 90.7685 37.1297 90.845 37.3939 90.9979C37.6581 91.1439 37.8562 91.3664 37.9883 91.6654C38.1205 91.9644 38.1865 92.3398 38.1865 92.7918V95.5242C38.1865 95.6842 38.1448 95.8058 38.0614 95.8893C37.9849 95.9727 37.8702 96.0144 37.7172 96.0144C37.5642 96.0144 37.446 95.9727 37.3626 95.8893C37.2792 95.8058 37.2374 95.6842 37.2374 95.5242V92.8439C37.2374 92.392 37.1505 92.0617 36.9767 91.8531C36.8029 91.6445 36.5248 91.5402 36.1424 91.5402C35.6974 91.5402 35.3393 91.6793 35.0681 91.9574C34.8039 92.2286 34.6718 92.5971 34.6718 93.0629V95.5242C34.6718 95.851 34.5119 96.0144 34.1921 96.0144ZM41.7978 96.0353C41.3876 96.0353 41.0434 95.9623 40.7653 95.8163C40.4942 95.6702 40.289 95.4582 40.15 95.1801C40.0179 94.902 39.9518 94.5613 39.9518 94.158V91.5924H39.2844C39.1592 91.5924 39.0619 91.5611 38.9923 91.4985C38.9228 91.429 38.888 91.3386 38.888 91.2274C38.888 91.1092 38.9228 91.0188 38.9923 90.9562C39.0619 90.8936 39.1592 90.8623 39.2844 90.8623H39.9518V89.7255C39.9518 89.5656 39.9935 89.4474 40.077 89.3709C40.1604 89.2875 40.2786 89.2458 40.4316 89.2458C40.5845 89.2458 40.6993 89.2875 40.7757 89.3709C40.8592 89.4474 40.9009 89.5656 40.9009 89.7255V90.8623H42.1628C42.2949 90.8623 42.3958 90.8936 42.4653 90.9562C42.5348 91.0188 42.5696 91.1092 42.5696 91.2274C42.5696 91.3386 42.5348 91.429 42.4653 91.4985C42.3958 91.5611 42.2949 91.5924 42.1628 91.5924H40.9009V94.0746C40.9009 94.457 40.9809 94.7455 41.1408 94.9402C41.3007 95.1349 41.5649 95.2322 41.9334 95.2322C42.0655 95.2322 42.1767 95.2218 42.2671 95.2009C42.3575 95.1731 42.4375 95.1592 42.507 95.1592C42.5696 95.1523 42.6217 95.1731 42.6634 95.2218C42.7121 95.2705 42.7365 95.3608 42.7365 95.4929C42.7365 95.5903 42.7191 95.6807 42.6843 95.7641C42.6565 95.8406 42.5974 95.8927 42.507 95.9205C42.4236 95.9484 42.3123 95.9727 42.1733 95.9936C42.0342 96.0214 41.9091 96.0353 41.7978 96.0353ZM45.3625 96.0353C44.9523 96.0353 44.6081 95.9623 44.33 95.8163C44.0589 95.6702 43.8537 95.4582 43.7147 95.1801C43.5826 94.902 43.5165 94.5613 43.5165 94.158V91.5924H42.8491C42.7239 91.5924 42.6266 91.5611 42.557 91.4985C42.4875 91.429 42.4527 91.3386 42.4527 91.2274C42.4527 91.1092 42.4875 91.0188 42.557 90.9562C42.6266 90.8936 42.7239 90.8623 42.8491 90.8623H43.5165V89.7255C43.5165 89.5656 43.5582 89.4474 43.6417 89.3709C43.7251 89.2875 43.8433 89.2458 43.9963 89.2458C44.1492 89.2458 44.264 89.2875 44.3404 89.3709C44.4239 89.4474 44.4656 89.5656 44.4656 89.7255V90.8623H45.7275C45.8596 90.8623 45.9605 90.8936 46.03 90.9562C46.0995 91.0188 46.1343 91.1092 46.1343 91.2274C46.1343 91.3386 46.0995 91.429 46.03 91.4985C45.9605 91.5611 45.8596 91.5924 45.7275 91.5924H44.4656V94.0746C44.4656 94.457 44.5456 94.7455 44.7055 94.9402C44.8654 95.1349 45.1296 95.2322 45.4981 95.2322C45.6302 95.2322 45.7414 95.2218 45.8318 95.2009C45.9222 95.1731 46.0022 95.1592 46.0717 95.1592C46.1343 95.1523 46.1864 95.1731 46.2281 95.2218C46.2768 95.2705 46.3012 95.3608 46.3012 95.4929C46.3012 95.5903 46.2838 95.6807 46.249 95.7641C46.2212 95.8406 46.1621 95.8927 46.0717 95.9205C45.9883 95.9484 45.877 95.9727 45.738 95.9936C45.5989 96.0214 45.4738 96.0353 45.3625 96.0353ZM47.463 97.8917C47.317 97.8917 47.2022 97.85 47.1188 97.7665C47.0354 97.6831 46.9936 97.5649 46.9936 97.4119V91.2691C46.9936 91.1092 47.0354 90.991 47.1188 90.9145C47.2022 90.831 47.317 90.7893 47.463 90.7893C47.6159 90.7893 47.7306 90.831 47.8071 90.9145C47.8906 90.991 47.9323 91.1092 47.9323 91.2691V92.2181L47.8176 92.0304C47.9288 91.648 48.1478 91.3421 48.4746 91.1126C48.8014 90.8832 49.1942 90.7685 49.6531 90.7685C50.1051 90.7685 50.4979 90.8762 50.8316 91.0918C51.1654 91.3004 51.4261 91.6028 51.6138 91.9991C51.8016 92.3885 51.8954 92.8543 51.8954 93.3967C51.8954 93.932 51.8016 94.4013 51.6138 94.8046C51.433 95.2009 51.1723 95.5069 50.8316 95.7224C50.4979 95.931 50.1051 96.0353 49.6531 96.0353C49.2012 96.0353 48.8118 95.9205 48.485 95.6911C48.1582 95.4617 47.9392 95.1592 47.828 94.7838H47.9427V97.4119C47.9427 97.5649 47.901 97.6831 47.8176 97.7665C47.7341 97.85 47.6159 97.8917 47.463 97.8917ZM49.4341 95.2844C49.7331 95.2844 49.9938 95.2114 50.2163 95.0653C50.4457 94.9193 50.623 94.7073 50.7482 94.4292C50.8733 94.151 50.9359 93.8069 50.9359 93.3967C50.9359 92.7848 50.8003 92.319 50.5292 91.9991C50.258 91.6793 49.893 91.5194 49.4341 91.5194C49.1282 91.5194 48.8605 91.5924 48.631 91.7384C48.4086 91.8775 48.2347 92.086 48.1096 92.3642C47.9914 92.6423 47.9323 92.9864 47.9323 93.3967C47.9323 94.0085 48.0679 94.4778 48.339 94.8046C48.6102 95.1244 48.9752 95.2844 49.4341 95.2844ZM54.8669 96.0353C54.554 96.0353 54.2376 96.0005 53.9178 95.931C53.6049 95.8545 53.3094 95.7259 53.0313 95.5451C52.9548 95.4964 52.8992 95.4373 52.8644 95.3678C52.8366 95.2913 52.8262 95.2183 52.8332 95.1488C52.8471 95.0723 52.8783 95.0062 52.927 94.9506C52.9757 94.895 53.0348 94.8637 53.1043 94.8568C53.1808 94.8429 53.2608 94.8602 53.3442 94.9089C53.6154 95.0619 53.8761 95.1696 54.1264 95.2322C54.3836 95.2948 54.6374 95.3261 54.8877 95.3261C55.2701 95.3261 55.5587 95.2565 55.7534 95.1175C55.948 94.9784 56.0454 94.7942 56.0454 94.5647C56.0454 94.3701 55.9793 94.2206 55.8472 94.1163C55.7221 94.005 55.5239 93.9216 55.2528 93.866L54.2828 93.6678C53.8517 93.5705 53.525 93.4106 53.3025 93.1881C53.0869 92.9586 52.9792 92.6666 52.9792 92.312C52.9792 91.9991 53.0626 91.728 53.2295 91.4985C53.4033 91.2621 53.6432 91.0814 53.9491 90.9562C54.255 90.831 54.6061 90.7685 55.0024 90.7685C55.3084 90.7685 55.5969 90.8102 55.8681 90.8936C56.1462 90.9701 56.3965 91.0883 56.619 91.2482C56.7024 91.2969 56.7546 91.3595 56.7754 91.4359C56.8032 91.5055 56.8067 91.5785 56.7859 91.655C56.772 91.7245 56.7407 91.7836 56.692 91.8323C56.6433 91.8809 56.5808 91.9122 56.5043 91.9261C56.4278 91.9331 56.3444 91.9122 56.254 91.8635C56.0523 91.7245 55.8437 91.6272 55.6282 91.5715C55.4196 91.509 55.211 91.4777 55.0024 91.4777C54.627 91.4777 54.3419 91.5507 54.1472 91.6967C53.9595 91.8427 53.8657 92.0339 53.8657 92.2703C53.8657 92.4511 53.9213 92.6006 54.0325 92.7188C54.1507 92.837 54.335 92.9239 54.5853 92.9795L55.5552 93.1776C56.0071 93.275 56.3478 93.4314 56.5773 93.647C56.8067 93.8555 56.9214 94.1406 56.9214 94.5022C56.9214 94.975 56.7337 95.3504 56.3583 95.6285C55.9898 95.8997 55.4926 96.0353 54.8669 96.0353ZM58.6151 95.9831C58.4344 95.9831 58.2849 95.924 58.1667 95.8058C58.0485 95.6876 57.9894 95.5381 57.9894 95.3574C57.9894 95.1766 58.0485 95.0306 58.1667 94.9193C58.2849 94.8081 58.4344 94.7525 58.6151 94.7525C58.8098 94.7525 58.9593 94.8081 59.0636 94.9193C59.1748 95.0306 59.2305 95.1766 59.2305 95.3574C59.2305 95.5381 59.1748 95.6876 59.0636 95.8058C58.9593 95.924 58.8098 95.9831 58.6151 95.9831ZM58.6151 92.0513C58.4344 92.0513 58.2849 91.9957 58.1667 91.8844C58.0485 91.7662 57.9894 91.6167 57.9894 91.4359C57.9894 91.2552 58.0485 91.1092 58.1667 90.9979C58.2849 90.8797 58.4344 90.8206 58.6151 90.8206C58.8098 90.8206 58.9593 90.8797 59.0636 90.9979C59.1748 91.1092 59.2305 91.2552 59.2305 91.4359C59.2305 91.6167 59.1748 91.7662 59.0636 91.8844C58.9593 91.9957 58.8098 92.0513 58.6151 92.0513ZM61.0664 96.2856C61.0317 96.3899 60.9795 96.4629 60.91 96.5046C60.8474 96.5463 60.7744 96.5672 60.691 96.5672C60.6075 96.5672 60.5311 96.5463 60.4615 96.5046C60.399 96.4698 60.3538 96.4142 60.326 96.3377C60.2981 96.2612 60.2981 96.1674 60.326 96.0561L62.7873 88.4115C62.822 88.3141 62.8742 88.2446 62.9437 88.2029C63.0132 88.1542 63.0862 88.1299 63.1627 88.1299C63.2462 88.1299 63.3226 88.1507 63.3922 88.1924C63.4617 88.2342 63.5104 88.2933 63.5382 88.3697C63.566 88.4393 63.566 88.5296 63.5382 88.6409L61.0664 96.2856ZM63.6432 96.2856C63.6084 96.3899 63.5563 96.4629 63.4868 96.5046C63.4242 96.5463 63.3512 96.5672 63.2678 96.5672C63.1843 96.5672 63.1078 96.5463 63.0383 96.5046C62.9757 96.4698 62.9305 96.4142 62.9027 96.3377C62.8749 96.2612 62.8749 96.1674 62.9027 96.0561L65.364 88.4115C65.3988 88.3141 65.451 88.2446 65.5205 88.2029C65.59 88.1542 65.663 88.1299 65.7395 88.1299C65.8229 88.1299 65.8994 88.1507 65.9689 88.1924C66.0385 88.2342 66.0871 88.2933 66.115 88.3697C66.1428 88.4393 66.1428 88.5296 66.115 88.6409L63.6432 96.2856ZM68.2714 96.0144C68.1393 96.0144 68.0245 95.9831 67.9272 95.9205C67.8299 95.851 67.7534 95.7398 67.6978 95.5868L66.1438 91.4464C66.0951 91.3143 66.0812 91.1996 66.1021 91.1022C66.1229 91.0049 66.1716 90.9284 66.2481 90.8728C66.3246 90.8171 66.4254 90.7893 66.5505 90.7893C66.6687 90.7893 66.7626 90.8171 66.8321 90.8728C66.9017 90.9284 66.9608 91.0292 67.0094 91.1752L68.4278 95.1801H68.1775L69.6376 91.1544C69.6863 91.0292 69.7489 90.9388 69.8253 90.8832C69.9088 90.8206 70.0096 90.7893 70.1278 90.7893C70.2529 90.7893 70.3572 90.8206 70.4407 90.8832C70.5241 90.9388 70.5832 91.0292 70.618 91.1544L72.0572 95.1801H71.8173L73.2566 91.1544C73.3052 91.0153 73.3678 90.9214 73.4443 90.8728C73.5208 90.8171 73.6147 90.7893 73.7259 90.7893C73.851 90.7893 73.9449 90.8206 74.0075 90.8832C74.0701 90.9458 74.1048 91.0292 74.1118 91.1335C74.1257 91.2308 74.1118 91.3351 74.0701 91.4464L72.5161 95.5868C72.4674 95.7328 72.3909 95.8406 72.2867 95.9101C72.1893 95.9796 72.0746 96.0144 71.9425 96.0144C71.8104 96.0144 71.6922 95.9796 71.5879 95.9101C71.4906 95.8406 71.4141 95.7328 71.3584 95.5868L69.8671 91.4985H70.3468L68.8554 95.5868C68.7998 95.7328 68.7233 95.8406 68.626 95.9101C68.5286 95.9796 68.4104 96.0144 68.2714 96.0144ZM77.3155 96.0144C77.1834 96.0144 77.0687 95.9831 76.9714 95.9205C76.874 95.851 76.7975 95.7398 76.7419 95.5868L75.188 91.4464C75.1393 91.3143 75.1254 91.1996 75.1462 91.1022C75.1671 91.0049 75.2158 90.9284 75.2922 90.8728C75.3687 90.8171 75.4695 90.7893 75.5947 90.7893C75.7129 90.7893 75.8068 90.8171 75.8763 90.8728C75.9458 90.9284 76.0049 91.0292 76.0536 91.1752L77.472 95.1801H77.2217L78.6818 91.1544C78.7304 91.0292 78.793 90.9388 78.8695 90.8832C78.9529 90.8206 79.0537 90.7893 79.1719 90.7893C79.2971 90.7893 79.4014 90.8206 79.4848 90.8832C79.5683 90.9388 79.6274 91.0292 79.6621 91.1544L81.1014 95.1801H80.8615L82.3007 91.1544C82.3494 91.0153 82.412 90.9214 82.4885 90.8728C82.5649 90.8171 82.6588 90.7893 82.7701 90.7893C82.8952 90.7893 82.9891 90.8206 83.0516 90.8832C83.1142 90.9458 83.149 91.0292 83.1559 91.1335C83.1698 91.2308 83.1559 91.3351 83.1142 91.4464L81.5603 95.5868C81.5116 95.7328 81.4351 95.8406 81.3308 95.9101C81.2335 95.9796 81.1188 96.0144 80.9866 96.0144C80.8545 96.0144 80.7363 95.9796 80.632 95.9101C80.5347 95.8406 80.4582 95.7328 80.4026 95.5868L78.9112 91.4985H79.391L77.8996 95.5868C77.8439 95.7328 77.7675 95.8406 77.6701 95.9101C77.5728 95.9796 77.4546 96.0144 77.3155 96.0144ZM86.3597 96.0144C86.2276 96.0144 86.1129 95.9831 86.0155 95.9205C85.9182 95.851 85.8417 95.7398 85.7861 95.5868L84.2321 91.4464C84.1834 91.3143 84.1695 91.1996 84.1904 91.1022C84.2113 91.0049 84.2599 90.9284 84.3364 90.8728C84.4129 90.8171 84.5137 90.7893 84.6389 90.7893C84.7571 90.7893 84.8509 90.8171 84.9204 90.8728C84.99 90.9284 85.0491 91.0292 85.0977 91.1752L86.5161 95.1801H86.2658L87.7259 91.1544C87.7746 91.0292 87.8372 90.9388 87.9137 90.8832C87.9971 90.8206 88.0979 90.7893 88.2161 90.7893C88.3413 90.7893 88.4456 90.8206 88.529 90.8832C88.6124 90.9388 88.6715 91.0292 88.7063 91.1544L90.1455 95.1801H89.9057L91.3449 91.1544C91.3936 91.0153 91.4561 90.9214 91.5326 90.8728C91.6091 90.8171 91.703 90.7893 91.8142 90.7893C91.9394 90.7893 92.0332 90.8206 92.0958 90.8832C92.1584 90.9458 92.1931 91.0292 92.2001 91.1335C92.214 91.2308 92.2001 91.3351 92.1584 91.4464L90.6044 95.5868C90.5557 95.7328 90.4793 95.8406 90.375 95.9101C90.2776 95.9796 90.1629 96.0144 90.0308 96.0144C89.8987 96.0144 89.7805 95.9796 89.6762 95.9101C89.5789 95.8406 89.5024 95.7328 89.4468 95.5868L87.9554 91.4985H88.4351L86.9437 95.5868C86.8881 95.7328 86.8116 95.8406 86.7143 95.9101C86.6169 95.9796 86.4987 96.0144 86.3597 96.0144ZM93.3048 95.9831C93.124 95.9831 92.9745 95.924 92.8563 95.8058C92.7381 95.6876 92.679 95.5381 92.679 95.3574C92.679 95.1766 92.7381 95.0306 92.8563 94.9193C92.9745 94.8081 93.124 94.7525 93.3048 94.7525C93.4995 94.7525 93.649 94.8081 93.7533 94.9193C93.8645 95.0306 93.9201 95.1766 93.9201 95.3574C93.9201 95.5381 93.8645 95.6876 93.7533 95.8058C93.649 95.924 93.4995 95.9831 93.3048 95.9831ZM95.9389 97.8917C95.8277 97.8917 95.7338 97.8604 95.6573 97.7978C95.5878 97.7422 95.5461 97.6622 95.5322 97.5579C95.5252 97.4606 95.5461 97.3563 95.5948 97.2451L96.3039 95.639V96.0353L94.3328 91.4464C94.2841 91.3282 94.2668 91.2204 94.2807 91.1231C94.2946 91.0257 94.3398 90.9458 94.4162 90.8832C94.4997 90.8206 94.6109 90.7893 94.75 90.7893C94.8682 90.7893 94.962 90.8171 95.0316 90.8728C95.1011 90.9284 95.1672 91.0257 95.2297 91.1648L96.8671 95.2009H96.5751L98.2438 91.1648C98.2994 91.0257 98.3655 90.9284 98.442 90.8728C98.5184 90.8171 98.6227 90.7893 98.7548 90.7893C98.873 90.7893 98.9634 90.8206 99.026 90.8832C99.0955 90.9458 99.1372 91.0257 99.1511 91.1231C99.1651 91.2204 99.1442 91.3247 99.0886 91.4359L96.4604 97.5162C96.3909 97.6622 96.3179 97.7596 96.2414 97.8083C96.1718 97.8639 96.071 97.8917 95.9389 97.8917ZM102.236 96.0353C101.735 96.0353 101.301 95.9275 100.932 95.712C100.564 95.4964 100.279 95.1905 100.077 94.7942C99.8755 94.3979 99.7747 93.932 99.7747 93.3967C99.7747 92.9934 99.8303 92.6318 99.9416 92.312C100.06 91.9852 100.227 91.7071 100.442 91.4777C100.658 91.2482 100.915 91.0744 101.214 90.9562C101.52 90.831 101.861 90.7685 102.236 90.7685C102.737 90.7685 103.171 90.8762 103.54 91.0918C103.908 91.3073 104.193 91.6132 104.395 92.0096C104.597 92.3989 104.697 92.8613 104.697 93.3967C104.697 93.7999 104.638 94.1649 104.52 94.4917C104.409 94.8185 104.245 95.0966 104.03 95.3261C103.814 95.5555 103.554 95.7328 103.248 95.858C102.949 95.9762 102.611 96.0353 102.236 96.0353ZM102.236 95.2844C102.542 95.2844 102.806 95.2114 103.029 95.0653C103.258 94.9193 103.432 94.7073 103.55 94.4292C103.675 94.151 103.738 93.8069 103.738 93.3967C103.738 92.7848 103.602 92.319 103.331 91.9991C103.06 91.6793 102.695 91.5194 102.236 91.5194C101.937 91.5194 101.673 91.5924 101.443 91.7384C101.221 91.8775 101.047 92.086 100.922 92.3642C100.797 92.6423 100.734 92.9864 100.734 93.3967C100.734 94.0085 100.87 94.4778 101.141 94.8046C101.419 95.1244 101.784 95.2844 102.236 95.2844ZM107.728 96.0353C107.318 96.0353 106.973 95.9588 106.695 95.8058C106.424 95.6529 106.222 95.4269 106.09 95.1279C105.958 94.8289 105.892 94.4535 105.892 94.0016V91.2691C105.892 91.1092 105.93 90.991 106.007 90.9145C106.09 90.831 106.209 90.7893 106.362 90.7893C106.515 90.7893 106.633 90.831 106.716 90.9145C106.8 90.991 106.841 91.1092 106.841 91.2691V94.0016C106.841 94.4326 106.928 94.7525 107.102 94.9611C107.276 95.1627 107.55 95.2635 107.926 95.2635C108.343 95.2635 108.68 95.1244 108.938 94.8463C109.202 94.5682 109.334 94.1997 109.334 93.7408V91.2691C109.334 91.1092 109.372 90.991 109.449 90.9145C109.532 90.831 109.65 90.7893 109.803 90.7893C109.956 90.7893 110.074 90.831 110.158 90.9145C110.241 90.991 110.283 91.1092 110.283 91.2691V95.5242C110.283 95.851 110.13 96.0144 109.824 96.0144C109.671 96.0144 109.553 95.9727 109.469 95.8893C109.393 95.8058 109.355 95.6842 109.355 95.5242V94.6169L109.49 94.7942C109.351 95.1974 109.125 95.5069 108.812 95.7224C108.507 95.931 108.145 96.0353 107.728 96.0353ZM113.917 96.0353C113.507 96.0353 113.162 95.9623 112.884 95.8163C112.613 95.6702 112.408 95.4582 112.269 95.1801C112.137 94.902 112.071 94.5613 112.071 94.158V91.5924H111.403C111.278 91.5924 111.181 91.5611 111.111 91.4985C111.042 91.429 111.007 91.3386 111.007 91.2274C111.007 91.1092 111.042 91.0188 111.111 90.9562C111.181 90.8936 111.278 90.8623 111.403 90.8623H112.071V89.7255C112.071 89.5656 112.113 89.4474 112.196 89.3709C112.279 89.2875 112.398 89.2458 112.551 89.2458C112.704 89.2458 112.818 89.2875 112.895 89.3709C112.978 89.4474 113.02 89.5656 113.02 89.7255V90.8623H114.282C114.414 90.8623 114.515 90.8936 114.584 90.9562C114.654 91.0188 114.689 91.1092 114.689 91.2274C114.689 91.3386 114.654 91.429 114.584 91.4985C114.515 91.5611 114.414 91.5924 114.282 91.5924H113.02V94.0746C113.02 94.457 113.1 94.7455 113.26 94.9402C113.42 95.1349 113.684 95.2322 114.052 95.2322C114.185 95.2322 114.296 95.2218 114.386 95.2009C114.477 95.1731 114.557 95.1592 114.626 95.1592C114.689 95.1523 114.741 95.1731 114.782 95.2218C114.831 95.2705 114.855 95.3608 114.855 95.4929C114.855 95.5903 114.838 95.6807 114.803 95.7641C114.776 95.8406 114.716 95.8927 114.626 95.9205C114.543 95.9484 114.431 95.9727 114.292 95.9936C114.153 96.0214 114.028 96.0353 113.917 96.0353ZM117.363 96.0353C116.952 96.0353 116.608 95.9588 116.33 95.8058C116.059 95.6529 115.857 95.4269 115.725 95.1279C115.593 94.8289 115.527 94.4535 115.527 94.0016V91.2691C115.527 91.1092 115.565 90.991 115.642 90.9145C115.725 90.831 115.843 90.7893 115.996 90.7893C116.149 90.7893 116.268 90.831 116.351 90.9145C116.434 90.991 116.476 91.1092 116.476 91.2691V94.0016C116.476 94.4326 116.563 94.7525 116.737 94.9611C116.911 95.1627 117.185 95.2635 117.561 95.2635C117.978 95.2635 118.315 95.1244 118.572 94.8463C118.837 94.5682 118.969 94.1997 118.969 93.7408V91.2691C118.969 91.1092 119.007 90.991 119.084 90.9145C119.167 90.831 119.285 90.7893 119.438 90.7893C119.591 90.7893 119.709 90.831 119.793 90.9145C119.876 90.991 119.918 91.1092 119.918 91.2691V95.5242C119.918 95.851 119.765 96.0144 119.459 96.0144C119.306 96.0144 119.188 95.9727 119.104 95.8893C119.028 95.8058 118.99 95.6842 118.99 95.5242V94.6169L119.125 94.7942C118.986 95.1974 118.76 95.5069 118.447 95.7224C118.141 95.931 117.78 96.0353 117.363 96.0353ZM124.104 96.0353C123.646 96.0353 123.253 95.9205 122.926 95.6911C122.599 95.4617 122.38 95.1523 122.269 94.7629L122.384 94.6065V95.5242C122.384 95.6842 122.342 95.8058 122.258 95.8893C122.182 95.9727 122.067 96.0144 121.914 96.0144C121.768 96.0144 121.654 95.9727 121.57 95.8893C121.487 95.8058 121.445 95.6842 121.445 95.5242V88.9955C121.445 88.8356 121.487 88.7174 121.57 88.6409C121.654 88.5575 121.768 88.5157 121.914 88.5157C122.067 88.5157 122.185 88.5575 122.269 88.6409C122.352 88.7174 122.394 88.8356 122.394 88.9955V92.0096H122.279C122.391 91.6341 122.61 91.3351 122.936 91.1126C123.263 90.8832 123.653 90.7685 124.104 90.7685C124.556 90.7685 124.949 90.8762 125.283 91.0918C125.624 91.3004 125.884 91.6028 126.065 91.9991C126.253 92.3885 126.347 92.8543 126.347 93.3967C126.347 93.932 126.253 94.4013 126.065 94.8046C125.877 95.2009 125.617 95.5069 125.283 95.7224C124.949 95.931 124.556 96.0353 124.104 96.0353ZM123.885 95.2844C124.184 95.2844 124.445 95.2114 124.668 95.0653C124.897 94.9193 125.074 94.7073 125.2 94.4292C125.325 94.151 125.387 93.8069 125.387 93.3967C125.387 92.7848 125.252 92.319 124.981 91.9991C124.709 91.6793 124.344 91.5194 123.885 91.5194C123.58 91.5194 123.312 91.5924 123.082 91.7384C122.86 91.8775 122.686 92.086 122.561 92.3642C122.443 92.6423 122.384 92.9864 122.384 93.3967C122.384 94.0085 122.519 94.4778 122.79 94.8046C123.062 95.1244 123.427 95.2844 123.885 95.2844ZM129.913 96.0353C129.363 96.0353 128.891 95.931 128.494 95.7224C128.105 95.5069 127.803 95.2044 127.587 94.815C127.371 94.4187 127.264 93.9529 127.264 93.4175C127.264 92.8891 127.368 92.4267 127.577 92.0304C127.792 91.6341 128.084 91.3247 128.453 91.1022C128.828 90.8797 129.256 90.7685 129.735 90.7685C130.076 90.7685 130.382 90.8276 130.653 90.9458C130.931 91.057 131.168 91.2204 131.362 91.4359C131.557 91.6515 131.703 91.9157 131.8 92.2286C131.905 92.5345 131.957 92.8821 131.957 93.2715C131.957 93.3828 131.922 93.4697 131.853 93.5322C131.79 93.5879 131.696 93.6157 131.571 93.6157H128.004V93.0108H131.331L131.154 93.1568C131.154 92.7952 131.098 92.4893 130.987 92.239C130.883 91.9817 130.726 91.7871 130.518 91.655C130.316 91.5229 130.062 91.4568 129.756 91.4568C129.423 91.4568 129.137 91.5368 128.901 91.6967C128.665 91.8496 128.484 92.0687 128.359 92.3537C128.234 92.6318 128.171 92.9551 128.171 93.3237V93.3862C128.171 94.012 128.32 94.4848 128.619 94.8046C128.918 95.1244 129.35 95.2844 129.913 95.2844C130.135 95.2844 130.361 95.2565 130.591 95.2009C130.827 95.1453 131.053 95.0445 131.269 94.8985C131.373 94.8359 131.467 94.8081 131.55 94.815C131.64 94.815 131.713 94.8429 131.769 94.8985C131.825 94.9471 131.859 95.0097 131.873 95.0862C131.887 95.1557 131.877 95.2322 131.842 95.3156C131.807 95.3991 131.741 95.4721 131.644 95.5347C131.415 95.6946 131.14 95.8197 130.82 95.9101C130.507 95.9936 130.205 96.0353 129.913 96.0353ZM133.596 95.9831C133.415 95.9831 133.266 95.924 133.148 95.8058C133.029 95.6876 132.97 95.5381 132.97 95.3574C132.97 95.1766 133.029 95.0306 133.148 94.9193C133.266 94.8081 133.415 94.7525 133.596 94.7525C133.791 94.7525 133.94 94.8081 134.045 94.9193C134.156 95.0306 134.211 95.1766 134.211 95.3574C134.211 95.5381 134.156 95.6876 134.045 95.8058C133.94 95.924 133.791 95.9831 133.596 95.9831ZM137.548 96.0353C137.033 96.0353 136.588 95.9275 136.213 95.712C135.838 95.4895 135.549 95.1801 135.347 94.7838C135.146 94.3805 135.045 93.9077 135.045 93.3654C135.045 92.9621 135.101 92.6006 135.212 92.2807C135.33 91.9609 135.497 91.6897 135.712 91.4672C135.928 91.2378 136.189 91.064 136.495 90.9458C136.807 90.8276 137.159 90.7685 137.548 90.7685C137.791 90.7685 138.049 90.8067 138.32 90.8832C138.591 90.9597 138.841 91.0848 139.071 91.2586C139.147 91.3143 139.196 91.3803 139.217 91.4568C139.237 91.5263 139.237 91.5993 139.217 91.6758C139.203 91.7523 139.168 91.8184 139.112 91.874C139.064 91.9226 138.998 91.9505 138.914 91.9574C138.838 91.9644 138.754 91.94 138.664 91.8844C138.497 91.7593 138.32 91.6689 138.132 91.6132C137.951 91.5576 137.777 91.5298 137.611 91.5298C137.353 91.5298 137.124 91.5715 136.922 91.655C136.727 91.7384 136.561 91.8601 136.422 92.02C136.289 92.173 136.189 92.3642 136.119 92.5936C136.05 92.8161 136.015 93.0768 136.015 93.3758C136.015 93.9668 136.154 94.4326 136.432 94.7733C136.71 95.1071 137.103 95.2739 137.611 95.2739C137.777 95.2739 137.951 95.2496 138.132 95.2009C138.313 95.1453 138.49 95.0549 138.664 94.9298C138.754 94.8741 138.838 94.8533 138.914 94.8672C138.991 94.8741 139.053 94.9054 139.102 94.9611C139.158 95.0097 139.192 95.0723 139.206 95.1488C139.22 95.2183 139.213 95.2913 139.185 95.3678C139.164 95.4443 139.116 95.5069 139.039 95.5555C138.817 95.7224 138.573 95.8441 138.309 95.9205C138.045 95.997 137.791 96.0353 137.548 96.0353ZM142.252 96.0353C141.752 96.0353 141.317 95.9275 140.949 95.712C140.58 95.4964 140.295 95.1905 140.093 94.7942C139.892 94.3979 139.791 93.932 139.791 93.3967C139.791 92.9934 139.847 92.6318 139.958 92.312C140.076 91.9852 140.243 91.7071 140.459 91.4777C140.674 91.2482 140.931 91.0744 141.23 90.9562C141.536 90.831 141.877 90.7685 142.252 90.7685C142.753 90.7685 143.188 90.8762 143.556 91.0918C143.925 91.3073 144.21 91.6132 144.411 92.0096C144.613 92.3989 144.714 92.8613 144.714 93.3967C144.714 93.7999 144.655 94.1649 144.536 94.4917C144.425 94.8185 144.262 95.0966 144.046 95.3261C143.831 95.5555 143.57 95.7328 143.264 95.858C142.965 95.9762 142.628 96.0353 142.252 96.0353ZM142.252 95.2844C142.558 95.2844 142.822 95.2114 143.045 95.0653C143.274 94.9193 143.448 94.7073 143.566 94.4292C143.692 94.151 143.754 93.8069 143.754 93.3967C143.754 92.7848 143.619 92.319 143.347 91.9991C143.076 91.6793 142.711 91.5194 142.252 91.5194C141.953 91.5194 141.689 91.5924 141.46 91.7384C141.237 91.8775 141.063 92.086 140.938 92.3642C140.813 92.6423 140.751 92.9864 140.751 93.3967C140.751 94.0085 140.886 94.4778 141.157 94.8046C141.435 95.1244 141.8 95.2844 142.252 95.2844ZM146.42 96.0144C146.274 96.0144 146.159 95.9727 146.075 95.8893C145.992 95.8058 145.95 95.6842 145.95 95.5242V91.2691C145.95 91.1092 145.992 90.991 146.075 90.9145C146.159 90.831 146.274 90.7893 146.42 90.7893C146.566 90.7893 146.677 90.831 146.753 90.9145C146.837 90.991 146.878 91.1092 146.878 91.2691V92.1556L146.764 91.9678C146.896 91.5854 147.108 91.2899 147.4 91.0814C147.699 90.8728 148.054 90.7685 148.464 90.7685C148.895 90.7685 149.242 90.8728 149.507 91.0814C149.771 91.283 149.948 91.5924 150.039 92.0096H149.893C150.018 91.6272 150.24 91.3247 150.56 91.1022C150.887 90.8797 151.266 90.7685 151.697 90.7685C152.079 90.7685 152.392 90.845 152.635 90.9979C152.886 91.1439 153.073 91.3664 153.199 91.6654C153.324 91.9574 153.386 92.3329 153.386 92.7918V95.5242C153.386 95.6842 153.345 95.8058 153.261 95.8893C153.178 95.9727 153.063 96.0144 152.917 96.0144C152.764 96.0144 152.646 95.9727 152.562 95.8893C152.479 95.8058 152.437 95.6842 152.437 95.5242V92.8335C152.437 92.3885 152.361 92.0617 152.208 91.8531C152.055 91.6445 151.798 91.5402 151.436 91.5402C151.04 91.5402 150.723 91.6793 150.487 91.9574C150.258 92.2286 150.143 92.604 150.143 93.0838V95.5242C150.143 95.6842 150.101 95.8058 150.018 95.8893C149.941 95.9727 149.826 96.0144 149.674 96.0144C149.521 96.0144 149.402 95.9727 149.319 95.8893C149.236 95.8058 149.194 95.6842 149.194 95.5242V92.8335C149.194 92.3885 149.117 92.0617 148.964 91.8531C148.811 91.6445 148.554 91.5402 148.193 91.5402C147.796 91.5402 147.48 91.6793 147.244 91.9574C147.014 92.2286 146.899 92.604 146.899 93.0838V95.5242C146.899 95.851 146.739 96.0144 146.42 96.0144ZM154.798 96.2856C154.763 96.3899 154.711 96.4629 154.641 96.5046C154.579 96.5463 154.506 96.5672 154.422 96.5672C154.339 96.5672 154.262 96.5463 154.193 96.5046C154.13 96.4698 154.085 96.4142 154.057 96.3377C154.029 96.2612 154.029 96.1674 154.057 96.0561L156.519 88.4115C156.553 88.3141 156.605 88.2446 156.675 88.2029C156.745 88.1542 156.818 88.1299 156.894 88.1299C156.977 88.1299 157.054 88.1507 157.123 88.1924C157.193 88.2342 157.242 88.2933 157.269 88.3697C157.297 88.4393 157.297 88.5296 157.269 88.6409L154.798 96.2856ZM159.426 96.0144C159.294 96.0144 159.179 95.9831 159.082 95.9205C158.984 95.851 158.908 95.7398 158.852 95.5868L157.298 91.4464C157.25 91.3143 157.236 91.1996 157.257 91.1022C157.277 91.0049 157.326 90.9284 157.403 90.8728C157.479 90.8171 157.58 90.7893 157.705 90.7893C157.823 90.7893 157.917 90.8171 157.987 90.8728C158.056 90.9284 158.115 91.0292 158.164 91.1752L159.582 95.1801H159.332L160.792 91.1544C160.841 91.0292 160.903 90.9388 160.98 90.8832C161.063 90.8206 161.164 90.7893 161.282 90.7893C161.407 90.7893 161.512 90.8206 161.595 90.8832C161.679 90.9388 161.738 91.0292 161.773 91.1544L163.212 95.1801H162.972L164.411 91.1544C164.46 91.0153 164.522 90.9214 164.599 90.8728C164.675 90.8171 164.769 90.7893 164.88 90.7893C165.006 90.7893 165.099 90.8206 165.162 90.8832C165.225 90.9458 165.259 91.0292 165.266 91.1335C165.28 91.2308 165.266 91.3351 165.225 91.4464L163.671 95.5868C163.622 95.7328 163.545 95.8406 163.441 95.9101C163.344 95.9796 163.229 96.0144 163.097 96.0144C162.965 96.0144 162.847 95.9796 162.742 95.9101C162.645 95.8406 162.569 95.7328 162.513 95.5868L161.022 91.4985H161.501L160.01 95.5868C159.954 95.7328 159.878 95.8406 159.781 95.9101C159.683 95.9796 159.565 96.0144 159.426 96.0144ZM167.936 96.0353C167.588 96.0353 167.272 95.9657 166.987 95.8267C166.709 95.6876 166.49 95.4999 166.33 95.2635C166.177 95.0271 166.101 94.7629 166.101 94.4709C166.101 94.0954 166.194 93.7999 166.382 93.5844C166.57 93.3688 166.886 93.2159 167.331 93.1255C167.776 93.0282 168.374 92.9795 169.125 92.9795H169.615V93.5844H169.146C168.61 93.5844 168.186 93.6087 167.873 93.6574C167.568 93.7061 167.352 93.793 167.227 93.9181C167.102 94.0363 167.039 94.2032 167.039 94.4187C167.039 94.6899 167.133 94.9124 167.321 95.0862C167.515 95.26 167.78 95.3469 168.113 95.3469C168.378 95.3469 168.61 95.2844 168.812 95.1592C169.014 95.0271 169.174 94.8533 169.292 94.6377C169.41 94.4153 169.469 94.1615 169.469 93.8764V92.677C169.469 92.2668 169.386 91.9713 169.219 91.7905C169.052 91.6028 168.77 91.509 168.374 91.509C168.145 91.509 167.908 91.5402 167.665 91.6028C167.422 91.6654 167.168 91.7627 166.904 91.8948C166.799 91.9435 166.709 91.9609 166.632 91.947C166.556 91.9261 166.493 91.8844 166.445 91.8218C166.403 91.7523 166.379 91.6793 166.372 91.6028C166.372 91.5194 166.389 91.4394 166.424 91.3629C166.466 91.2865 166.535 91.2308 166.632 91.1961C166.938 91.0431 167.241 90.9353 167.54 90.8728C167.846 90.8032 168.131 90.7685 168.395 90.7685C168.847 90.7685 169.219 90.8415 169.511 90.9875C169.803 91.1265 170.022 91.3456 170.168 91.6445C170.314 91.9366 170.387 92.312 170.387 92.7709V95.5242C170.387 95.6842 170.349 95.8058 170.272 95.8893C170.196 95.9727 170.084 96.0144 169.938 96.0144C169.799 96.0144 169.688 95.9727 169.605 95.8893C169.528 95.8058 169.49 95.6842 169.49 95.5242V94.7838H169.584C169.528 95.041 169.424 95.2635 169.271 95.4512C169.118 95.639 168.927 95.785 168.697 95.8893C168.475 95.9866 168.221 96.0353 167.936 96.0353ZM173.987 96.0353C173.577 96.0353 173.233 95.9623 172.955 95.8163C172.684 95.6702 172.478 95.4582 172.339 95.1801C172.207 94.902 172.141 94.5613 172.141 94.158V91.5924H171.474C171.349 91.5924 171.251 91.5611 171.182 91.4985C171.112 91.429 171.077 91.3386 171.077 91.2274C171.077 91.1092 171.112 91.0188 171.182 90.9562C171.251 90.8936 171.349 90.8623 171.474 90.8623H172.141V89.7255C172.141 89.5656 172.183 89.4474 172.266 89.3709C172.35 89.2875 172.468 89.2458 172.621 89.2458C172.774 89.2458 172.889 89.2875 172.965 89.3709C173.049 89.4474 173.09 89.5656 173.09 89.7255V90.8623H174.352C174.484 90.8623 174.585 90.8936 174.655 90.9562C174.724 91.0188 174.759 91.1092 174.759 91.2274C174.759 91.3386 174.724 91.429 174.655 91.4985C174.585 91.5611 174.484 91.5924 174.352 91.5924H173.09V94.0746C173.09 94.457 173.17 94.7455 173.33 94.9402C173.49 95.1349 173.754 95.2322 174.123 95.2322C174.255 95.2322 174.366 95.2218 174.456 95.2009C174.547 95.1731 174.627 95.1592 174.696 95.1592C174.759 95.1523 174.811 95.1731 174.853 95.2218C174.901 95.2705 174.926 95.3608 174.926 95.4929C174.926 95.5903 174.908 95.6807 174.874 95.7641C174.846 95.8406 174.787 95.8927 174.696 95.9205C174.613 95.9484 174.502 95.9727 174.363 95.9936C174.224 96.0214 174.098 96.0353 173.987 96.0353ZM177.768 96.0353C177.253 96.0353 176.808 95.9275 176.433 95.712C176.058 95.4895 175.769 95.1801 175.567 94.7838C175.366 94.3805 175.265 93.9077 175.265 93.3654C175.265 92.9621 175.321 92.6006 175.432 92.2807C175.55 91.9609 175.717 91.6897 175.932 91.4672C176.148 91.2378 176.409 91.064 176.715 90.9458C177.027 90.8276 177.379 90.7685 177.768 90.7685C178.011 90.7685 178.269 90.8067 178.54 90.8832C178.811 90.9597 179.061 91.0848 179.291 91.2586C179.367 91.3143 179.416 91.3803 179.437 91.4568C179.457 91.5263 179.457 91.5993 179.437 91.6758C179.423 91.7523 179.388 91.8184 179.332 91.874C179.284 91.9226 179.218 91.9505 179.134 91.9574C179.058 91.9644 178.974 91.94 178.884 91.8844C178.717 91.7593 178.54 91.6689 178.352 91.6132C178.171 91.5576 177.997 91.5298 177.831 91.5298C177.573 91.5298 177.344 91.5715 177.142 91.655C176.948 91.7384 176.781 91.8601 176.642 92.02C176.509 92.173 176.409 92.3642 176.339 92.5936C176.27 92.8161 176.235 93.0768 176.235 93.3758C176.235 93.9668 176.374 94.4326 176.652 94.7733C176.93 95.1071 177.323 95.2739 177.831 95.2739C177.997 95.2739 178.171 95.2496 178.352 95.2009C178.533 95.1453 178.71 95.0549 178.884 94.9298C178.974 94.8741 179.058 94.8533 179.134 94.8672C179.211 94.8741 179.273 94.9054 179.322 94.9611C179.378 95.0097 179.412 95.0723 179.426 95.1488C179.44 95.2183 179.433 95.2913 179.405 95.3678C179.384 95.4443 179.336 95.5069 179.259 95.5555C179.037 95.7224 178.793 95.8441 178.529 95.9205C178.265 95.997 178.011 96.0353 177.768 96.0353ZM180.885 96.0144C180.739 96.0144 180.624 95.9727 180.541 95.8893C180.457 95.8058 180.415 95.6842 180.415 95.5242V88.9955C180.415 88.8356 180.457 88.7174 180.541 88.6409C180.624 88.5575 180.739 88.5157 180.885 88.5157C181.038 88.5157 181.156 88.5575 181.239 88.6409C181.323 88.7174 181.364 88.8356 181.364 88.9955V91.9678H181.229C181.375 91.5715 181.611 91.2726 181.938 91.0709C182.272 90.8693 182.651 90.7685 183.075 90.7685C183.485 90.7685 183.822 90.845 184.086 90.9979C184.351 91.1439 184.549 91.3664 184.681 91.6654C184.813 91.9644 184.879 92.3398 184.879 92.7918V95.5242C184.879 95.6842 184.837 95.8058 184.754 95.8893C184.677 95.9727 184.563 96.0144 184.41 96.0144C184.257 96.0144 184.139 95.9727 184.055 95.8893C183.972 95.8058 183.93 95.6842 183.93 95.5242V92.8439C183.93 92.392 183.843 92.0617 183.669 91.8531C183.495 91.6445 183.217 91.5402 182.835 91.5402C182.39 91.5402 182.032 91.6793 181.761 91.9574C181.497 92.2286 181.364 92.5971 181.364 93.0629V95.5242C181.364 95.851 181.205 96.0144 180.885 96.0144ZM187.711 94.0016C187.614 94.0016 187.537 93.9703 187.482 93.9077C187.426 93.8451 187.398 93.7547 187.398 93.6365C187.398 93.4001 187.426 93.1776 187.482 92.9691C187.537 92.7605 187.628 92.5519 187.753 92.3433C187.885 92.1278 188.059 91.8948 188.274 91.6445C188.441 91.4499 188.573 91.276 188.671 91.1231C188.775 90.9701 188.848 90.8241 188.89 90.685C188.938 90.539 188.963 90.3895 188.963 90.2366C188.963 89.9585 188.862 89.7394 188.66 89.5795C188.466 89.4127 188.191 89.3292 187.836 89.3292C187.523 89.3292 187.235 89.3779 186.971 89.4752C186.713 89.5656 186.463 89.6943 186.22 89.8611C186.109 89.9376 186.004 89.9758 185.907 89.9758C185.81 89.9758 185.73 89.948 185.667 89.8924C185.611 89.8368 185.573 89.7673 185.552 89.6838C185.538 89.6004 185.552 89.5135 185.594 89.4231C185.636 89.3258 185.709 89.2388 185.813 89.1624C186.091 88.9538 186.414 88.7904 186.783 88.6722C187.151 88.554 187.516 88.4949 187.878 88.4949C188.288 88.4949 188.646 88.5644 188.952 88.7035C189.258 88.8425 189.498 89.0372 189.672 89.2875C189.846 89.5309 189.933 89.8194 189.933 90.1531C189.933 90.3756 189.901 90.5842 189.839 90.7789C189.776 90.9736 189.675 91.1717 189.536 91.3734C189.397 91.575 189.209 91.7975 188.973 92.0408C188.758 92.2633 188.58 92.4684 188.441 92.6562C188.309 92.837 188.212 93.0108 188.149 93.1776C188.094 93.3445 188.055 93.5253 188.034 93.72C188.028 93.8034 187.996 93.8729 187.941 93.9286C187.885 93.9772 187.808 94.0016 187.711 94.0016ZM187.701 95.9831C187.513 95.9831 187.36 95.924 187.242 95.8058C187.131 95.6876 187.075 95.5381 187.075 95.3574C187.075 95.1766 187.131 95.0306 187.242 94.9193C187.36 94.8081 187.513 94.7525 187.701 94.7525C187.888 94.7525 188.038 94.8081 188.149 94.9193C188.26 95.0306 188.316 95.1766 188.316 95.3574C188.316 95.5381 188.26 95.6876 188.149 95.8058C188.038 95.924 187.888 95.9831 187.701 95.9831ZM192.856 96.0144C192.723 96.0144 192.609 95.9796 192.511 95.9101C192.414 95.8406 192.331 95.7293 192.261 95.5764L190.488 91.4464C190.439 91.3282 190.422 91.2204 190.436 91.1231C190.45 91.0257 190.495 90.9458 190.572 90.8832C190.655 90.8206 190.766 90.7893 190.905 90.7893C191.023 90.7893 191.117 90.8171 191.187 90.8728C191.256 90.9284 191.322 91.0257 191.385 91.1648L193.022 95.2009H192.73L194.41 91.1648C194.465 91.0257 194.528 90.9284 194.597 90.8728C194.674 90.8171 194.778 90.7893 194.91 90.7893C195.028 90.7893 195.119 90.8206 195.181 90.8832C195.251 90.9458 195.293 91.0257 195.306 91.1231C195.32 91.2204 195.3 91.3247 195.244 91.4359L193.46 95.5764C193.398 95.7293 193.314 95.8406 193.21 95.9101C193.113 95.9796 192.995 96.0144 192.856 96.0144ZM196.439 92.2599C196.321 92.2599 196.23 92.2286 196.168 92.166C196.105 92.1034 196.074 92.0165 196.074 91.9053C196.074 91.794 196.105 91.7071 196.168 91.6445C196.23 91.582 196.321 91.5507 196.439 91.5507H200.944C201.063 91.5507 201.153 91.582 201.215 91.6445C201.278 91.7071 201.309 91.794 201.309 91.9053C201.309 92.0165 201.278 92.1034 201.215 92.166C201.153 92.2286 201.063 92.2599 200.944 92.2599H196.439ZM196.439 94.3353C196.321 94.3353 196.23 94.304 196.168 94.2414C196.105 94.1789 196.074 94.0919 196.074 93.9807C196.074 93.8695 196.105 93.786 196.168 93.7304C196.23 93.6678 196.321 93.6365 196.439 93.6365H200.944C201.063 93.6365 201.153 93.6678 201.215 93.7304C201.278 93.786 201.309 93.8695 201.309 93.9807C201.309 94.0989 201.278 94.1893 201.215 94.2519C201.153 94.3075 201.063 94.3353 200.944 94.3353H196.439ZM204.194 96.0353C203.847 96.0353 203.53 95.9657 203.245 95.8267C202.967 95.6876 202.748 95.4999 202.588 95.2635C202.435 95.0271 202.359 94.7629 202.359 94.4709C202.359 94.0954 202.452 93.7999 202.64 93.5844C202.828 93.3688 203.144 93.2159 203.589 93.1255C204.034 93.0282 204.632 92.9795 205.383 92.9795H205.873V93.5844H205.404C204.869 93.5844 204.444 93.6087 204.132 93.6574C203.826 93.7061 203.61 93.793 203.485 93.9181C203.36 94.0363 203.297 94.2032 203.297 94.4187C203.297 94.6899 203.391 94.9124 203.579 95.0862C203.774 95.26 204.038 95.3469 204.371 95.3469C204.636 95.3469 204.869 95.2844 205.07 95.1592C205.272 95.0271 205.432 94.8533 205.55 94.6377C205.668 94.4153 205.727 94.1615 205.727 93.8764V92.677C205.727 92.2668 205.644 91.9713 205.477 91.7905C205.31 91.6028 205.029 91.509 204.632 91.509C204.403 91.509 204.166 91.5402 203.923 91.6028C203.68 91.6654 203.426 91.7627 203.162 91.8948C203.057 91.9435 202.967 91.9609 202.891 91.947C202.814 91.9261 202.751 91.8844 202.703 91.8218C202.661 91.7523 202.637 91.6793 202.63 91.6028C202.63 91.5194 202.647 91.4394 202.682 91.3629C202.724 91.2865 202.793 91.2308 202.891 91.1961C203.196 91.0431 203.499 90.9353 203.798 90.8728C204.104 90.8032 204.389 90.7685 204.653 90.7685C205.105 90.7685 205.477 90.8415 205.769 90.9875C206.061 91.1265 206.28 91.3456 206.426 91.6445C206.572 91.9366 206.645 92.312 206.645 92.7709V95.5242C206.645 95.6842 206.607 95.8058 206.53 95.8893C206.454 95.9727 206.343 96.0144 206.197 96.0144C206.058 96.0144 205.946 95.9727 205.863 95.8893C205.786 95.8058 205.748 95.6842 205.748 95.5242V94.7838H205.842C205.786 95.041 205.682 95.2635 205.529 95.4512C205.376 95.639 205.185 95.785 204.956 95.8893C204.733 95.9866 204.479 96.0353 204.194 96.0353ZM208.785 95.9414C208.618 95.9414 208.49 95.8962 208.399 95.8058C208.309 95.7154 208.264 95.5868 208.264 95.4199V89.1102C208.264 88.9433 208.309 88.8147 208.399 88.7243C208.49 88.6339 208.618 88.5887 208.785 88.5887H211.257C211.764 88.5887 212.196 88.6652 212.55 88.8182C212.912 88.9712 213.186 89.1902 213.374 89.4752C213.562 89.7603 213.656 90.1045 213.656 90.5077C213.656 90.9597 213.524 91.3386 213.259 91.6445C212.995 91.9505 212.634 92.1556 212.175 92.2599V92.1034C212.689 92.166 213.092 92.3572 213.385 92.677C213.683 92.9899 213.833 93.4001 213.833 93.9077C213.833 94.5613 213.617 95.0653 213.186 95.4199C212.762 95.7676 212.161 95.9414 211.382 95.9414H208.785ZM209.202 95.1801H211.278C211.82 95.1801 212.223 95.0758 212.488 94.8672C212.752 94.6516 212.884 94.3249 212.884 93.8868C212.884 93.4488 212.752 93.1255 212.488 92.9169C212.223 92.7083 211.82 92.604 211.278 92.604H209.202V95.1801ZM209.202 91.8323H211.111C211.639 91.8323 212.036 91.728 212.3 91.5194C212.571 91.3038 212.707 90.9944 212.707 90.5912C212.707 90.1879 212.571 89.882 212.3 89.6734C212.036 89.4579 211.639 89.3501 211.111 89.3501H209.202V91.8323ZM218.575 96.0353C217.845 96.0353 217.219 95.8823 216.698 95.5764C216.177 95.2705 215.773 94.8359 215.488 94.2727C215.21 93.7026 215.071 93.0316 215.071 92.2599C215.071 91.6828 215.151 91.1648 215.311 90.7059C215.471 90.2401 215.7 89.8437 215.999 89.517C216.298 89.1832 216.663 88.9294 217.094 88.7556C217.532 88.5818 218.026 88.4949 218.575 88.4949C218.992 88.4949 219.392 88.554 219.775 88.6722C220.164 88.7904 220.498 88.9573 220.776 89.1728C220.887 89.2493 220.96 89.3362 220.995 89.4335C221.03 89.5309 221.033 89.6247 221.005 89.7151C220.984 89.7985 220.939 89.8716 220.87 89.9341C220.807 89.9898 220.727 90.021 220.63 90.028C220.533 90.028 220.428 89.9898 220.317 89.9133C220.074 89.7255 219.806 89.59 219.514 89.5065C219.229 89.4161 218.923 89.3709 218.596 89.3709C218.061 89.3709 217.605 89.4857 217.23 89.7151C216.861 89.9376 216.58 90.2644 216.385 90.6955C216.197 91.1196 216.104 91.6411 216.104 92.2599C216.104 92.8717 216.197 93.3967 216.385 93.8347C216.58 94.2658 216.861 94.596 217.23 94.8255C217.605 95.048 218.061 95.1592 218.596 95.1592C218.923 95.1592 219.232 95.114 219.524 95.0236C219.823 94.9332 220.098 94.7942 220.348 94.6065C220.46 94.53 220.56 94.4952 220.651 94.5022C220.748 94.5091 220.828 94.5404 220.891 94.596C220.953 94.6447 220.995 94.7142 221.016 94.8046C221.044 94.888 221.044 94.975 221.016 95.0653C220.988 95.1557 220.925 95.2357 220.828 95.3052C220.543 95.5486 220.202 95.7328 219.806 95.858C219.417 95.9762 219.006 96.0353 218.575 96.0353ZM223.828 96.0353C223.383 96.0353 222.99 95.931 222.649 95.7224C222.316 95.5069 222.055 95.2009 221.867 94.8046C221.68 94.4013 221.586 93.932 221.586 93.3967C221.586 92.8543 221.676 92.3885 221.857 91.9991C222.045 91.6028 222.305 91.3004 222.639 91.0918C222.98 90.8762 223.376 90.7685 223.828 90.7685C224.28 90.7685 224.669 90.8832 224.996 91.1126C225.323 91.3351 225.542 91.6341 225.653 92.0096H225.538V88.9955C225.538 88.8356 225.577 88.7174 225.653 88.6409C225.737 88.5575 225.855 88.5157 226.008 88.5157C226.161 88.5157 226.279 88.5575 226.362 88.6409C226.446 88.7174 226.487 88.8356 226.487 88.9955V95.5242C226.487 95.6842 226.446 95.8058 226.362 95.8893C226.279 95.9727 226.161 96.0144 226.008 96.0144C225.862 96.0144 225.747 95.9727 225.664 95.8893C225.58 95.8058 225.538 95.6842 225.538 95.5242V94.5752L225.653 94.7629C225.549 95.1523 225.33 95.4617 224.996 95.6911C224.669 95.9205 224.28 96.0353 223.828 96.0353ZM224.047 95.2844C224.353 95.2844 224.617 95.2114 224.84 95.0653C225.069 94.9193 225.243 94.7073 225.361 94.4292C225.486 94.151 225.549 93.8069 225.549 93.3967C225.549 92.7848 225.413 92.319 225.142 91.9991C224.871 91.6793 224.506 91.5194 224.047 91.5194C223.748 91.5194 223.484 91.5924 223.254 91.7384C223.032 91.8775 222.858 92.086 222.733 92.3642C222.608 92.6423 222.545 92.9864 222.545 93.3967C222.545 94.0085 222.681 94.4778 222.952 94.8046C223.23 95.1244 223.595 95.2844 224.047 95.2844ZM230.356 96.0353C229.807 96.0353 229.334 95.931 228.937 95.7224C228.548 95.5069 228.246 95.2044 228.03 94.815C227.815 94.4187 227.707 93.9529 227.707 93.4175C227.707 92.8891 227.811 92.4267 228.02 92.0304C228.235 91.6341 228.527 91.3247 228.896 91.1022C229.271 90.8797 229.699 90.7685 230.179 90.7685C230.519 90.7685 230.825 90.8276 231.096 90.9458C231.374 91.057 231.611 91.2204 231.805 91.4359C232 91.6515 232.146 91.9157 232.244 92.2286C232.348 92.5345 232.4 92.8821 232.4 93.2715C232.4 93.3828 232.365 93.4697 232.296 93.5322C232.233 93.5879 232.139 93.6157 232.014 93.6157H228.447V93.0108H231.774L231.597 93.1568C231.597 92.7952 231.541 92.4893 231.43 92.239C231.326 91.9817 231.169 91.7871 230.961 91.655C230.759 91.5229 230.505 91.4568 230.199 91.4568C229.866 91.4568 229.581 91.5368 229.344 91.6967C229.108 91.8496 228.927 92.0687 228.802 92.3537C228.677 92.6318 228.614 92.9551 228.614 93.3237V93.3862C228.614 94.012 228.764 94.4848 229.063 94.8046C229.362 95.1244 229.793 95.2844 230.356 95.2844C230.578 95.2844 230.804 95.2565 231.034 95.2009C231.27 95.1453 231.496 95.0445 231.712 94.8985C231.816 94.8359 231.91 94.8081 231.993 94.815C232.084 94.815 232.157 94.8429 232.212 94.8985C232.268 94.9471 232.303 95.0097 232.317 95.0862C232.33 95.1557 232.32 95.2322 232.285 95.3156C232.25 95.3991 232.184 95.4721 232.087 95.5347C231.858 95.6946 231.583 95.8197 231.263 95.9101C230.95 95.9936 230.648 96.0353 230.356 96.0353ZM234.342 96.0144C234.189 96.0144 234.071 95.9727 233.987 95.8893C233.904 95.8058 233.862 95.6842 233.862 95.5242V91.5924H233.236C233.111 91.5924 233.014 91.5611 232.944 91.4985C232.875 91.429 232.84 91.3386 232.84 91.2274C232.84 91.1092 232.875 91.0188 232.944 90.9562C233.014 90.8936 233.111 90.8623 233.236 90.8623H234.123L233.862 91.1126V90.7268C233.862 90.0523 234.026 89.5413 234.352 89.1936C234.686 88.8391 235.173 88.6339 235.812 88.5783L236.136 88.5575C236.24 88.5436 236.324 88.5609 236.386 88.6096C236.449 88.6513 236.49 88.7069 236.511 88.7765C236.532 88.846 236.532 88.919 236.511 88.9955C236.497 89.065 236.466 89.1276 236.417 89.1832C236.369 89.2388 236.306 89.2701 236.23 89.2771L236 89.2875C235.583 89.3223 235.281 89.4474 235.093 89.663C234.905 89.8716 234.811 90.1844 234.811 90.6016V91.0188L234.676 90.8623H235.875C236.007 90.8623 236.108 90.8936 236.178 90.9562C236.247 91.0188 236.282 91.1092 236.282 91.2274C236.282 91.3386 236.247 91.429 236.178 91.4985C236.108 91.5611 236.007 91.5924 235.875 91.5924H234.811V95.5242C234.811 95.851 234.655 96.0144 234.342 96.0144ZM240.629 96.0353C239.844 96.0353 239.176 95.8858 238.627 95.5868C238.084 95.2809 237.671 94.8463 237.386 94.2831C237.108 93.72 236.968 93.049 236.968 92.2703C236.968 91.6863 237.048 91.1648 237.208 90.7059C237.368 90.2401 237.601 89.8437 237.907 89.517C238.22 89.1832 238.595 88.9294 239.033 88.7556C239.478 88.5818 239.979 88.4949 240.535 88.4949C240.966 88.4949 241.384 88.554 241.787 88.6722C242.19 88.7834 242.559 88.9677 242.892 89.2249C242.976 89.2875 243.028 89.3605 243.049 89.444C243.077 89.5274 243.08 89.6108 243.059 89.6943C243.038 89.7777 242.997 89.8507 242.934 89.9133C242.878 89.9758 242.805 90.0141 242.715 90.028C242.632 90.0349 242.541 90.0071 242.444 89.9446C242.159 89.736 241.86 89.5865 241.547 89.4961C241.241 89.4057 240.904 89.3605 240.535 89.3605C239.986 89.3605 239.52 89.4752 239.138 89.7047C238.755 89.9272 238.467 90.2574 238.272 90.6955C238.084 91.1265 237.991 91.6515 237.991 92.2703C237.991 93.2228 238.213 93.9459 238.658 94.4396C239.11 94.9332 239.777 95.1801 240.66 95.1801C240.987 95.1801 241.304 95.1488 241.61 95.0862C241.922 95.0236 242.221 94.9367 242.506 94.8255L242.298 95.3469V92.8335H240.879C240.754 92.8335 240.654 92.7987 240.577 92.7292C240.508 92.6597 240.473 92.5658 240.473 92.4476C240.473 92.3294 240.508 92.239 240.577 92.1764C240.654 92.1139 240.754 92.0826 240.879 92.0826H242.725C242.851 92.0826 242.948 92.1173 243.017 92.1869C243.094 92.2564 243.132 92.3572 243.132 92.4893V95.1696C243.132 95.2809 243.111 95.3782 243.07 95.4617C243.028 95.5381 242.958 95.5938 242.861 95.6285C242.569 95.7467 242.221 95.8441 241.818 95.9205C241.415 95.997 241.019 96.0353 240.629 96.0353ZM245.568 95.9414C245.436 95.9414 245.331 95.9032 245.255 95.8267C245.178 95.7502 245.14 95.6494 245.14 95.5242C245.14 95.3921 245.178 95.2913 245.255 95.2218C245.331 95.1523 245.436 95.1175 245.568 95.1175H246.882V89.3918H247.382L245.86 90.3722C245.762 90.4347 245.668 90.4625 245.578 90.4556C245.495 90.4417 245.422 90.4069 245.359 90.3513C245.296 90.2887 245.255 90.2157 245.234 90.1323C245.213 90.0489 245.217 89.9654 245.244 89.882C245.279 89.7916 245.349 89.7186 245.453 89.663L246.892 88.7243C246.996 88.6618 247.094 88.6131 247.184 88.5783C247.282 88.5366 247.375 88.5157 247.466 88.5157C247.57 88.5157 247.66 88.547 247.737 88.6096C247.813 88.6722 247.852 88.773 247.852 88.9121V95.1175H249.061C249.2 95.1175 249.305 95.1523 249.374 95.2218C249.451 95.2913 249.489 95.3921 249.489 95.5242C249.489 95.6563 249.451 95.7606 249.374 95.8371C249.305 95.9066 249.2 95.9414 249.061 95.9414H245.568ZM251.56 95.9414C251.394 95.9414 251.268 95.9032 251.185 95.8267C251.108 95.7432 251.07 95.632 251.07 95.4929C251.07 95.4095 251.091 95.3261 251.133 95.2426C251.175 95.1592 251.237 95.0758 251.321 94.9923L253.605 92.5415C253.952 92.173 254.202 91.8323 254.355 91.5194C254.508 91.2065 254.585 90.8901 254.585 90.5703C254.585 90.167 254.46 89.8611 254.209 89.6525C253.966 89.437 253.608 89.3292 253.135 89.3292C252.843 89.3292 252.562 89.3779 252.29 89.4752C252.026 89.5656 251.766 89.7082 251.508 89.9028C251.411 89.9724 251.321 90.0037 251.237 89.9967C251.154 89.9898 251.081 89.9585 251.018 89.9028C250.962 89.8403 250.921 89.7707 250.893 89.6943C250.872 89.6108 250.876 89.5239 250.903 89.4335C250.931 89.3431 250.99 89.2667 251.081 89.2041C251.366 88.9816 251.696 88.8078 252.071 88.6826C252.447 88.5575 252.833 88.4949 253.229 88.4949C253.73 88.4949 254.15 88.5748 254.491 88.7348C254.839 88.8877 255.103 89.1137 255.284 89.4127C255.464 89.7047 255.555 90.0628 255.555 90.4869C255.555 90.7789 255.506 91.0674 255.409 91.3525C255.311 91.6306 255.165 91.9157 254.971 92.2077C254.783 92.4997 254.54 92.8022 254.241 93.1151L252.071 95.3991V95.1175H255.492C255.631 95.1175 255.736 95.1523 255.805 95.2218C255.882 95.2913 255.92 95.3921 255.92 95.5242C255.92 95.6563 255.882 95.7606 255.805 95.8371C255.736 95.9066 255.631 95.9414 255.492 95.9414H251.56ZM259.493 96.0353C259.09 96.0353 258.686 95.9796 258.283 95.8684C257.88 95.7572 257.529 95.5903 257.23 95.3678C257.133 95.2983 257.066 95.2183 257.032 95.1279C256.997 95.0375 256.987 94.9541 257 94.8776C257.021 94.7942 257.063 94.7247 257.126 94.669C257.188 94.6134 257.265 94.5821 257.355 94.5752C257.445 94.5613 257.543 94.5856 257.647 94.6482C257.946 94.8429 258.242 94.9854 258.534 95.0758C258.833 95.1592 259.142 95.2009 259.462 95.2009C259.802 95.2009 260.091 95.1523 260.327 95.0549C260.564 94.9506 260.741 94.8011 260.859 94.6065C260.984 94.4048 261.047 94.1649 261.047 93.8868C261.047 93.4697 260.911 93.1568 260.64 92.9482C260.369 92.7327 259.973 92.6249 259.451 92.6249H258.721C258.575 92.6249 258.464 92.5901 258.388 92.5206C258.311 92.4441 258.273 92.3433 258.273 92.2181C258.273 92.086 258.311 91.9852 258.388 91.9157C258.464 91.8462 258.575 91.8114 258.721 91.8114H259.368C259.674 91.8114 259.935 91.7593 260.15 91.655C260.366 91.5437 260.532 91.3908 260.651 91.1961C260.776 91.0014 260.838 90.765 260.838 90.4869C260.838 90.1114 260.717 89.8264 260.473 89.6317C260.23 89.43 259.879 89.3292 259.42 89.3292C259.121 89.3292 258.839 89.3744 258.575 89.4648C258.311 89.5482 258.043 89.6908 257.772 89.8924C257.682 89.955 257.591 89.9863 257.501 89.9863C257.411 89.9793 257.334 89.948 257.272 89.8924C257.216 89.8368 257.178 89.7707 257.157 89.6943C257.136 89.6108 257.139 89.5239 257.167 89.4335C257.195 89.3431 257.258 89.2632 257.355 89.1936C257.64 88.9712 257.967 88.8008 258.335 88.6826C258.711 88.5575 259.097 88.4949 259.493 88.4949C259.973 88.4949 260.383 88.5714 260.724 88.7243C261.071 88.8773 261.336 89.0963 261.516 89.3814C261.697 89.6595 261.787 89.9967 261.787 90.393C261.787 90.692 261.732 90.9666 261.621 91.2169C261.509 91.4603 261.349 91.6689 261.141 91.8427C260.939 92.0096 260.692 92.1278 260.4 92.1973V92.0826C260.908 92.173 261.301 92.385 261.579 92.7188C261.864 93.0455 262.006 93.4558 262.006 93.9494C262.006 94.3735 261.902 94.7455 261.694 95.0653C261.492 95.3782 261.203 95.6181 260.828 95.785C260.453 95.9518 260.008 96.0353 259.493 96.0353ZM267.061 96.0144C266.908 96.0144 266.789 95.9727 266.706 95.8893C266.623 95.8058 266.581 95.6842 266.581 95.5242V94.4083H263.682C263.529 94.4083 263.403 94.3735 263.306 94.304C263.216 94.2345 263.17 94.1267 263.17 93.9807C263.17 93.8973 263.191 93.8104 263.233 93.72C263.275 93.6296 263.348 93.5079 263.452 93.3549L266.55 88.8391C266.626 88.7348 266.706 88.6548 266.789 88.5992C266.88 88.5436 266.981 88.5157 267.092 88.5157C267.217 88.5157 267.321 88.5575 267.405 88.6409C267.495 88.7174 267.54 88.8391 267.54 89.0059V93.5844H268.25C268.403 93.5844 268.517 93.6191 268.594 93.6887C268.67 93.7582 268.708 93.859 268.708 93.9911C268.708 94.1302 268.67 94.2345 268.594 94.304C268.517 94.3735 268.403 94.4083 268.25 94.4083H267.54V95.5242C267.54 95.6842 267.499 95.8058 267.415 95.8893C267.332 95.9727 267.214 96.0144 267.061 96.0144ZM266.581 93.5844V89.7255H266.842L264.026 93.8451V93.5844H266.581Z" fill="#94A3B8"/>
</g>
<defs>
<filter id="filter0_b_5561_8222" x="-28.0343" y="-28.0343" width="409.069" height="206.906" filterUnits="userSpaceOnUse" color-interpolation-filters="sRGB">
<feFlood flood-opacity="0" result="BackgroundImageFix"/>
<feGaussianBlur in="BackgroundImageFix" stdDeviation="14.0172"/>
<feComposite in2="SourceAlpha" operator="in" result="effect1_backgroundBlur_5561_8222"/>
<feBlend mode="normal" in="SourceGraphic" in2="effect1_backgroundBlur_5561_8222" result="shape"/>
</filter>
<linearGradient id="paint0_linear_5561_8222" x1="176.5" y1="0" x2="176.5" y2="103.375" gradientUnits="userSpaceOnUse">
<stop stop-color="white"/>
<stop offset="1" stop-color="white" stop-opacity="0.5"/>
</linearGradient>
</defs>
</svg>
